<?xml version="1.0" encoding="UTF-8" standalone="no"?>
<!-- Created with Inkscape (http://www.inkscape.org/) -->

<svg
   version="1.1"
   id="svg1"
   width="546.82904"
   height="653.69092"
   viewBox="0 0 546.82904 653.69092"
   xmlns="http://www.w3.org/2000/svg"
   xmlns:svg="http://www.w3.org/2000/svg">
  <defs
     id="defs1" />
  <g
     id="g1"
     transform="translate(-76.159157,-9.3544101)">
    <path
       style="fill:#000000"
       d="m 99.373841,662.74239 c -0.101162,-0.16368 -1.00966,-0.39676 -2.018886,-0.51795 -1.762213,-0.21162 -5.32853,-1.25133 -5.994956,-1.74775 -0.176,-0.1311 -0.676418,-0.34798 -1.112041,-0.48196 -1.358836,-0.41791 -5.308898,-3.32333 -7.097518,-5.2205 -1.792317,-1.90108 -3.645527,-4.5584 -4.501167,-6.45423 -1.291222,-2.86095 -1.519094,-3.5025 -1.989057,-5.6 -0.453445,-2.02379 -0.501809,-25.64061 -0.501053,-244.66881 8.2e-4,-237.771 0.01261,-242.47437 0.613416,-244.8 1.575081,-6.09687 5.383956,-11.80012 9.78742,-14.65527 0.704,-0.45646 1.352,-0.91412 1.44,-1.01703 0.457713,-0.53522 3.399266,-1.8827 6.4,-2.93174 l 2.08,-0.72715 49.416651,-0.0878 c 31.94822,-0.0568 49.55134,-0.19961 49.79767,-0.40405 0.23925,-0.19856 0.4469,-1.83285 0.55807,-4.39217 0.24438,-5.62616 1.15594,-8.11634 3.86697,-10.5637 L 201.28,117.42452 V 65.951359 c 0,-46.357828 0.0507,-51.596298 0.50976,-52.712239 0.73723,-1.791973 1.92963,-2.907584 3.75612,-3.5142479 1.50942,-0.5013493 1.69699,-0.499092 3.22833,0.038849 1.99147,0.6995859 2.29301,0.9293049 3.34931,2.5516209 L 212.96,13.6 l 0.0847,52.046273 0.0847,52.046277 0.77655,0.50881 c 1.07208,0.70246 2.77389,3.24073 3.4504,5.14636 0.42428,1.1951 0.56366,2.58383 0.56366,5.616 0,2.70644 0.126,4.15428 0.384,4.41228 0.29741,0.29741 29.91241,0.384 131.34185,0.384 h 130.95786 l 0.49814,-0.7112 c 0.37708,-0.53836 0.49907,-1.56883 0.50194,-4.24 0.004,-3.49072 0.43912,-5.99893 1.30804,-7.53602 0.24649,-0.43603 1.13217,-1.54016 1.96817,-2.45363 l 1.52,-1.66084 V 65.965685 c 0,-49.449448 0.0205,-51.239839 0.60325,-52.579155 0.81307,-1.868785 2.14082,-3.043601 3.87878,-3.4320175 2.4522,-0.5480389 4.5147,0.1773105 5.98496,2.1048105 l 0.89301,1.170729 0.16,52.114281 0.16,52.114277 1.02512,0.80225 c 1.10356,0.86363 2.97488,3.43714 2.97488,4.09118 0,0.21998 0.18,0.57972 0.4,0.79942 0.27343,0.27307 0.4345,1.90866 0.50904,5.16893 0.075,3.2784 0.23267,4.87205 0.50447,5.09762 0.26533,0.22021 16.59889,0.35808 49.65095,0.41908 l 49.25554,0.0909 2.218,0.71 c 1.2199,0.3905 2.3647,0.8567 2.544,1.036 0.1793,0.1793 0.55426,0.326 0.83325,0.326 0.27899,0 1.80475,0.8476 3.39058,1.88355 4.79234,3.13063 7.57877,6.67156 10.22717,12.99645 1.31855,3.14894 1.26306,-7.01679 1.34763,246.87594 0.0714,214.53237 0.0259,242.26405 -0.4,243.72925 -0.26435,0.90932 -0.48063,1.93684 -0.48063,2.28338 0,0.55942 -0.57287,2.10646 -1.68538,4.55143 -0.86241,1.89532 -3.22231,5.10498 -5.09405,6.92833 -2.23148,2.17379 -6.14528,4.91167 -7.02124,4.91167 -0.30886,0 -0.64016,0.12717 -0.73623,0.28262 -0.24348,0.39395 -4.1908,1.57911 -6.01565,1.80616 -0.83189,0.10351 -1.59639,0.32387 -1.69888,0.4897 -0.25124,0.40652 -500.203493,0.41042 -500.454729,0.004 z M 230.42104,650.86874 c 0.61114,-0.32708 0.61896,-3.51514 0.61896,-252.45383 0,-138.66741 -0.0862,-252.34731 -0.19165,-252.62199 -0.17278,-0.45026 -6.6131,-0.50029 -65.42751,-0.50828 -47.40623,-0.006 -65.654716,0.09 -66.768357,0.35275 -5.535158,1.30612 -9.565061,5.40079 -10.679317,10.85095 -0.180358,0.88218 -0.264259,95.82376 -0.214636,242.88 L 87.84,640.8 l 0.842979,1.76541 c 1.917637,4.01602 5.331289,6.88481 9.557021,8.0316 1.95399,0.53028 6.00198,0.56565 66.82104,0.58373 44.05157,0.0131 64.93884,-0.0866 65.36,-0.312 z M 193.76,634.24081 c -3.22076,-0.82339 -4.21301,-1.24793 -6.66769,-2.85281 -4.26474,-2.7883 -7.45179,-7.24939 -8.7236,-12.2109 -0.40854,-1.59376 -0.48986,-2.95807 -0.36105,-6.0571 0.17706,-4.25998 0.71478,-6.18063 2.67485,-9.55414 0.86631,-1.49104 5.43179,-6.44586 5.93934,-6.44586 0.14898,0 0.84484,-0.36234 1.54636,-0.80519 2.52957,-1.59685 6.99598,-2.81043 10.49024,-2.85035 L 200.8,593.44 v 15.36 15.36 l -2.27002,0.093 c -1.63062,0.0668 -2.37311,-0.0312 -2.63601,-0.34798 -0.25657,-0.30915 -0.39109,-3.97225 -0.44998,-12.25301 L 195.36,599.84 l -1.18931,0.0692 c -2.36635,0.13767 -5.76983,2.52091 -8.12699,5.69081 -1.72597,2.32108 -2.6609,5.35681 -2.6609,8.64 0,2.08978 0.69852,5.48932 1.23898,6.02977 0.18602,0.18603 0.33822,0.5316 0.33822,0.76796 0,0.85937 2.68343,3.95417 4.63783,5.3488 2.94931,2.10458 4.23691,2.51039 8.41142,2.65097 3.74485,0.12612 4.89509,-0.11727 8.07075,-1.70777 1.87413,-0.93864 4.92909,-4.30892 6.09982,-6.72941 1.03599,-2.14191 1.06449,-2.31076 1.07356,-6.36032 0.009,-4.06883 -0.0139,-4.20767 -1.05212,-6.33469 -0.64488,-1.32121 -1.86595,-3.01559 -3.11136,-4.31737 -1.12744,-1.17848 -2.0499,-2.41488 -2.0499,-2.74755 0,-0.60428 0.97902,-2.44175 1.84294,-3.45892 0.60774,-0.71555 1.2025,-0.4496 3.35128,1.49853 1.83678,1.66525 4.72578,5.51699 4.72578,6.3006 0,0.24827 0.14565,0.59705 0.32367,0.77506 0.80443,0.80443 1.59627,4.96223 1.5922,8.36028 -0.008,6.71628 -2.69217,12.1613 -8.01426,16.25779 -4.85578,3.73757 -11.36568,5.13348 -17.10161,3.66708 z m 4,-48.48934 c -0.264,-0.0552 -1.632,-0.28112 -3.04,-0.50209 -4.30651,-0.67587 -7.84792,-2.57903 -11.0609,-5.94416 -2.58818,-2.71073 -3.21174,-3.67107 -4.8554,-7.47777 -0.87963,-2.0372 -1.33359,-6.6772 -0.92323,-9.43631 0.41347,-2.77993 1.32291,-5.77044 2.12897,-7.00064 0.51819,-0.79086 0.67989,-0.8305 3.38736,-0.8305 2.56134,0 2.8432,0.0592 2.8432,0.59684 0,0.32827 -0.252,0.94129 -0.56,1.36227 -1.02198,1.39688 -1.42326,2.28203 -2.03449,4.48771 -1.40937,5.0859 -0.0606,10.34083 3.66534,14.28046 5.22691,5.52669 12.94492,6.381 19.56915,2.16612 1.26139,-0.8026 3.955,-3.55992 4.33717,-4.43975 0.16572,-0.38151 0.43098,-0.90965 0.58947,-1.17365 1.17643,-1.95959 1.47289,-3.42698 1.45259,-7.19002 -0.0199,-3.69195 -0.0648,-3.94131 -1.09378,-6.0748 -1.43458,-2.9745 -4.53557,-6.08403 -7.54064,-7.5614 L 202.4,549.92 183.36865,549.8234 c -14.34829,-0.0728 -19.09134,-0.19092 -19.2751,-0.48 -0.13407,-0.21089 -0.24596,-1.42743 -0.24865,-2.70343 l -0.005,-2.32 h 18.69415 c 20.80899,0 20.58596,-0.0195 25.14267,2.19268 1.53743,0.74637 3.18681,1.90881 4.60007,3.242 2.24984,2.12239 4.68311,5.34842 4.68311,6.20887 0,0.26327 0.12991,0.55896 0.28869,0.6571 0.15878,0.0981 0.60925,1.22263 1.00105,2.49888 1.28303,4.17942 0.89866,10.54833 -0.82861,13.72984 -0.25362,0.46715 -0.46113,0.99697 -0.46113,1.17737 0,0.68989 -2.58208,4.12943 -4.3708,5.82224 -2.08329,1.9716 -3.18329,2.7616 -5.0692,3.64059 -2.48187,1.15676 -3.2216,1.39798 -5.44,1.77388 -3.12825,0.53008 -3.77121,0.60271 -4.32,0.48802 z m -3.2,-49.73639 c -5.93908,-0.9049 -12.13971,-5.62408 -14.73576,-11.21508 -1.28452,-2.76642 -1.5203,-3.52558 -1.90994,-6.1495 -0.32758,-2.20599 -0.33508,-3.34393 -0.0359,-5.44 0.41459,-2.90442 1.28819,-5.81367 2.13287,-7.10281 0.51955,-0.79294 0.66843,-0.82769 3.54552,-0.82769 1.65176,0 3.0032,0.1239 3.0032,0.27534 0,0.15144 -0.324,0.76969 -0.72,1.37389 -3.41355,5.20824 -3.65453,10.53234 -0.73057,16.14113 2.80378,5.37829 10.28441,8.83938 16.08598,7.44257 5.42045,-1.30506 9.44026,-4.61126 11.22579,-9.23293 1.24744,-3.22891 1.25476,-8.57154 0.0156,-11.39588 -2.06315,-4.70245 -5.37826,-7.5495 -10.5168,-9.03193 -1.47874,-0.4266 -4.64934,-0.53527 -19.84,-0.67997 L 164,500 v -2.4 -2.4 h 19.2 c 17.9664,0 19.32162,0.039 21.0929,0.60642 1.0411,0.33353 2.2651,0.80064 2.72,1.03803 0.4549,0.23738 0.94604,0.43249 1.0914,0.43358 0.30048,0.002 3.48851,2.42212 4.69619,3.56466 3.9848,3.76984 6.14819,8.86519 6.17125,14.53494 0.0133,3.26334 -0.69537,6.96482 -1.5878,8.29357 -0.23317,0.34716 -0.42394,0.80498 -0.42394,1.01737 0,0.21239 -0.55919,1.22435 -1.24264,2.2488 -4.69317,7.03475 -12.52143,10.39352 -21.15736,9.07771 z m -25.62462,-49.91047 c -1.04721,-1.04721 -1.18556,-2.08502 -0.42309,-3.17361 1.65163,-2.35803 5.57847,-0.76962 4.75998,1.92541 -0.67867,2.23466 -2.75332,2.83176 -4.33689,1.2482 z m 8.88028,0.72439 c -0.37796,-0.37796 -0.23683,-4.43983 0.16834,-4.845 0.29051,-0.29051 5.27394,-0.384 20.46874,-0.384 23.06244,0 20.85591,-0.3507 20.68234,3.28714 l -0.0951,1.99286 -20.50434,0.0823 c -11.27738,0.0453 -20.60138,-0.0147 -20.72,-0.13333 z M 459.7602,650.93609 c 0.31983,-0.20308 0.38409,-50.98917 0.32,-252.8751 L 460,145.44 349.55744,145.3595 239.11488,145.279 l -0.19307,0.72046 c -0.35816,1.33647 -0.22922,503.91131 0.12945,504.58149 0.32652,0.61012 1.90226,0.6189 110.32,0.61407 60.4938,-0.003 110.16883,-0.11925 110.38894,-0.25901 z M 344,616.3698 c -1.64099,-0.78883 -2.88,-1.67567 -2.88,-2.06141 0,-0.1859 -0.232,-0.59436 -0.51556,-0.90768 -0.37713,-0.41673 -0.51555,-1.2109 -0.51555,-2.95783 0,-2.24499 0.0693,-2.48091 1.15664,-3.93552 2.22863,-2.9815 2.602,-3.46138 3.56346,-4.57999 3.21352,-3.73876 4.15446,-5.4127 3.08105,-5.4812 -0.29152,-0.0186 -3.55404,-0.1266 -7.25004,-0.24 -6.37784,-0.19568 -6.77386,-0.24459 -7.7777,-0.96056 -2.1737,-1.55037 -3.19272,-4.38387 -2.63988,-7.34047 0.23544,-1.25918 2.37009,-4.41232 5.02675,-7.42514 1.63095,-1.84961 2.03083,-2.34822 2.03083,-2.53224 0,-0.10687 0.396,-0.61992 0.88,-1.14013 1.12839,-1.2128 2.62389,-3.0112 3.44,-4.13677 0.352,-0.48548 0.97677,-1.26702 1.38838,-1.73677 0.41162,-0.46975 1.74332,-2.09969 2.95934,-3.62209 2.85284,-3.57162 3.7602,-4.112 6.90452,-4.112 2.2081,0 2.52112,0.0835 3.64314,0.97218 2.12399,1.68223 2.62872,2.83123 2.49797,5.68649 -0.0854,1.86363 -0.27149,2.67942 -0.75335,3.30171 -0.352,0.45458 -1.792,2.23413 -3.2,3.95455 -1.408,1.72042 -2.95427,3.6367 -3.43616,4.2584 -1.43213,1.84765 -1.04915,1.98663 5.47534,1.98693 4.70324,2.1e-4 5.89869,0.0982 7.19224,0.58946 3.25748,1.23715 4.68858,3.25975 4.68858,6.62649 0,2.28963 -0.41185,3.16747 -2.85671,6.08901 -0.72481,0.86613 -1.42256,1.72107 -1.55056,1.89987 -0.128,0.1788 -0.88866,1.1148 -1.69034,2.08 -0.80169,0.9652 -1.80328,2.25891 -2.22576,2.87491 -0.42248,0.616 -1.16328,1.552 -1.64621,2.08 -0.84143,0.91994 -2.13922,2.55352 -5.79435,7.29355 -2.67771,3.47249 -6.33102,4.8535 -9.19607,3.47625 z m 5.02555,-2.66421 c 0.26279,-0.21809 1.14389,-1.26707 1.95801,-2.33106 0.81412,-1.064 1.7452,-2.22253 2.06906,-2.57453 0.32387,-0.352 1.18368,-1.432 1.9107,-2.4 0.72702,-0.968 1.47566,-1.904 1.66364,-2.08 0.18798,-0.176 1.13001,-1.328 2.09341,-2.56 0.96339,-1.232 2.14204,-2.66615 2.61921,-3.18699 1.42451,-1.55489 0.8791,-1.77301 -4.43331,-1.77301 -4.42537,0 -4.6444,0.0308 -5.32082,0.74918 -0.85797,0.91116 -2.69044,3.1387 -5.03362,6.11886 -0.96351,1.22542 -2.04598,2.54624 -2.40549,2.93514 -0.35951,0.38891 -0.99233,1.43019 -1.40627,2.31397 -0.67441,1.43988 -0.70886,1.71251 -0.33154,2.62345 0.46293,1.11762 1.402,2.1265 2.39147,2.56925 0.83117,0.37192 3.61072,0.106 4.22555,-0.40426 z m 2.02325,-20.0141 c 0.43516,-0.30168 1.05426,-0.87846 1.37578,-1.28173 0.32152,-0.40327 0.75537,-0.91244 0.9641,-1.13149 1.40819,-1.47778 3.74179,-4.76244 3.57511,-5.03214 -0.12078,-0.19543 -1.93121,-0.32613 -4.51722,-0.32613 -4.85534,0 -4.25845,-0.26227 -7.0661,3.10481 -1.77824,2.13256 -2.98047,3.92701 -2.98047,4.44865 0,0.31786 0.82189,0.45013 3.28,0.52785 1.804,0.057 3.57196,0.13408 3.9288,0.1712 0.35683,0.0371 1.00483,-0.17934 1.44,-0.48102 z m 13.1962,-0.0393 c 1.45011,-0.9562 1.8139,-1.67965 1.82482,-3.62892 0.01,-1.71329 -0.0577,-1.87267 -1.18273,-2.8 -1.70224,-1.40312 -3.48061,-1.37925 -4.94431,0.0664 -1.39341,1.3762 -3.78409,4.22182 -4.55318,5.41962 -0.86893,1.35329 -0.41591,1.5204 4.1304,1.52371 3.18251,0.002 3.99153,-0.0971 4.725,-0.58078 z M 339.89212,591.92 c 2.08592,-2.17136 4.40457,-5.36839 4.22771,-5.82929 -0.11306,-0.29462 -1.21742,-0.49247 -3.62778,-0.64993 -3.88281,-0.25365 -5.37701,0.065 -6.72466,1.43403 -0.66555,0.67611 -0.79379,1.11636 -0.8,2.74632 -0.007,1.73501 0.091,2.03235 0.91933,2.8 0.78753,0.72985 1.21005,0.85887 2.81282,0.85887 1.80066,0 1.94527,-0.0616 3.19258,-1.36 z m 7.86231,-9.73695 c 0.6105,-0.64731 1.9235,-2.1938 2.91778,-3.43664 0.99428,-1.24284 2.60988,-3.22456 3.59022,-4.40381 2.21885,-2.66909 2.82621,-4.28958 2.23437,-5.96149 -0.55265,-1.56123 -0.85811,-1.90755 -2.35684,-2.67215 -1.20331,-0.61388 -1.32748,-0.61957 -2.6338,-0.12069 -1.37625,0.5256 -2.12718,1.32769 -7.50616,8.01757 -0.968,1.20391 -2.48208,3.0631 -3.36461,4.13154 -3.78892,4.58706 -4.08882,5.08246 -3.27539,5.41069 0.22,0.0888 2.39899,0.17277 4.84221,0.18666 l 4.44222,0.0253 z M 282.88,447.06363 c -4.85232,-0.55766 -10.33445,-4.35162 -12.62068,-8.73424 -1.67199,-3.20515 -2.16556,-5.42725 -2.03802,-9.17547 0.12608,-3.70544 0.94638,-6.33003 2.86856,-9.17817 1.33078,-1.97184 4.57717,-4.80745 6.59884,-5.76385 2.19931,-1.04044 5.92009,-2.03464 7.65103,-2.04437 1.57777,-0.009 6.45984,1.10404 6.93719,1.58139 0.18209,0.18209 0.51106,0.33108 0.73104,0.33108 0.21997,0 1.09117,0.45487 1.936,1.01082 4.93958,3.25059 7.62825,7.91966 7.99751,13.88826 0.30377,4.91004 -1.40183,9.30695 -5.00162,12.89378 -2.55808,2.54887 -2.6303,2.60378 -4.65985,3.54297 -0.88,0.40723 -1.85747,0.8719 -2.17215,1.03259 -0.60676,0.30985 -4.74899,0.9173 -5.82785,0.85465 -0.352,-0.0204 -1.432,-0.12819 -2.4,-0.23944 z m 8.50101,-4.85712 c 2.726,-1.28797 5.09602,-3.65599 6.53921,-6.53369 1.07824,-2.14999 1.11978,-2.36452 1.11978,-5.78291 0,-2.3176 -0.15065,-3.87292 -0.43393,-4.48 -1.414,-3.03021 -1.98798,-3.88195 -3.67105,-5.44757 -2.07209,-1.92748 -3.37779,-2.68353 -5.9531,-3.44704 -5.70286,-1.69077 -12.67481,1.32283 -15.46504,6.6847 -1.46842,2.82179 -1.5734,3.32419 -1.45952,6.98509 0.0978,3.14545 0.22006,3.79779 1.01742,5.43025 1.23295,2.52429 3.57002,4.96385 6.01306,6.27676 2.53948,1.36475 3.86542,1.62575 7.38246,1.45317 2.28294,-0.11202 3.17586,-0.31909 4.91071,-1.13876 z m 34.83323,4.85536 c -1.24854,-0.1505 -2.91117,-0.70187 -4.64,-1.53875 -5.33595,-2.58298 -8.7085,-7.1098 -9.75108,-13.08839 -0.4268,-2.44745 -0.42278,-3.00039 0.0398,-5.46923 0.28306,-1.51058 0.63665,-2.97578 0.78575,-3.25601 0.1491,-0.28022 0.60413,-1.22949 1.01117,-2.10949 1.04016,-2.24877 5.03954,-6.20145 7.40833,-7.32184 2.32442,-1.0994 6.02067,-2.10068 7.79148,-2.11063 1.62977,-0.009 5.98227,1.01447 7.30027,1.71689 0.528,0.2814 1.07408,0.51252 1.2135,0.51361 0.13943,10e-4 0.42743,0.14478 0.64,0.31934 0.21258,0.17455 1.14492,0.89981 2.07187,1.61168 4.94364,3.79658 7.44244,10.91369 6.00761,17.11095 -0.85212,3.68045 -1.8798,5.64971 -4.32278,8.28341 -3.87405,4.17649 -9.41644,6.07852 -15.55596,5.33846 z m 8.04791,-4.53236 c 3.17019,-1.37765 5.67964,-3.7661 7.29794,-6.94605 0.24168,-0.4749 0.70054,-1.98235 1.01969,-3.34988 0.55957,-2.39774 0.55969,-2.56892 0.003,-4.8 -0.7762,-3.11261 -1.56755,-4.72462 -3.22351,-6.56645 -1.86311,-2.07222 -3.57217,-3.20902 -6.16201,-4.09874 -7.32956,-2.51801 -14.99427,1.69184 -17.38333,9.54782 -0.73824,2.42759 -0.77003,4.06403 -0.12764,6.57151 0.661,2.58015 1.44539,4.11288 3.02021,5.90164 1.36918,1.55518 3.89886,3.45064 4.60522,3.45064 0.21998,0 0.54708,0.14712 0.7269,0.32694 1.116,1.116 7.62383,1.09217 10.22321,-0.0374 z M 368,447.05732 c -2.63245,-0.32846 -4.70853,-1.15001 -7.2,-2.8492 -9.08553,-6.19635 -10.27316,-18.972 -2.48742,-26.75775 2.93585,-2.93585 8.28248,-5.26112 12.14715,-5.28284 1.57777,-0.009 6.45984,1.10404 6.93719,1.58139 0.18209,0.18209 0.51106,0.33108 0.73104,0.33108 0.72662,0 3.4451,1.99381 5.12048,3.75551 3.13357,3.29502 4.72628,7.30053 4.74153,11.92449 0.0356,10.80255 -9.04797,18.66259 -19.98997,17.29732 z m 8.40807,-4.8069 c 2.19983,-1.03937 5.16339,-3.73432 6.04832,-5.50011 1.60762,-3.20786 1.70365,-3.5937 1.70002,-6.83031 -0.004,-3.6936 -0.52951,-5.42242 -2.44526,-8.04668 -1.91479,-2.62293 -4.17481,-4.23138 -7.38761,-5.25775 -3.29009,-1.05105 -6.88534,-0.64759 -10.48354,1.17647 -1.91217,0.96935 -4.59102,3.93506 -5.75201,6.36796 -0.98105,2.05583 -1.07129,2.50309 -1.09765,5.44 -0.0417,4.65204 1.06706,7.25282 4.38494,10.28517 3.12783,2.85866 5.57552,3.68776 10.21502,3.4601 2.25105,-0.11046 3.18213,-0.32205 4.81777,-1.09485 z m 35.11193,4.82517 c -4.44506,-0.54107 -9.19594,-3.48129 -11.69147,-7.23559 -3.59102,-5.40238 -4.13098,-11.70918 -1.49314,-17.44 1.39137,-3.02281 5.03735,-6.78971 7.86777,-8.12871 2.31084,-1.09321 6.00966,-2.09383 7.77657,-2.10376 3.53466,-0.0199 8.66534,1.96739 11.74733,4.5501 1.3872,1.16247 4.35294,5.19109 4.35294,5.91297 0,0.19664 0.20706,0.7652 0.46015,1.26346 0.69213,1.36266 1.2623,5.29957 1.02015,7.04394 -0.48292,3.47873 -0.76747,4.52299 -1.80668,6.63028 -3.32831,6.74907 -10.4381,10.45622 -18.23362,9.50731 z m 8.02317,-4.63363 c 4.96939,-2.21194 8.2834,-7.17748 8.29336,-12.42635 0.007,-3.90463 -1.59932,-7.63655 -4.38327,-10.18093 -5.69013,-5.20046 -13.60813,-5.06894 -19.00937,0.31574 -5.51338,5.49647 -5.4152,14.35204 0.21566,19.45304 0.92073,0.8341 1.89026,1.68845 2.1545,1.89856 2.60133,2.06844 9.11347,2.54931 12.72912,0.93994 z M 279.18545,403.69454 c -0.432,-0.432 -0.78545,-0.92003 -0.78545,-1.08452 0,-0.16449 0.86468,-1.13546 1.92151,-2.15772 2.21674,-2.14421 2.22797,-2.39802 0.19516,-4.40973 -2.05568,-2.03435 -2.21441,-2.30202 -1.81154,-3.05478 0.19224,-0.35922 0.63424,-0.80549 0.9822,-0.99172 0.82407,-0.44103 1.58071,-0.0338 3.33101,1.79295 0.74357,0.77604 1.60958,1.41098 1.92445,1.41098 0.31488,0 1.16756,-0.59577 1.89486,-1.32392 2.13135,-2.13388 2.61096,-2.36888 3.56235,-1.74551 1.24596,0.81639 1.02643,1.8343 -0.8,3.70943 -0.88,0.90346 -1.6,1.9403 -1.6,2.30408 0,0.37039 0.70403,1.35445 1.6,2.23639 1.78061,1.75274 2.03816,2.79634 0.8888,3.60138 -1.0974,0.76865 -1.45747,0.62992 -3.27516,-1.26185 -0.93009,-0.968 -1.92234,-1.76 -2.205,-1.76 -0.28265,0 -1.33163,0.792 -2.33106,1.76 -0.99943,0.968 -2.01728,1.76 -2.26191,1.76 -0.24462,0 -0.79822,-0.35346 -1.23022,-0.78546 z m 48.06074,-0.23732 c -0.1086,-0.40547 -0.19942,-2.18922 -0.20182,-3.96389 -0.002,-1.77467 -0.097,-3.31933 -0.21029,-3.43259 -0.11326,-0.11325 -0.86973,0.51986 -1.68104,1.40693 -1.04299,1.14037 -1.63161,1.55279 -2.00934,1.40784 -1.26987,-0.48729 -0.94781,-1.2178 1.71848,-3.89802 1.45656,-1.46417 2.92006,-2.74838 3.25221,-2.8538 0.90971,-0.28873 6.02384,4.85544 5.89699,5.93163 -0.14447,1.22573 -0.71193,1.12508 -2.47247,-0.43852 -0.90215,-0.80124 -1.77504,-1.4568 -1.93974,-1.4568 -0.16478,0 -0.33989,1.76317 -0.38932,3.92 l -0.0899,3.92 -0.83818,0.0972 c -0.64729,0.0751 -0.88314,-0.0707 -1.03563,-0.64 z m 40.48563,-2.63609 c -1.76481,-1.78067 -2.63031,-2.88881 -2.55633,-3.27297 0.19993,-1.03816 1.20437,-0.84824 2.67287,0.50539 0.77954,0.71854 1.56456,1.30645 1.74449,1.30645 0.2013,0 0.32883,-1.26173 0.33152,-3.28 0.005,-4.056 0.16278,-4.72 1.11871,-4.72 0.9953,0 1.11692,0.48484 1.11692,4.45284 0,1.89227 0.0995,3.53999 0.22111,3.6616 0.12161,0.12161 0.8966,-0.44422 1.7222,-1.25741 1.52279,-1.49989 2.58772,-1.77737 2.79,-0.72697 0.12406,0.64419 -5.20569,6.03136 -5.96236,6.02659 -0.29202,-0.002 -1.73163,-1.21483 -3.19913,-2.69552 z m 41.06981,0.0115 c -1.3209,-1.32519 -2.40163,-2.60834 -2.40163,-2.85145 0,-0.46623 0.98727,-1.5012 1.43201,-1.5012 0.14389,0 0.95438,0.648 1.80109,1.44 0.84671,0.792 1.73545,1.44 1.97497,1.44 0.23953,0 1.8856,-1.44 3.65794,-3.2 3.4471,-3.42309 4.34146,-3.85327 4.90879,-2.36108 0.23151,0.60893 0.20741,0.97385 -0.0879,1.3311 -1.31946,1.59604 -7.74486,7.75064 -8.26355,7.91527 -0.47469,0.15066 -1.18315,-0.36811 -3.0217,-2.21264 z M 280.64,374.99981 c -3.67344,-0.41782 -7.58373,-3.4353 -9.37907,-7.23761 L 270.24,365.6 v -37.34402 c 0,-29.44855 0.0846,-37.42858 0.4,-37.744 0.22,-0.21999 0.4,-0.63574 0.4,-0.92389 0,-0.97476 2.52681,-4.06404 4.2311,-5.17292 3.59953,-2.34204 -2.0117,-2.17517 73.14599,-2.17517 59.63111,0 67.66861,0.0569 69.20483,0.4903 4.54344,1.28169 7.41426,4.14985 8.79783,8.7897 0.59801,2.00542 0.62025,3.39947 0.62025,38.88 0,34.41775 -0.0361,36.86214 -0.55803,37.76 -0.30692,0.528 -0.55892,1.10865 -0.56,1.29034 -0.005,0.76286 -3.17101,3.50583 -5.12197,4.43695 l -2.08,0.99271 -25.12,0.0798 c -64.78485,0.20575 -111.35791,0.22226 -112.96,0.04 z m 136.54014,-4.62435 c 2.4883,-0.57594 3.92383,-1.53588 5.11237,-3.41865 l 0.82835,-1.31219 -0.0302,-35.80183 c -0.0346,-40.95028 0.15575,-38.12522 -2.76559,-41.04939 -1.25133,-1.25255 -1.95765,-1.68597 -3.20504,-1.96672 -1.17403,-0.26424 -19.74659,-0.30508 -69.76,-0.1534 l -68.16,0.20672 -1.20685,0.75033 c -0.66377,0.41268 -1.56095,1.21457 -1.99373,1.78198 -1.83405,2.40457 -1.75942,0.78135 -1.75942,38.26867 0,30.37848 0.0606,34.74891 0.50949,36.73662 0.79421,3.51685 2.46627,5.10936 6.37051,6.06742 0.81365,0.19966 25.43555,0.32883 67.58014,0.35454 59.32543,0.0362 66.52946,-0.0126 68.48,-0.4641 z m 183.11941,280.30309 c 4.71784,-1.17123 8.14641,-4.01858 9.89418,-8.21691 l 1.00794,-2.42118 -0.0808,-242.34023 L 611.04,155.36 l -1.07761,-2.14716 c -1.93041,-3.84639 -5.65625,-6.7237 -9.80239,-7.56999 -1.48681,-0.30348 -16.57635,-0.37057 -66.88,-0.29737 l -64.96,0.0945 -0.0818,252.48 c -0.045,138.864 -0.0135,252.66 0.07,252.88 0.12068,0.31818 13.41988,0.4 65.02131,0.4 58.88074,0 65.06351,-0.0482 66.97004,-0.52145 z"
       id="path1" />
  </g>
</svg>
