<?xml version="1.0" encoding="UTF-8" standalone="no"?>
<!-- Created with Inkscape (http://www.inkscape.org/) -->

<svg
   version="1.1"
   id="svg1"
   width="417.28"
   height="759.17896"
   viewBox="0 0 417.28 759.17895"
   xmlns="http://www.w3.org/2000/svg"
   xmlns:svg="http://www.w3.org/2000/svg">
  <defs
     id="defs1" />
  <g
     id="g1"
     transform="translate(-195.84,-19.904184)">
    <path
       style="fill:#000000"
       d="m 257.6,778.98962 c -0.44,-0.0691 -1.448,-0.28384 -2.24,-0.4772 -0.792,-0.19336 -2.304,-0.54001 -3.36,-0.77034 -2.67979,-0.5845 -6.36977,-1.40657 -8.64,-1.92486 -2.04941,-0.46787 -4.97725,-1.1132 -7.84,-1.728 -0.968,-0.20789 -2.552,-0.57212 -3.52,-0.80939 -0.968,-0.23728 -2.912,-0.67752 -4.32,-0.97833 -1.408,-0.30081 -3.30216,-0.7437 -4.20925,-0.98421 -0.90709,-0.24051 -1.93455,-0.43729 -2.28325,-0.43729 -0.3487,0 -1.33454,-0.20409 -2.19075,-0.45353 -0.85621,-0.24945 -2.34875,-0.62456 -3.31675,-0.8336 -1.83066,-0.39532 -3.92551,-0.85709 -8,-1.76344 -1.32,-0.29363 -3.264,-0.72317 -4.32,-0.95453 -5.38127,-1.17897 -6.17103,-1.3864 -6.81888,-1.79099 l -0.70112,-0.43786 0.0101,-365.12302 0.01,-365.12303 0.71637,-0.519442 c 0.39401,-0.285694 1.36148,-0.622448 2.14995,-0.748343 0.78846,-0.125894 2.15357,-0.412924 3.03357,-0.637844 0.88,-0.22492 2.752,-0.655059 4.16,-0.955866 1.408,-0.300807 3.352,-0.737082 4.32,-0.969501 4.21501,-1.01203 6.27502,-1.454199 6.76325,-1.451691 0.28779,0.0015 1.22379,-0.205382 2.08,-0.459689 0.85622,-0.254308 2.70875,-0.701961 4.11675,-0.994786 1.408,-0.292825 3.712,-0.79773 5.12,-1.122012 2.89917,-0.667718 5.5595,-1.254799 9.28,-2.047909 1.408,-0.300148 3.29266,-0.749842 4.18813,-0.99932 C 242.6836,23.244119 243.67894,23.04 244,23.04 c 0.32106,0 1.31641,-0.204118 2.21188,-0.453597 0.89547,-0.249478 2.78012,-0.693846 4.18812,-0.987485 1.408,-0.293638 3.136,-0.676476 3.84,-0.85075 0.704,-0.174274 2.02819,-0.450678 2.94263,-0.61423 1.01257,-0.181101 59.12897,-0.265419 148.64,-0.215653 136.07826,0.07566 147.11975,0.121287 148.89737,0.615346 1.78319,0.495606 3.01215,0.780313 8.96,2.07573 1.232,0.268324 3.032,0.680013 4,0.914865 0.968,0.234852 2.552,0.597095 3.52,0.804985 2.80093,0.601532 9.21261,2.02416 12.32,2.733571 1.91571,0.437352 4.50923,1.009987 7.84,1.731031 0.968,0.209552 2.552,0.566692 3.52,0.793644 0.968,0.226953 2.912,0.659912 4.32,0.962132 1.408,0.30222 3.352,0.738905 4.32,0.970411 0.968,0.231506 2.912,0.66889 4.32,0.971964 4.40952,0.949155 4.88908,1.101653 5.0871,1.617682 0.1061,0.276484 0.1929,164.784634 0.1929,365.573674 0,331.45603 -0.0463,365.11727 -0.50285,365.57383 -0.27657,0.27657 -0.88953,0.50285 -1.36212,0.50285 -0.47259,0 -1.3623,0.14924 -1.97714,0.33165 -0.61484,0.1824 -2.05389,0.53282 -3.19789,0.77871 -2.46985,0.53086 -6.13797,1.34469 -8.8,1.95243 -2.05656,0.4695 -4.9957,1.11726 -7.84,1.72784 -0.968,0.2078 -2.336,0.53354 -3.04,0.72385 -0.704,0.19032 -1.856,0.45204 -2.56,0.58161 -0.704,0.12957 -2.648,0.55225 -4.32,0.93929 -4.1835,0.9684 -6.93816,1.57878 -8.64,1.91445 -0.792,0.15621 -2.304,0.49489 -3.36,0.75263 -1.056,0.25773 -3.072,0.70805 -4.48,1.0007 -1.408,0.29265 -3.26053,0.74016 -4.11674,0.99447 -0.85621,0.25431 -1.86421,0.46393 -2.24,0.46584 -0.37579,0.002 -1.40326,0.2539 -2.28326,0.56 -1.51041,0.52537 -9.84171,0.55864 -148.8,0.59416 -80.96,0.0207 -147.56,-0.0189 -148,-0.088 z M 546.37383,768.76577 C 546.8344,768.58903 546.88,755.0839 546.88,618.88 c 0,-136.20389 -0.0456,-149.70903 -0.50617,-149.88576 -0.93432,-0.35853 -283.32349,-0.22229 -283.99487,0.13702 -0.6106,0.32679 -0.61889,2.34637 -0.61406,149.52 0.003,82.05381 0.1107,149.34715 0.24,149.54076 0.12931,0.19361 0.4511,0.43424 0.7151,0.53474 0.64764,0.24653 283.01183,0.28537 283.65383,0.039 z M 401.76,597.78524 c -5.1158,-0.74935 -10.35244,-4.54706 -12.61935,-9.15179 C 387.16077,584.61174 387.2,585.38791 387.2,550.24 c 0,-34.05212 0.006,-34.19901 1.54064,-37.6 1.61285,-3.57434 5.76054,-7.71074 8.69936,-8.67567 0.616,-0.20225 1.264,-0.47475 1.44,-0.60555 0.176,-0.13079 1.51642,-0.40914 2.9787,-0.61854 6.31052,-0.90366 12.24993,1.53867 16.18818,6.65671 0.81022,1.05294 1.47312,2.01761 1.47312,2.1437 0,0.12609 0.2752,0.82103 0.61156,1.5443 1.66221,3.57431 1.66437,3.62755 1.54425,38.11505 -0.12158,34.90999 -0.0119,32.93705 -2.06842,37.20608 -3.22775,6.7003 -10.40084,10.4699 -17.84739,9.37916 z m 6.94411,-4.38248 c 0.47526,-0.24352 1.00804,-0.44276 1.18396,-0.44276 0.56786,0 3.13782,-1.88831 4.17015,-3.06408 1.55282,-1.76856 2.44298,-3.33468 3.01627,-5.30671 0.4721,-1.62396 0.52551,-5.12441 0.52551,-34.43822 0,-35.06966 0.0828,-33.15424 -1.58838,-36.74484 -0.85085,-1.82809 -3.41164,-4.2741 -5.82123,-5.56032 -1.95903,-1.04571 -2.15972,-1.08453 -5.71039,-1.10481 -3.54174,-0.0202 -3.75952,0.0186 -5.79667,1.0346 -2.45938,1.22653 -4.64266,3.28162 -5.85739,5.51347 -1.83355,3.36884 -1.78594,2.3834 -1.78594,36.96193 0,22.14534 0.10778,32.28333 0.35448,33.34439 1.23499,5.31171 5.49576,9.49803 10.52552,10.34161 1.90532,0.31955 5.70115,0.0206 6.78411,-0.53426 z M 402.76572,586.4 c -0.264,-0.264 -0.76095,-0.48 -1.10433,-0.48 -0.58248,0 -2.94139,-2.32796 -2.94139,-2.90279 0,-0.56398 0.65709,-0.62341 0.85678,-0.0775 0.30324,0.82901 1.42196,1.89604 2.26322,2.15865 0.396,0.12362 0.72,0.35906 0.72,0.5232 0,0.16414 0.792,0.29843 1.76,0.29843 1.70037,0 2.29808,0.36505 1.25383,0.76577 -0.90763,0.34829 -2.31754,0.20481 -2.80811,-0.28577 z M 406.4,585.58996 c 0,-0.18152 0.252,-0.4183 0.56,-0.52617 0.308,-0.10786 1.01345,-0.68914 1.56766,-1.29173 0.55421,-0.60258 1.09517,-0.954 1.20214,-0.78093 0.17793,0.28791 -1.11254,2.1257 -1.88465,2.68397 -0.48405,0.35 -1.44515,0.29338 -1.44515,-0.0851 z m 3.52,-5.10996 c 0,-1.43702 0.11812,-2.20477 0.32,-2.08 0.176,0.10878 0.32,1.04478 0.32,2.08 0,1.03523 -0.144,1.97123 -0.32,2.08 -0.20188,0.12478 -0.32,-0.64297 -0.32,-2.08 z m -11.84,0.0189 c 0,-0.89039 0.144,-1.61889 0.32,-1.61889 0.176,0 0.32,0.63951 0.32,1.42112 0,0.78161 -0.144,1.51011 -0.32,1.61888 -0.19722,0.1219 -0.32,-0.42334 -0.32,-1.42111 z m 0.96,-2.83041 c 0,-0.3351 0.26334,-0.8476 0.5852,-1.13888 0.66621,-0.60291 1.0148,-0.67491 1.0148,-0.2096 0,0.176 -0.216,0.32 -0.48,0.32 -0.264,0 -0.48,0.27951 -0.48,0.62112 0,0.34161 -0.144,0.71011 -0.32,0.81888 -0.176,0.10878 -0.32,-0.0764 -0.32,-0.41152 z m 10.0144,-0.28403 c -0.26221,-0.68331 -1.27732,-1.70445 -1.6944,-1.70445 -0.176,0 -0.32,-0.144 -0.32,-0.32 0,-0.176 0.13293,-0.32 0.29539,-0.32 0.46923,0 2.26461,1.92223 2.26461,2.42462 0,0.61798 -0.29428,0.57473 -0.5456,-0.0802 z M 400.8,575.36 c 0.10878,-0.176 0.33327,-0.32 0.49889,-0.32 0.16561,0 0.30111,0.144 0.30111,0.32 0,0.176 -0.2245,0.32 -0.49888,0.32 -0.27439,0 -0.40989,-0.144 -0.30112,-0.32 z m 1.92,-0.96 c 0.10878,-0.176 0.90078,-0.32 1.76,-0.32 0.85923,0 1.65123,0.144 1.76,0.32 0.12362,0.20002 -0.5363,0.32 -1.76,0.32 -1.22369,0 -1.88361,-0.11998 -1.76,-0.32 z m -0.59978,-7.78272 c -0.96154,-0.88074 -1.16022,-1.28097 -1.16022,-2.33722 0,-1.8302 1.55537,-3.32006 3.46602,-3.32006 3.00386,0 4.42163,3.58313 2.26937,5.73539 -1.39514,1.39514 -2.9966,1.3678 -4.57517,-0.0781 z m 3.85916,-0.59306 c 1.51212,-1.42056 0.45641,-4.10422 -1.61453,-4.10422 -1.20068,0 -2.44485,1.11869 -2.44485,2.19827 0,1.05826 1.49454,2.60173 2.51925,2.60173 0.43973,0 1.13278,-0.3131 1.54013,-0.69578 z m -2.26612,-8.22747 c -0.78398,-0.86628 -0.7283,-5.50294 0.0748,-6.22974 0.54952,-0.4973 0.62293,-0.49366 1.12,0.0556 0.40738,0.45015 0.53194,1.21953 0.53194,3.28562 0,2.30197 -0.089,2.75342 -0.60674,3.07674 -0.49459,0.30888 -0.70162,0.27409 -1.12,-0.18822 z m 0,-9.92 c -0.78398,-0.86628 -0.7283,-5.50294 0.0748,-6.22974 0.54952,-0.4973 0.62293,-0.49366 1.12,0.0556 0.40738,0.45015 0.53194,1.21953 0.53194,3.28562 0,2.30197 -0.089,2.75342 -0.60674,3.07674 -0.49459,0.30888 -0.70162,0.27409 -1.12,-0.18822 z m -0.11628,-9.9524 c -0.22953,-0.36753 -0.39698,-1.71064 -0.39698,-3.1841 0,-2.07983 0.10146,-2.60522 0.55174,-2.85721 0.35001,-0.19588 0.75951,-0.19757 1.12,-0.005 0.47799,0.25581 0.56826,0.74965 0.56826,3.10886 0,2.70631 -0.26846,3.57274 -1.10702,3.57274 -0.18647,0 -0.51767,-0.28604 -0.736,-0.63565 z m 0,-9.92 c -0.22953,-0.36753 -0.39698,-1.71064 -0.39698,-3.1841 0,-2.07983 0.10146,-2.60522 0.55174,-2.85721 0.35001,-0.19588 0.75951,-0.19757 1.12,-0.005 0.47799,0.25581 0.56826,0.74965 0.56826,3.10886 0,2.70631 -0.26846,3.57274 -1.10702,3.57274 -0.18647,0 -0.51767,-0.28604 -0.736,-0.63565 z m 0,-9.92 c -0.22953,-0.36753 -0.39698,-1.71064 -0.39698,-3.1841 0,-2.07983 0.10146,-2.60522 0.55174,-2.85721 0.35001,-0.19588 0.75951,-0.19757 1.12,-0.005 0.47799,0.25581 0.56826,0.74965 0.56826,3.10886 0,2.70631 -0.26846,3.57274 -1.10702,3.57274 -0.18647,0 -0.51767,-0.28604 -0.736,-0.63565 z m -148.31664,100.25022 0.0803,-149.18544 -1.04034,-0.18577 c -0.57215,-0.10217 -11.4803,-0.14473 -24.2403,-0.0946 l -23.2,0.0912 -0.0803,143.89719 -0.0804,143.8972 1.68035,0.48072 c 0.92419,0.26439 2.25635,0.57746 2.96035,0.6957 0.704,0.11824 2,0.39935 2.88,0.62469 0.88,0.22534 2.752,0.65583 4.16,0.95665 1.408,0.30081 3.352,0.73875 4.32,0.97319 0.968,0.23443 2.912,0.66502 4.32,0.95686 1.408,0.29184 3.29266,0.73473 4.18813,0.98421 0.89547,0.24948 1.92293,0.45359 2.28325,0.45359 0.36032,0 1.35566,0.2041 2.21187,0.45354 0.85622,0.24945 2.34875,0.62456 3.31675,0.8336 2.06153,0.44517 4.76978,1.04466 7.68,1.70002 1.144,0.25761 3.13298,0.68388 4.41996,0.94725 1.28698,0.26337 2.43305,0.57194 2.54683,0.68572 0.11378,0.11378 0.5008,0.1648 0.86004,0.11337 L 255.2,767.52 Z M 555.97728,767.3862 c 0.5405,-0.16159 2.13472,-0.53929 3.54272,-0.83932 1.408,-0.30003 3.424,-0.74409 4.48,-0.9868 1.056,-0.2427 2.568,-0.58025 3.36,-0.7501 0.792,-0.16985 2.376,-0.51446 3.52,-0.7658 1.144,-0.25134 2.872,-0.62708 3.84,-0.83496 0.968,-0.20789 2.552,-0.57014 3.52,-0.80499 1.63958,-0.39779 3.02283,-0.70733 8.56,-1.91554 1.188,-0.25922 2.88,-0.63703 3.76,-0.83957 2.02829,-0.46684 4.80896,-1.07346 7.70845,-1.68163 1.24765,-0.2617 2.79565,-0.6961 3.44,-0.96532 L 602.88,756.51266 V 612.98759 c 0,-141.57152 -0.008,-143.52958 -0.61896,-143.85633 -0.66924,-0.35816 -47.23329,-0.49066 -48.15486,-0.13702 -0.46057,0.17673 -0.50618,13.64258 -0.50618,149.44 V 767.68 h 0.69728 c 0.38351,0 1.13951,-0.13221 1.68,-0.2938 z M 254.74104,463.66874 c 0.60876,-0.3258 0.61896,-1.37992 0.61896,-63.9855 V 336.029 l -1.04,-0.1857 c -0.572,-0.10214 -11.48,-0.14467 -24.24,-0.0945 l -23.2,0.0912 -0.0821,63.68 c -0.0451,35.024 -0.0137,63.86 0.07,64.08 0.19881,0.52309 46.8989,0.59015 47.87315,0.0687 z m 291.73975,0.067 c 0.31931,-0.20274 0.38437,-13.22973 0.32,-64.0751 L 546.72,335.84 404.85963,335.75964 c -97.42342,-0.0552 -142.05446,0.0235 -142.48,0.25126 -0.60966,0.32628 -0.61955,1.34977 -0.61473,63.60036 0.003,34.79781 0.1107,63.42715 0.24,63.62076 0.12931,0.19361 0.4511,0.43424 0.7151,0.53474 0.75069,0.28576 283.31052,0.25486 283.76079,-0.031 z M 397.76,446.85019 c -3.06575,-1.1304 -4.84972,-2.18446 -5.90705,-3.49019 -3.73452,-4.61185 -4.06766,-10.19322 -0.87371,-14.63781 1.22165,-1.70002 9.54999,-12.5392 11.20521,-14.5834 0.77136,-0.95261 1.30722,-1.91106 1.21005,-2.16429 -0.14549,-0.37912 -1.86097,-0.45645 -10.34445,-0.46626 -6.89164,-0.008 -10.85036,-0.14353 -12.28045,-0.42053 -6.76149,-1.30963 -10.92003,-7.89513 -9.12327,-14.44771 0.62871,-2.29283 1.04525,-2.96378 4.74471,-7.64265 1.82531,-2.30854 4.92813,-6.28535 6.89515,-8.83735 9.24556,-11.9951 13.23466,-17.13989 13.75769,-17.74343 0.31294,-0.36111 1.45136,-1.81672 2.52982,-3.23468 3.73203,-4.90687 6.10905,-6.28247 10.85828,-6.28377 2.43803,-6.7e-4 3.20058,0.1312 4.68508,0.81023 2.27623,1.04117 4.42692,3.23344 5.66471,5.77422 0.86828,1.78232 0.9781,2.32887 0.97703,4.86272 -0.001,2.47092 -0.11935,3.09153 -0.88,4.61619 -0.76721,1.53781 -8.21544,11.55262 -10.23007,13.75525 -0.4008,0.4382 -0.72873,0.88417 -0.72873,0.99104 0,0.10687 -0.30432,0.54034 -0.67628,0.96327 -1.86039,2.11535 -2.30634,2.87433 -1.91764,3.26372 0.27919,0.27969 3.51485,0.42908 11.80924,0.54524 l 11.42468,0.16 1.85887,0.87094 c 1.07883,0.50546 2.56517,1.59437 3.54202,2.59492 2.28351,2.33892 2.84254,4.12797 2.68309,8.58664 -0.15076,4.21573 -0.47605,5.00718 -3.84506,9.35537 -3.86848,4.99282 -8.65251,11.18934 -13.02466,16.8702 -2.89616,3.76306 -5.35208,6.91393 -5.4576,7.00193 -0.10553,0.088 -1.67912,2.104 -3.49688,4.48 -3.86268,5.04892 -5.25347,6.42168 -7.67987,7.58029 -1.36944,0.65392 -2.37028,0.87263 -4.33991,0.9484 -1.408,0.0542 -2.776,0.0188 -3.04,-0.0785 z m 4.97639,-4.90447 c 1.31483,-0.58161 3.01188,-2.18761 4.47636,-4.23619 0.42051,-0.58824 0.89773,-1.22638 1.06047,-1.41808 0.16275,-0.19171 2.86785,-3.70151 6.01134,-7.79956 3.14349,-4.09805 6.14744,-8.00851 6.67544,-8.6899 5.00447,-6.45834 5.64795,-7.37548 5.48065,-7.81146 -0.15903,-0.41443 -1.38717,-0.46908 -8.89134,-0.39569 l -8.70681,0.0852 -4.44365,5.76 c -2.444,3.168 -5.04474,6.552 -5.77943,7.52 -0.73468,0.968 -1.41532,1.832 -1.51253,1.92 -0.55943,0.50643 -3.20457,4.19433 -3.78368,5.27526 -0.83611,1.56066 -0.93354,4.82049 -0.19085,6.38558 1.19544,2.5192 4.4496,4.43939 7.01405,4.1388 0.69652,-0.0816 1.86201,-0.4119 2.58998,-0.73392 z M 385.6759,405.98644 c 0.93287,-0.48733 2.17338,-1.73438 3.9241,-3.94479 1.408,-1.7777 3.52062,-4.44032 4.69471,-5.91692 1.92596,-2.42219 2.08242,-2.72556 1.6,-3.10223 -0.41417,-0.3234 -2.26591,-0.39553 -8.21471,-0.32 L 380,392.8 l -1.32561,0.86231 c -1.9957,1.29819 -3.63439,4.0034 -3.63439,5.99977 0,1.55665 0.99487,3.82718 2.19768,5.01563 2.41404,2.38521 5.47021,2.85921 8.43822,1.30873 z m 21.54735,0.80866 c 0.18879,-0.1293 2.26328,-2.7551 4.60999,-5.8351 2.34671,-3.08 4.62296,-5.9874 5.05832,-6.46089 0.46433,-0.505 0.7124,-1.06723 0.60005,-1.36 -0.16582,-0.43214 -1.16974,-0.49845 -7.48156,-0.49421 -4.00953,0.003 -7.44197,0.1107 -7.62765,0.24 -0.18568,0.12931 -1.83376,2.1791 -3.6624,4.5551 -1.82864,2.376 -3.41419,4.392 -3.52345,4.48 -0.10926,0.088 -0.94829,1.15758 -1.86451,2.37685 -1.22508,1.63028 -1.55819,2.28518 -1.25894,2.4751 0.50847,0.32272 14.68116,0.34438 15.15015,0.0231 z m 22.70978,-0.89512 c 2.12938,-1.00736 3.50676,-2.61823 4.00126,-4.67953 0.7828,-3.2631 -0.49946,-6.22365 -3.33076,-7.69022 -2.50767,-1.29893 -6.66657,-0.71631 -9.03775,1.26609 -0.37083,0.31003 -1.87645,2.14768 -3.34582,4.08368 -1.46937,1.936 -3.21797,4.15228 -3.88577,4.92506 -0.6678,0.77277 -1.21419,1.74477 -1.21419,2.16 V 406.72 h 7.53982 c 7.42729,0 7.56568,-0.0122 9.27321,-0.82002 z M 401.00867,387.28 c 0.44462,-0.484 1.51556,-1.79091 2.37987,-2.90425 0.8643,-1.11334 2.03782,-2.62534 2.60781,-3.36 0.56999,-0.73466 1.15183,-1.47975 1.29298,-1.65575 1.11234,-1.38703 5.88747,-7.57149 6.76276,-8.75871 0.60064,-0.81471 1.19459,-1.55329 1.31989,-1.64129 0.1253,-0.088 0.53386,-0.73387 0.90792,-1.43526 0.50794,-0.95244 0.6801,-1.84442 0.6801,-3.52366 0,-1.99587 -0.11681,-2.42769 -1.04,-3.84474 -1.91098,-2.93325 -5.72891,-4.1365 -8.72,-2.74816 -1.86182,0.86418 -2.82392,1.87383 -7.04376,7.39182 -2.08622,2.728 -3.88149,5.032 -3.98949,5.12 -0.10801,0.088 -2.55936,3.256 -5.44746,7.04 -2.88809,3.784 -5.43794,7.0708 -5.66632,7.30399 -0.51615,0.52704 -2.33297,3.15332 -2.33297,3.37241 0,0.33157 1.97046,0.42899 9.62013,0.47566 l 7.86013,0.0479 z m 201.36848,76.21715 c 0.45375,-0.45376 0.50285,-6.68643 0.50285,-63.82875 0,-62.28094 -0.0102,-63.33135 -0.61896,-63.65714 -0.66924,-0.35817 -47.23329,-0.49066 -48.15486,-0.13702 -0.45922,0.17622 -0.50618,6.11033 -0.50618,63.97333 0,50.72386 0.0819,63.81214 0.4,63.9405 0.22,0.0888 11.08172,0.17277 24.13715,0.18667 21.17442,0.0225 23.79143,-0.029 24.24,-0.47759 z m -41.28526,-23.93502 c -0.0936,-0.2439 -0.12555,-1.14515 -0.071,-2.00279 L 561.12,436 l 16.92378,-0.0829 c 12.55843,-0.0615 17.04015,0.0137 17.37493,0.29158 0.30676,0.25458 0.42078,0.89564 0.35623,2.00285 l -0.0949,1.62842 -17.20897,0.0828 c -14.4267,0.0694 -17.23649,0.0111 -17.37914,-0.36066 z m 3.46602,-8.44352 c -0.86859,-0.57672 -0.93035,-1.70716 -0.13271,-2.42901 0.77239,-0.699 1.42962,-0.66882 2.12313,0.0975 1.22543,1.35408 -0.47054,3.34067 -1.99042,2.3315 z m 5.36215,-0.23847 c -0.16726,-0.43992 -0.2177,-1.23192 -0.11208,-1.76 L 570,428.16 h 12.4255 12.4255 l 0.2038,1.08631 c 0.11418,0.60865 0.0453,1.38253 -0.15676,1.76 -0.35685,0.66677 -0.48539,0.67369 -12.51722,0.67369 h -12.15666 z m -7.78672,-7.41347 C 562.016,423.34934 561.92,422.56565 561.92,421.72513 v -1.5282 l 11.44,-0.10085 c 10.16284,-0.0896 11.54718,-0.16289 12.4,-0.6565 0.528,-0.3056 1.12555,-0.55652 1.32789,-0.55761 0.63393,-0.003 3.56978,-3.4697 3.79072,-4.47562 0.11585,-0.52746 0.34355,-1.04116 0.50601,-1.14156 0.16246,-0.10041 0.29538,-1.24556 0.29538,-2.54479 0,-1.29922 -0.13292,-2.44438 -0.29538,-2.54478 -0.16246,-0.10041 -0.38904,-0.60901 -0.50352,-1.13022 -0.24623,-1.1211 -2.55884,-3.66752 -4.06088,-4.47146 -4.90355,-2.62453 -11.07208,-0.29386 -13.02302,4.92051 -1.06345,2.84232 -0.85956,5.18587 0.70572,8.1117 0.67528,1.26224 0.41659,1.44238 -1.85741,1.29339 -1.48889,-0.0976 -1.52357,-0.12481 -2.16078,-1.69914 -0.48714,-1.20357 -0.65106,-2.35321 -0.66159,-4.64 -0.0129,-2.799 0.0681,-3.20489 1.02085,-5.12 3.5712,-7.17798 11.80394,-9.50776 18.45441,-5.22239 1.99056,1.28266 3.04851,2.44707 4.38519,4.82649 0.99666,1.77415 1.03144,1.96095 1.03388,5.55348 0.002,3.62531 -0.0253,3.7713 -1.11747,5.8819 -0.67103,1.29673 -1.7521,2.73279 -2.69685,3.58242 -3.55812,3.1999 -5.72702,3.61797 -18.76981,3.61805 -5.38267,3e-5 -9.88267,-0.096 -10,-0.21328 z m 0.0265,-30.37345 c -0.13193,-0.13194 -0.23988,-0.85548 -0.23988,-1.60787 v -1.36799 l 11.28,-0.0987 11.28,-0.0987 1.85197,-0.92313 c 2.02566,-1.00971 4.25131,-3.3259 4.56403,-4.74971 0.10629,-0.4839 0.32616,-0.96197 0.48862,-1.06237 0.3892,-0.24054 0.38176,-4.47585 -0.009,-5.18913 -0.16748,-0.30561 -0.54505,-1.09811 -0.83905,-1.76111 -1.17396,-2.64736 -5.07753,-5.03455 -8.23258,-5.03455 -2.72735,0 -6.57326,2.26642 -7.83286,4.61595 -1.6714,3.11764 -1.78847,5.63333 -0.40423,8.68619 1.07392,2.36849 1.00788,2.47616 -1.42128,2.317 -1.48889,-0.0976 -1.52357,-0.12481 -2.16078,-1.69914 -0.48907,-1.20834 -0.64978,-2.34415 -0.65649,-4.64 -0.008,-2.76857 0.0822,-3.23045 1.01186,-5.17307 0.71545,-1.49504 1.62648,-2.69968 3.04583,-4.02741 2.71635,-2.54101 4.21361,-3.0871 8.51407,-3.1053 3.19243,-0.0135 3.46748,0.0397 5.515,1.06725 1.32218,0.66352 2.68252,1.67198 3.52,2.60948 1.83139,2.05009 2.16465,2.47695 2.16698,2.77555 0.001,0.13942 0.24846,0.6855 0.54973,1.2135 0.42754,0.7493 0.55002,1.7677 0.55803,4.64 0.01,3.41504 -0.0559,3.81488 -0.9087,5.55325 -1.48709,3.03131 -3.21301,4.67092 -6.76104,6.4229 -1.18838,0.58681 -2.11605,0.64082 -12.96012,0.7545 -6.42406,0.0674 -11.78806,0.0145 -11.92,-0.11743 z m 2.18298,-30.71607 c -0.27657,-0.27658 -0.50286,-0.84751 -0.50286,-1.26875 0,-1.57958 2.67643,-1.87091 3.06234,-0.33333 0.42662,1.6998 -1.34981,2.81174 -2.55948,1.60208 z m 5.47414,0.29318 c -0.36092,-0.36092 -0.24334,-2.19599 0.167,-2.60633 0.28487,-0.28487 3.44952,-0.384 12.25884,-0.384 13.16869,0 13.08748,-0.0122 12.90235,1.93413 L 595.04,362.72 l -12.503,0.0837 c -6.87665,0.046 -12.60065,-0.014 -12.72,-0.13333 z M 254.976,330.176 c 0.5743,-0.5743 0.55834,-298.449986 -0.016,-298.667741 -0.22,-0.08341 -1.336,0.0521 -2.48,0.301139 -1.144,0.249036 -2.872,0.620774 -3.84,0.826083 -0.968,0.20531 -2.552,0.563371 -3.52,0.795692 -2.41043,0.578507 -6.00735,1.368345 -7.36,1.616162 -0.616,0.112857 -1.552,0.331968 -2.08,0.486914 -0.528,0.154946 -2.112,0.51878 -3.52,0.808521 -1.408,0.289741 -3.712,0.792123 -5.12,1.116404 -2.80013,0.644909 -5.34789,1.20801 -9.28,2.051047 -1.408,0.301872 -3.352,0.739 -4.32,0.971394 -0.968,0.232394 -2.552,0.599088 -3.52,0.814875 -0.968,0.215787 -2.084,0.51279 -2.48,0.660005 l -0.72,0.267665 v 143.95459 c 0,79.17502 0.096,144.05059 0.21333,144.16792 0.11734,0.11733 10.88854,0.21333 23.936,0.21333 18.0243,0 23.81491,-0.0922 24.10667,-0.384 z M 546.72,180.32 V 30.24 L 404.64,30.15822 c -133.29943,-0.07673 -142.10472,-0.04823 -142.48,0.461161 -0.52657,0.714742 -0.59473,298.338839 -0.0686,299.322019 0.3271,0.61118 2.19858,0.61826 142.48,0.53896 L 546.72,330.4 Z M 399.2,245.08832 c -2.60211,-0.27094 -5.18361,-0.85402 -8.64,-1.9515 -2.04964,-0.6508 -8.53536,-3.73162 -9.6,-4.56015 -0.352,-0.27393 -1.576,-1.19846 -2.72,-2.05449 -2.47634,-1.85301 -6.5038,-5.91022 -8.30085,-8.36218 -0.70945,-0.968 -1.51491,-2.048 -1.7899,-2.4 -0.77653,-0.99398 -3.92107,-7.51967 -4.47739,-9.29168 -3.07334,-9.78935 -3.08319,-18.34051 -0.0323,-28.02939 0.2565,-0.8146 0.60082,-1.7506 0.76514,-2.08 0.16433,-0.32941 0.85034,-1.75093 1.52449,-3.15893 0.67414,-1.408 1.95152,-3.64 2.83862,-4.96 2.11412,-3.14581 8.33901,-9.35718 11.4817,-11.45677 1.36924,-0.91478 2.5509,-1.66323 2.62591,-1.66323 0.075,0 0.82673,-0.39823 1.67047,-0.88497 1.36134,-0.78531 2.65499,-1.34439 6.01408,-2.59908 3.32366,-1.24146 9.55991,-2.27058 13.76,-2.27071 12.67903,-3.7e-4 25.17022,5.84369 33.07476,15.47418 0.99288,1.20968 2.02124,2.53138 2.28524,2.9371 1.12316,1.72611 3.11587,5.19877 3.66301,6.38348 0.32514,0.704 0.7129,1.52833 0.8617,1.83185 0.36986,0.75446 1.36786,3.84332 1.9929,6.16815 0.28391,1.056 0.73315,3.78986 0.9983,6.07524 0.6889,5.93766 0.0426,11.44009 -2.13594,18.18601 -0.3306,1.02369 -0.721,2.10369 -0.86756,2.4 -0.14657,0.29631 -0.73841,1.51466 -1.31521,2.70744 -3.07368,6.3561 -8.53262,12.51553 -14.8772,16.78621 -2.584,1.73936 -8.21836,4.5651 -9.10251,4.5651 -0.22042,0 -0.85453,0.20526 -1.40913,0.45612 -3.53966,1.60113 -11.97628,2.40943 -18.28836,1.7522 z m 11.04,-3.97337 c 3.06917,-0.46922 5.75774,-1.11644 7.52,-1.81029 8.37803,-3.29866 15.60705,-9.20134 19.84654,-16.2052 0.1796,-0.2967 0.7196,-1.1486 1.2,-1.8931 0.4804,-0.7445 0.87346,-1.4364 0.87346,-1.53756 0,-0.10115 0.29587,-0.86001 0.65748,-1.68636 1.13846,-2.60158 1.19339,-2.74422 1.74955,-4.54244 0.57738,-1.86684 0.86972,-3.48562 1.48286,-8.21101 0.37851,-2.91713 0.29151,-4.27696 -0.66211,-10.34899 -0.26556,-1.6909 -1.06517,-4.57915 -1.63896,-5.92 -0.15063,-0.352 -0.57567,-1.36 -0.94453,-2.24 -1.07157,-2.55648 -1.27963,-2.91137 -4.5493,-7.76 -1.6318,-2.41981 -6.19154,-6.72976 -9.47502,-8.95596 -6.84621,-4.64173 -13.88875,-6.82865 -21.99024,-6.82865 -10.47172,0 -20.45148,4.22316 -27.84213,11.78203 -2.66635,2.72703 -6.26107,7.71748 -7.32031,10.16258 -0.62197,1.43573 -1.22576,2.81012 -1.75725,4 -1.16313,2.60398 -2.24974,9.01815 -2.24974,13.28 0,5.17137 1.47206,12.35674 3.16402,15.44406 0.16758,0.30577 0.55078,1.13194 0.85158,1.83594 2.58079,6.04029 11.50627,14.97682 17.8841,17.90625 0.704,0.32336 1.53018,0.71081 1.83594,0.86101 5.34948,2.6278 14.30799,3.74643 21.36406,2.66769 z m -27.91195,-25.93377 c -0.47958,-0.26025 -1.01958,-0.74902 -1.2,-1.08615 -0.37944,-0.70898 -0.45883,-26.85708 -0.0831,-27.38606 0.12931,-0.18207 0.65052,-0.65007 1.15826,-1.04 l 0.92315,-0.70897 h 21.27908 c 20.73794,0 21.30547,0.0163 22.31716,0.64157 0.68249,0.42181 1.10648,0.98358 1.23777,1.64 0.33145,1.65728 0.23002,25.43696 -0.11234,26.33745 -0.17161,0.45138 -0.78361,1.10821 -1.36,1.45964 -1.01999,0.62188 -1.61203,0.63864 -22.16798,0.62733 -18.01633,-0.01 -21.24813,-0.0811 -21.99195,-0.48481 z m 41.62059,-4.15624 c 0.25774,-0.56567 0.37136,-4.03099 0.37136,-11.32576 0,-9.28919 -0.0588,-10.53328 -0.50617,-10.70494 -0.27839,-0.10683 -9.10559,-0.19424 -19.616,-0.19424 -14.43653,0 -19.20373,0.0939 -19.49383,0.384 -0.53516,0.53516 -0.5468,20.66857 -0.0126,21.84094 l 0.37136,0.81506 H 404.32 423.57727 Z M 602.67831,329.84 c 0.10613,-0.396 0.19492,-65.17837 0.19732,-143.96082 0.003,-114.207002 -0.0767,-143.307926 -0.39563,-143.571913 -0.22,-0.182103 -1.408,-0.573886 -2.64,-0.870627 -1.232,-0.296742 -3.032,-0.730406 -4,-0.9637 -0.968,-0.233293 -2.552,-0.594261 -3.52,-0.80215 -0.968,-0.20789 -2.696,-0.583624 -3.84,-0.834965 -1.144,-0.25134 -2.728,-0.595951 -3.52,-0.765801 -0.792,-0.16985 -2.304,-0.507396 -3.36,-0.750102 -1.056,-0.242705 -3.072,-0.689222 -4.48,-0.992259 -1.408,-0.303036 -3.26053,-0.75273 -4.11674,-0.999319 -0.85621,-0.246589 -1.79221,-0.447135 -2.08,-0.445657 -0.56167,0.0029 -4.47391,-0.867629 -10.12326,-2.252529 -0.88,-0.215726 -2.34898,-0.518661 -3.26441,-0.673189 -0.91543,-0.154528 -1.99543,-0.403386 -2.4,-0.553018 C 554.73102,31.254319 554.22,31.195216 554,31.272613 c -0.31922,0.112305 -0.4,30.301105 -0.4,149.500717 0,82.148 0.096,149.45601 0.21334,149.57334 0.11733,0.11733 11.11654,0.21333 24.44267,0.21333 h 24.22935 z"
       id="path1" />
  </g>
</svg>
