<?xml version="1.0" encoding="UTF-8" standalone="no"?>
<!-- Created with Inkscape (http://www.inkscape.org/) -->

<svg
   version="1.1"
   id="svg1"
   width="421.8233"
   height="651.94366"
   viewBox="0 0 421.8233 651.94366"
   xmlns="http://www.w3.org/2000/svg"
   xmlns:svg="http://www.w3.org/2000/svg">
  <defs
     id="defs1" />
  <g
     id="g1"
     transform="translate(-121.41436,-6.1647949)">
    <path
       style="fill:#000000"
       d="m 322.72,657.92367 c -1.936,-0.14802 -5.176,-0.58101 -7.2,-0.96221 -2.024,-0.38119 -4.36716,-0.81728 -5.20702,-0.96909 -0.83986,-0.15181 -2.06386,-0.44642 -2.72,-0.65469 -0.65614,-0.20827 -1.76898,-0.56293 -2.47298,-0.78813 -0.704,-0.2252 -2.144,-0.6606 -3.2,-0.96757 -1.056,-0.30696 -2.64,-0.83842 -3.52,-1.18102 -0.88,-0.34261 -2.176,-0.8431 -2.88,-1.11222 -0.704,-0.26912 -1.712,-0.67391 -2.24,-0.89954 -0.877,-0.37477 -1.68934,-0.68987 -4.96,-1.92395 -0.616,-0.23242 -2.128,-0.80659 -3.36,-1.27593 -1.232,-0.46933 -3.176,-1.20853 -4.32,-1.64265 -2.96954,-1.12689 -4.50129,-1.72796 -5.6,-2.19747 -0.528,-0.22563 -1.608,-0.65277 -2.4,-0.9492 -0.792,-0.29643 -1.872,-0.72596 -2.4,-0.95451 -0.528,-0.22854 -1.752,-0.72699 -2.72,-1.10766 -0.968,-0.38066 -2.048,-0.82443 -2.4,-0.98615 -0.352,-0.16172 -1.432,-0.58997 -2.4,-0.95168 -0.968,-0.36171 -2.048,-0.78996 -2.4,-0.95168 -0.352,-0.16172 -1.432,-0.60461 -2.4,-0.9842 -0.968,-0.37959 -2.048,-0.81159 -2.4,-0.96 -0.352,-0.14841 -1.432,-0.57646 -2.4,-0.95124 -0.968,-0.37477 -2.192,-0.87075 -2.72,-1.10217 -0.528,-0.23141 -1.752,-0.73221 -2.72,-1.11288 -0.968,-0.38066 -2.048,-0.81117 -2.4,-0.95667 -0.352,-0.1455 -1.288,-0.52326 -2.08,-0.83946 -1.82013,-0.72668 -4.03999,-1.65551 -5.28,-2.20923 -1.20426,-0.53776 -3.04628,-1.32405 -4.4,-1.8782 -0.572,-0.23415 -1.544,-0.64173 -2.16,-0.90573 -0.616,-0.264 -1.624,-0.696 -2.24,-0.96 -0.616,-0.264 -1.624,-0.70404 -2.24,-0.97786 -0.616,-0.27383 -2.416,-1.03679 -4,-1.69548 -4.08183,-1.69736 -6.09012,-2.55126 -8.32,-3.53758 -0.704,-0.31139 -1.784,-0.77713 -2.4,-1.03498 -0.616,-0.25784 -1.552,-0.65668 -2.08,-0.8863 -0.528,-0.22962 -1.68,-0.72757 -2.56,-1.10654 -1.45252,-0.62554 -2.39863,-1.05125 -6.4,-2.87975 -1.18315,-0.54067 -2.89408,-1.30337 -6.56,-2.92434 -1.43129,-0.63288 -2.39165,-1.06697 -5.76,-2.60357 -0.968,-0.44159 -2.48,-1.11755 -3.36,-1.50214 -0.88,-0.38459 -2.392,-1.05887 -3.36,-1.4984 -2.38433,-1.08265 -4.3556,-1.97192 -6.08,-2.74279 -0.792,-0.35405 -2.592,-1.18609 -4,-1.84898 -1.408,-0.66289 -4,-1.88082 -5.76,-2.70653 -1.76,-0.8257 -4.28,-2.00812 -5.6,-2.6276 -5.32585,-2.49944 -8.36908,-4.0304 -8.73463,-4.39412 -0.21196,-0.21089 -1.07392,-0.78636 -1.91548,-1.27884 -2.23349,-1.30701 -7.52874,-6.17351 -9.82976,-9.03385 -2.24281,-2.78797 -3.02704,-3.97137 -4.68682,-7.07239 -0.63483,-1.18608 -1.27194,-2.30551 -1.41581,-2.48764 -0.40466,-0.51229 -2.17251,-5.79476 -2.83421,-8.46886 -1.30799,-5.28595 -1.69693,-11.70495 -1.04701,-17.28 0.55263,-4.7405 1.03419,-13.62505 1.34422,-24.8 0.29283,-10.55516 0.71204,-22.01922 1.30472,-35.68 0.18708,-4.312 0.45988,-11.368 0.60622,-15.68 0.14635,-4.312 0.42417,-10.648 0.61738,-14.08 1.07445,-19.08492 1.53707,-32.99164 1.83006,-55.01297 0.21961,-16.50596 -0.12643,-35.7013 -0.86003,-47.70703 -0.17745,-2.904 -0.4519,-8.16 -0.60989,-11.68 -0.33782,-7.52635 -0.84707,-15.24049 -1.33087,-20.16 -0.19039,-1.936 -0.46001,-5.248 -0.59916,-7.36 -0.13915,-2.112 -0.40737,-5.28 -0.59604,-7.04 -0.3334,-3.11009 -0.7257,-6.8921 -1.32772,-12.8 -0.16142,-1.584 -0.4379,-3.744 -0.61442,-4.8 -0.38345,-2.29393 -1.29537,-9.85074 -2.23973,-18.56 -0.19084,-1.76 -0.49277,-4.208 -0.67097,-5.44 -0.17819,-1.232 -0.45688,-3.68 -0.61931,-5.44 -0.16244,-1.76 -0.45354,-4.424 -0.6469,-5.92 -0.9445,-7.30753 -1.35074,-10.32921 -1.76384,-13.12 -0.67407,-4.55375 -1.12298,-8.91393 -1.44964,-14.08 -0.16137,-2.552 -0.43587,-5.504 -0.61,-6.56 -0.45824,-2.77887 -0.71223,-18.90788 -0.36283,-23.04 0.78463,-9.27915 2.30568,-20.77135 3.2824,-24.8 0.19202,-0.792 0.45305,-2.088 0.58007,-2.88 0.12702,-0.792 0.40934,-2.16 0.62738,-3.04 0.21804,-0.88 0.68975,-2.824 1.04823,-4.32 0.63573,-2.65296 0.88044,-3.56487 2.01804,-7.52 0.74802,-2.6007 4.26108,-13.20572 4.77019,-14.4 0.22508,-0.528 0.67027,-1.608 0.98931,-2.4 0.31904,-0.792 0.84259,-2.0441 1.16346,-2.78244 0.32086,-0.73835 0.58339,-1.44445 0.58339,-1.56913 0,-0.12467 0.34377,-0.96057 0.76393,-1.85755 0.42016,-0.89699 1.22726,-2.63888 1.79356,-3.87088 1.59585,-3.47182 3.40786,-7.14278 4.73864,-9.6 2.77547,-5.12477 3.7227,-6.80176 4.69949,-8.32 0.56616,-0.88 1.81706,-2.824 2.77977,-4.32 0.96271,-1.496 2.46008,-3.844021 3.32749,-5.217825 1.37297,-2.174495 6.19078,-8.764786 7.76531,-10.622175 0.2984,-0.352 0.97212,-1.213159 1.49717,-1.913687 3.3285,-4.440914 8.63538,-10.290828 15.97496,-17.609608 6.47654,-6.458183 9.23448,-8.928765 15.70187,-14.065854 0.8788,-0.698032 1.66981,-1.358041 1.75781,-1.466685 0.24801,-0.306193 5.3315,-4.073689 8.61417,-6.384166 1.62537,-1.144 3.12411,-2.224084 3.33052,-2.400186 0.66409,-0.566553 4.76539,-3.20895 7.9956,-5.151418 1.72715,-1.038618 3.52715,-2.138258 4,-2.443645 0.47284,-0.305387 1.14771,-0.705069 1.49971,-0.888183 0.352,-0.183114 1.648,-0.882353 2.88,-1.553864 3.0814,-1.679542 8.97784,-4.799122 10.72,-5.671543 1.3991,-0.700623 1.91607,-0.932426 5.28,-2.367455 0.88,-0.375402 2.032,-0.882233 2.56,-1.12629 3.65138,-1.687773 5.33553,-2.397416 5.68965,-2.397416 0.22437,0 0.69199,-0.195046 1.03915,-0.433435 0.34716,-0.23839 0.9912,-0.512009 1.4312,-0.608043 0.44,-0.09604 1.592,-0.488404 2.56,-0.871932 0.968,-0.383529 2.264,-0.844881 2.88,-1.025227 0.616,-0.180346 1.264,-0.43024 1.44,-0.55532 0.32313,-0.229645 6.51013,-2.214762 9.76,-3.131524 0.968,-0.273066 2.34081,-0.694041 3.0507,-0.935501 0.70988,-0.24146 1.533,-0.439018 1.82914,-0.439018 0.29615,0 1.01133,-0.200143 1.5893,-0.444762 0.57797,-0.244618 2.20286,-0.687512 3.61086,-0.984208 1.408,-0.296696 3.352,-0.743626 4.32,-0.993177 2.5753,-0.663915 7.6226,-1.628467 12.32,-2.3543822 1.232,-0.1903879 3.536,-0.5540328 5.12,-0.8080997 4.60047,-0.7378961 8.24063,-1.1490591 13.01536,-1.4701099 2.45091,-0.1647983 4.73339,-0.4479806 5.07218,-0.629294 0.82836,-0.4433289 26.29685,-0.1963529 30.55246,0.2962769 1.76,0.2037377 5.144,0.5839764 7.52,0.8449749 5.33311,0.5858308 8.40875,1.0052655 11.52,1.5710178 1.32,0.2400302 3.696,0.6661015 5.28,0.9468252 5.37917,0.953321 8.07928,1.542745 11.84,2.584625 0.88,0.243798 2.536,0.675939 3.68,0.960313 4.30106,1.069153 12.05891,3.358366 13.6,4.013136 0.352,0.149555 1.3161,0.567781 2.14244,0.929391 0.82635,0.36161 1.76955,0.657473 2.096,0.657473 0.32646,0 0.73036,0.130618 0.89756,0.290262 0.1672,0.159644 0.808,0.436229 1.424,0.614633 0.616,0.178404 1.912,0.630754 2.88,1.005223 2.86277,1.107458 4.27016,1.630249 5.13041,1.90575 0.44572,0.142747 1.59772,0.625242 2.56,1.072211 0.96227,0.44697 2.46959,1.128465 3.34959,1.514434 2.21972,0.973574 10.15776,4.90707 12.48,6.184154 1.056,0.580732 3.04856,1.668245 4.42791,2.416696 1.37935,0.748451 2.96335,1.637087 3.52,1.974747 0.55665,0.33766 1.30009,0.759868 1.65209,0.93824 0.352,0.178373 1.72,1.037467 3.04,1.9091 1.32,0.871632 3.048,1.972808 3.84,2.447057 3.2687,1.957299 6.24341,4.037691 12.16,8.504218 3.432,2.590872 6.672,5.088018 7.2,5.549214 0.528,0.461197 1.32,1.152974 1.76,1.537282 5.91433,5.16575 9.05262,8.10628 13.77592,12.907825 3.08876,3.139925 6.3373,6.572954 7.21899,7.628954 0.88169,1.056 2.81852,3.368707 4.30408,5.139349 3.31287,3.948627 3.70476,4.451509 5.96988,7.660651 0.99381,1.408 2.76267,3.856 3.93079,5.44 1.16811,1.584 2.76206,3.934305 3.54209,5.2229 0.78004,1.28859 1.66332,2.72859 1.96285,3.2 0.29953,0.4714 0.73153,1.1765 0.96,1.56689 0.22847,0.39038 1.27496,2.11838 2.32554,3.84 1.05058,1.72161 2.4735,4.21021 3.16204,5.53021 2.99886,5.74905 6.29263,12.45573 6.91494,14.08 0.37087,0.968 0.87033,2.192 1.10991,2.72 0.61809,1.36222 1.01154,2.31017 1.79301,4.32 0.37638,0.968 0.8881,2.23289 1.13714,2.81086 0.24905,0.57797 0.45282,1.25708 0.45282,1.50914 0,0.25206 0.20146,0.93117 0.4477,1.50914 0.98724,2.31729 1.93561,5.23631 3.25247,10.01086 0.29125,1.056 0.72986,2.53703 0.97469,3.29118 0.24483,0.75415 0.44514,1.6055 0.44514,1.89188 0,0.28638 0.20654,1.25335 0.45898,2.14881 0.79308,2.8133 1.39738,5.37502 1.93153,8.18813 0.28407,1.496 0.72001,3.728 0.96877,4.96 2.02145,10.01131 3.0277,27.60579 2.42493,42.4 -0.38855,9.53643 -1.30688,19.4493 -2.54945,27.52 -0.89604,5.81992 -2.94596,22.19235 -3.38556,27.04 -0.0958,1.056 -0.31768,2.928 -0.49316,4.16 -0.17548,1.232 -0.47249,3.608 -0.66003,5.28 -0.18753,1.672 -0.54853,4.768 -0.80222,6.88 -0.25369,2.112 -0.66516,5.712 -0.9144,8 -0.24923,2.288 -0.59904,5.384 -0.77735,6.88 -0.63482,5.32577 -1.03237,9.49994 -1.31054,13.76 -0.35285,5.40386 -0.85988,11.55181 -1.46471,17.76 -0.25719,2.64 -0.46666,6.096 -0.46548,7.68 10e-4,1.584 -0.21364,6.048 -0.47737,9.92 -1.09023,16.00638 -1.17099,56.263 -0.14701,73.28 0.19064,3.168 0.46985,10.368 0.62048,16 0.15063,5.632 0.4281,13.696 0.6166,17.92 0.55607,12.46076 1.00265,24.02887 1.30327,33.76 0.15496,5.016 0.4379,12.288 0.62876,16.16 0.34817,7.06346 0.69395,15.09615 1.32928,30.88 0.18773,4.664 0.26354,11.36 0.16846,14.88 -0.1749,6.47552 -0.21385,6.73493 -1.92968,12.85196 -0.73054,2.60444 -3.21139,7.56983 -5.38249,10.77299 -2.68099,3.95543 -7.60495,8.81168 -11.61161,11.45192 -3.26857,2.15387 -11.19036,6.16599 -21.28,10.77763 -1.144,0.52288 -3.088,1.41168 -4.32,1.97512 -1.232,0.56343 -2.888,1.31606 -3.68,1.67251 -0.792,0.35646 -2.304,1.05321 -3.36,1.54835 -1.056,0.49514 -2.784,1.28781 -3.84,1.76148 -2.42657,1.08845 -4.94667,2.22502 -7.2,3.2472 -1.70871,0.77514 -3.63097,1.62477 -5.6,2.47519 -0.528,0.22804 -1.608,0.71397 -2.4,1.07985 -0.792,0.36588 -2.088,0.94479 -2.88,1.28648 -1.59031,0.6861 -4.74936,2.09485 -6.24,2.78267 -3.60408,1.66302 -5.32792,2.39665 -5.63148,2.39665 -0.19238,0 -0.73199,0.21007 -1.19915,0.46682 -0.46715,0.25675 -1.56937,0.76861 -2.44937,1.13747 -0.88,0.36886 -1.888,0.79893 -2.24,0.95571 -0.352,0.15678 -1.36,0.59132 -2.24,0.96565 -2.3208,0.98722 -3.70117,1.58065 -4.88,2.09796 -0.572,0.25102 -1.508,0.64797 -2.08,0.88212 -1.28326,0.52531 -2.87899,1.20835 -4.56,1.95189 -1.78351,0.78888 -2.96703,1.28848 -4.64,1.95871 -0.792,0.31729 -2.016,0.81394 -2.72,1.10367 -0.704,0.28973 -1.928,0.78638 -2.72,1.10367 -1.86387,0.74671 -3.09382,1.25542 -4.48,1.85296 -0.616,0.26555 -1.768,0.7302 -2.56,1.03257 -0.792,0.30237 -1.872,0.73437 -2.4,0.96 -0.528,0.22563 -1.608,0.66984 -2.4,0.98713 -0.792,0.31729 -2.016,0.81394 -2.72,1.10367 -0.704,0.28973 -1.928,0.78781 -2.72,1.10685 -0.792,0.31904 -1.89376,0.77652 -2.44836,1.01661 -0.5546,0.2401 -1.2098,0.43654 -1.456,0.43654 -0.2462,0 -0.58444,0.11522 -0.75164,0.25605 -0.1672,0.14083 -1.168,0.58458 -2.224,0.98612 -1.056,0.40154 -2.424,0.92256 -3.04,1.15783 -0.616,0.23527 -1.984,0.75629 -3.04,1.15783 -1.056,0.40154 -2.0568,0.84529 -2.224,0.98612 -0.1672,0.14083 -0.5272,0.26094 -0.8,0.26691 -0.2728,0.006 -1.072,0.28908 -1.776,0.62914 -0.704,0.34006 -1.5032,0.62317 -1.776,0.62914 -0.2728,0.006 -0.6328,0.12608 -0.8,0.26691 -0.1672,0.14083 -1.168,0.58458 -2.224,0.98612 -1.056,0.40154 -2.496,0.95055 -3.2,1.22003 -0.704,0.26947 -1.856,0.70425 -2.56,0.96618 -0.704,0.26192 -1.71258,0.65847 -2.24128,0.88121 -0.52871,0.22274 -1.42706,0.50728 -1.99633,0.63231 -0.56928,0.12504 -1.1172,0.36026 -1.21761,0.52272 -0.1004,0.16246 -0.40429,0.29538 -0.6753,0.29538 -0.27102,0 -0.94652,0.20745 -1.50112,0.461 -0.90954,0.41582 -6.09071,2.11051 -9.80836,3.20819 -0.792,0.23385 -2.52,0.64147 -3.84,0.90583 -7.64796,1.53166 -8.03878,1.56991 -17.1041,1.67436 -4.93675,0.0569 -10.5599,-0.0177 -12.4959,-0.16571 z m 21.12,-10.54823 c 4.33367,-0.70331 7.6947,-1.35633 9.12,-1.77195 4.89796,-1.42823 9.65175,-3.04684 12.36836,-4.21127 0.5546,-0.23772 1.2098,-0.43222 1.456,-0.43222 0.2462,0 0.58444,-0.13062 0.75164,-0.29026 0.1672,-0.15965 0.808,-0.43884 1.424,-0.62044 1.11564,-0.32888 2.09573,-0.68546 5.44,-1.97918 0.968,-0.37447 2.2228,-0.81877 2.78844,-0.98734 0.56564,-0.16856 1.11414,-0.44515 1.21888,-0.61463 0.10475,-0.16948 0.43395,-0.30904 0.73157,-0.31012 0.29761,-0.001 0.95357,-0.21709 1.45769,-0.48 0.50412,-0.26292 1.08012,-0.47892 1.28,-0.48 0.19988,-10e-4 0.72342,-0.18667 1.16342,-0.4124 0.44,-0.22574 1.52,-0.67663 2.4,-1.00199 3.00951,-1.1127 7.35882,-2.78532 9.6,-3.69189 1.232,-0.49834 3.032,-1.21657 4,-1.59606 0.968,-0.37949 2.048,-0.82229 2.4,-0.98401 0.352,-0.16172 1.432,-0.58997 2.4,-0.95168 0.968,-0.36171 2.048,-0.78982 2.4,-0.95135 0.7953,-0.36497 3.05807,-1.31037 4.96,-2.07232 0.792,-0.31729 1.872,-0.7629 2.4,-0.99024 0.528,-0.22734 2.112,-0.86908 3.52,-1.42609 1.408,-0.55701 2.992,-1.20148 3.52,-1.43216 0.528,-0.23068 2.256,-0.94777 3.84,-1.59353 1.584,-0.64577 3.312,-1.37359 3.84,-1.61738 3.70017,-1.70846 5.33648,-2.39693 5.69685,-2.39693 0.22833,0 0.55195,-0.13064 0.71915,-0.29032 0.1672,-0.15968 1.24,-0.67012 2.384,-1.13432 1.144,-0.4642 2.368,-0.9737 2.72,-1.13221 0.352,-0.15851 1.36,-0.59193 2.24,-0.96315 0.88,-0.37122 1.888,-0.80322 2.24,-0.96 0.352,-0.15678 1.36,-0.58966 2.24,-0.96195 0.88,-0.37229 2.032,-0.87522 2.56,-1.11761 0.528,-0.24239 1.608,-0.7247 2.4,-1.0718 3.34063,-1.46403 5.33841,-2.34938 6.24,-2.76534 1.49302,-0.68883 4.65128,-2.0972 6.24,-2.78262 0.792,-0.34169 2.016,-0.88864 2.72,-1.21546 0.704,-0.32681 1.928,-0.88073 2.72,-1.23093 3.97534,-1.75779 5.38829,-2.3897 6.56,-2.93386 5.11986,-2.3777 10.81959,-5.00326 12.64,-5.82256 2.50117,-1.12569 8.19515,-3.82807 17.28,-8.20112 2.41408,-1.16203 6.04013,-3.84074 8.51353,-6.28928 3.13838,-3.10684 5.61677,-6.76623 7.26537,-10.72747 0.80898,-1.9438 1.74753,-5.21488 2.01995,-7.04 0.56463,-3.78291 0.12386,-24.13007 -0.8457,-39.04 -0.18884,-2.904 -0.47682,-9.384 -0.63996,-14.4 -0.48347,-14.86572 -0.93007,-26.58553 -1.29867,-34.08 -0.19044,-3.872 -0.46898,-11.36 -0.61897,-16.64 -0.36766,-12.94178 -0.87189,-25.89771 -1.45089,-37.28 -0.64113,-12.60364 -0.63375,-40.3733 0.0148,-55.68 0.5862,-13.83503 1.3549,-27.64088 1.79955,-32.32 0.17562,-1.848 0.44922,-5.376 0.608,-7.84 0.15878,-2.464 0.43709,-5.92 0.61847,-7.68 0.18137,-1.76 0.47618,-4.856 0.65513,-6.88 0.30052,-3.39907 0.70467,-7.25575 1.57606,-15.04 0.18717,-1.672 0.50152,-4.12 0.69855,-5.44 0.19703,-1.32 0.47341,-3.624 0.61418,-5.12 0.14077,-1.496 0.41405,-4.016 0.6073,-5.6 0.19324,-1.584 0.57271,-4.824 0.84325,-7.2 1.07074,-9.40352 1.91886,-16.20505 2.73333,-21.92 1.01159,-7.09814 1.24714,-8.89138 1.55526,-11.84 0.18392,-1.76 0.48584,-4.28 0.67095,-5.6 0.55195,-3.93599 1.07033,-16.31732 0.99142,-23.68 -0.0891,-8.30885 -0.56851,-18.12993 -0.992,-20.32 -0.17017,-0.88 -0.46343,-2.752 -0.65169,-4.16 -0.18826,-1.408 -0.54028,-3.64 -0.78226,-4.96 -0.24199,-1.32 -0.60929,-3.336 -0.81624,-4.48 -0.35267,-1.94956 -0.54624,-2.7901 -1.76872,-7.68 -1.62154,-6.48617 -2.34591,-8.8814 -2.90325,-9.6 -0.20476,-0.264 -0.45107,-1.29038 -0.54736,-2.28085 -0.0963,-0.99047 -0.32501,-2.07047 -0.50828,-2.4 -0.18327,-0.32953 -0.71272,-1.75115 -1.17655,-3.15915 -0.9489,-2.88046 -2.18269,-6.16634 -2.94379,-7.84 -0.28012,-0.616 -0.7185,-1.624 -0.97417,-2.24 -0.25567,-0.616 -0.66325,-1.52767 -0.90573,-2.02593 -0.24248,-0.49827 -0.44087,-1.04634 -0.44087,-1.21795 0,-0.47143 -5.50285,-11.25163 -7.04068,-13.79282 -0.34725,-0.57382 -0.77929,-1.3313 -0.96009,-1.6833 -0.1808,-0.352 -0.57859,-1.02803 -0.88398,-1.50228 -0.30539,-0.47425 -1.84128,-2.99425 -3.4131,-5.6 -1.57181,-2.60575 -3.73181,-5.9223 -4.8,-7.37012 -1.06818,-1.44782 -3.00931,-4.087482 -4.31361,-5.865916 -1.30431,-1.778433 -3.6642,-4.769853 -5.24421,-6.647599 C 489.20432,87.456338 487.39148,85.272 486.75579,84.48 484.77706,82.014695 474.56649,71.763336 471.04,68.701428 469.192,67.096883 467.176,65.298299 466.56,64.704575 465.18629,63.380547 452.28973,53.629715 450.08,52.244383 449.2,51.69269 447.48886,50.620011 446.27746,49.860652 445.06606,49.101294 443.74437,48.264 443.34036,48 c -1.54217,-1.007735 -5.48088,-3.362269 -6.86036,-4.10108 -2.12884,-1.140148 -4.13776,-2.241694 -5.76,-3.158373 -1.52667,-0.862675 -4.0015,-2.103586 -8.96,-4.492656 -2.85457,-1.375371 -3.59037,-1.706811 -6.4,-2.882867 -0.616,-0.257846 -1.552,-0.655245 -2.08,-0.883108 -0.528,-0.227863 -2.472,-0.945375 -4.32,-1.59447 -1.848,-0.649095 -3.58073,-1.293999 -3.8505,-1.43312 -0.26978,-0.139121 -0.98978,-0.357732 -1.6,-0.485803 -0.61023,-0.128072 -1.9735,-0.632032 -3.0295,-1.119913 -3.05128,-1.409716 -4.97014,-2.066187 -9.76,-3.339038 -0.968,-0.257235 -2.408,-0.642181 -3.2,-0.855435 -0.792,-0.213255 -2.268,-0.582676 -3.28,-0.820936 -1.012,-0.238261 -2.74,-0.657225 -3.84,-0.931033 -2.03527,-0.506611 -3.09349,-0.721223 -7.92,-1.60622 -8.65612,-1.587199 -11.67468,-2.033025 -16.07445,-2.374115 -2.15905,-0.167379 -4.78955,-0.478049 -5.84555,-0.690377 -1.3491,-0.271262 -6.53477,-0.381002 -17.44,-0.36907 -12.6171,0.0138 -16.17385,0.114303 -19.0157,0.537298 -1.92264,0.286174 -4.22664,0.51936 -5.12,0.518192 -0.89337,-0.0012 -2.9203,0.219916 -4.5043,0.491298 -1.584,0.271382 -4.176,0.697002 -5.76,0.945822 -5.69532,0.894639 -6.60585,1.069781 -13.28,2.554426 -1.32,0.293631 -3.264,0.725067 -4.32,0.958747 -1.056,0.233681 -2.352,0.566845 -2.88,0.740366 -0.89845,0.295265 -2.84291,0.861161 -6.24,1.816022 -3.79365,1.06633 -5.36456,1.554378 -6.33086,1.966862 -0.57797,0.246719 -1.20421,0.448581 -1.39164,0.448581 -0.18743,0 -0.79454,0.199323 -1.34914,0.44294 -0.5546,0.243617 -2.52036,0.977971 -4.36836,1.631898 -1.848,0.653928 -3.648,1.310742 -4,1.459588 -0.352,0.148846 -1.36,0.575231 -2.24,0.947523 -1.56952,0.664001 -3.33767,1.451287 -4.35145,1.937526 -0.2813,0.134919 -1.8653,0.82545 -3.52,1.534514 -1.6547,0.709063 -4.37655,2.020835 -6.04855,2.915049 -1.672,0.894213 -3.904,2.060457 -4.96,2.591652 -1.056,0.531196 -2.136,1.095654 -2.4,1.254352 -0.264,0.158698 -2.61197,1.556736 -5.21772,3.10675 -2.60575,1.550014 -5.12575,3.068622 -5.6,3.374684 -0.47425,0.306062 -1.07828,0.655783 -1.34228,0.777158 -0.264,0.121375 -1.128,0.698959 -1.92,1.28352 -2.21069,1.631671 -2.3958,1.763211 -4.64795,3.302846 -2.6534,1.813944 -7.90722,5.697504 -8.13804,6.015534 -0.0957,0.131875 -1.18201,1.024884 -2.41401,1.984466 -1.232,0.959582 -2.312,1.826299 -2.4,1.926037 -0.088,0.09974 -1.024,0.874982 -2.08,1.722763 -4.62292,3.711388 -12.01449,10.986676 -18.56322,18.2712 -1.58223,1.76 -2.95682,3.272 -3.05464,3.36 -0.0978,0.088 -1.14679,1.384 -2.33105,2.88 -1.18426,1.496 -2.31246,2.915582 -2.50711,3.154628 -1.62865,2.000114 -6.79641,9.114062 -7.98243,10.988612 -0.81314,1.28522 -2.16053,3.41676 -2.99418,4.73676 -0.83366,1.32 -1.92987,2.99607 -2.43602,3.7246 -0.50615,0.72853 -1.06495,1.66453 -1.24177,2.08 -0.17682,0.41547 -0.82512,1.6194 -1.44067,2.6754 -1.12201,1.92487 -5.9875,11.67825 -7.02383,14.08 -0.30376,0.704 -0.74333,1.712 -0.9768,2.24 -0.95265,2.15444 -1.41557,3.27068 -1.92427,4.64 -0.29422,0.792 -0.73949,1.84767 -0.98948,2.34593 -0.24999,0.49827 -0.45542,1.07427 -0.4565,1.28 -0.001,0.20574 -0.20351,0.76037 -0.44984,1.23251 -0.24633,0.47215 -0.55007,1.33615 -0.67498,1.92 -0.12491,0.58386 -0.33786,1.20556 -0.47321,1.38156 -0.13535,0.176 -0.35304,0.81927 -0.48374,1.4295 -0.1307,0.61022 -0.3512,1.33022 -0.49,1.6 -0.27131,0.52734 -1.18324,3.46713 -2.0382,6.5705 -0.29091,1.056 -0.6576,2.352 -0.81486,2.88 -0.33515,1.12529 -1.44047,5.82845 -2.06814,8.8 -1.58695,7.51301 -1.83409,8.98258 -2.57258,15.29752 -0.25326,2.16564 -0.53923,4.18568 -0.6355,4.48897 -0.0963,0.3033 -0.30261,3.64342 -0.45856,7.42248 -0.30832,7.47144 0.036,23.86844 0.59197,28.19356 0.18931,1.47261 0.47556,4.11747 0.63612,5.87747 0.41457,4.54435 1.20074,10.64788 1.58796,12.32836 0.18144,0.7874 0.3324,2.00764 0.33548,2.71164 0.003,0.704 0.21882,2.72 0.47943,4.48 0.26061,1.76 0.6873,5.144 0.94821,7.52 1.11174,10.1242 1.45264,13.03354 3.50587,29.92 0.25679,2.112 0.62222,5.136 0.81205,6.72 0.18984,1.584 0.48449,4.032 0.6548,5.44 0.1703,1.408 0.3931,3.928 0.49511,5.6 0.10201,1.672 0.38727,4.984 0.63393,7.36 0.44118,4.24991 1.09907,12.96885 1.76263,23.36 0.18545,2.904 0.47437,9.168 0.64205,13.92 0.16768,4.752 0.45138,10.77546 0.63043,13.38546 0.41956,6.11601 0.42326,51.59277 0.005,58.29454 -0.17586,2.816 -0.45875,9.296 -0.62864,14.4 -0.1699,5.104 -0.45984,12.232 -0.64432,15.84 -0.18448,3.608 -0.48938,9.584 -0.67754,13.28 -0.18817,3.696 -0.46351,10.68 -0.61187,15.52 -0.14836,4.84 -0.42294,12.184 -0.61017,16.32 -0.35013,7.73474 -0.82175,20.51271 -1.31691,35.68 -0.15514,4.752 -0.43471,9.504 -0.62127,10.56 -0.5633,3.18849 -0.76605,9.72078 -0.37245,12 1.19594,6.92531 1.80379,8.71222 4.84401,14.24 0.65843,1.19717 1.50791,2.41044 3.02469,4.32 1.67296,2.10619 5.49064,5.52982 8.14939,7.30823 1.62131,1.08447 3.03825,1.97177 3.14876,1.97177 0.11052,0 1.21708,0.49096 2.45903,1.09101 1.24196,0.60006 3.6981,1.76659 5.4581,2.59229 1.76,0.82571 4.352,2.04893 5.76,2.71827 1.408,0.66935 3.568,1.67498 4.8,2.23473 1.232,0.55976 2.816,1.2812 3.52,1.60322 0.704,0.32201 2,0.89919 2.88,1.2826 0.88,0.38342 2.392,1.05843 3.36,1.50002 3.36835,1.5366 4.32871,1.97069 5.76,2.60357 0.792,0.3502 2.232,0.99601 3.2,1.43513 2.69347,1.22185 5.08575,2.29929 7.2,3.24276 1.056,0.47123 2.352,1.05476 2.88,1.29673 0.528,0.24197 1.608,0.72393 2.4,1.07103 1.51066,0.66205 4.60905,2.02589 6.24,2.74672 0.528,0.23335 2.76,1.17922 4.96,2.10192 2.2,0.9227 4.504,1.90059 5.12,2.17309 0.616,0.2725 1.552,0.67268 2.08,0.88929 2.3443,0.96173 4.68864,1.96299 6.72,2.87009 0.528,0.23578 1.68,0.73329 2.56,1.10558 0.88,0.37229 1.888,0.80484 2.24,0.96123 0.352,0.15638 2.44,1.0277 4.64,1.93628 2.2,0.90857 4.432,1.83949 4.96,2.06871 0.528,0.22922 1.608,0.6593 2.4,0.95573 0.792,0.29643 1.872,0.72357 2.4,0.9492 0.528,0.22563 1.608,0.66984 2.4,0.98713 0.792,0.31729 2.016,0.81394 2.72,1.10367 0.704,0.28973 1.928,0.78549 2.72,1.1017 0.792,0.3162 1.728,0.69396 2.08,0.83946 0.352,0.1455 1.432,0.57601 2.4,0.95667 0.968,0.38067 2.192,0.87912 2.72,1.10766 0.528,0.22855 1.608,0.65808 2.4,0.95451 0.792,0.29643 1.872,0.72596 2.4,0.95451 0.528,0.22854 1.752,0.72699 2.72,1.10766 0.968,0.38066 2.048,0.82311 2.4,0.9832 0.352,0.16009 2.008,0.80901 3.68,1.44204 1.672,0.63303 3.616,1.37456 4.32,1.64785 0.704,0.27329 1.856,0.70992 2.56,0.9703 0.704,0.26037 1.712,0.67116 2.24,0.91287 0.528,0.24171 1.35736,0.5324 1.84302,0.64597 0.48567,0.11357 0.96216,0.33455 1.05889,0.49105 0.0967,0.1565 0.41936,0.28544 0.71698,0.28652 0.29761,10e-4 0.95357,0.21709 1.45769,0.48 0.50412,0.26292 1.05202,0.47803 1.21755,0.47803 0.16554,0 0.90508,0.26253 1.64343,0.58339 2.3242,1.01004 3.84199,1.56894 5.82244,2.14403 1.056,0.30664 2.424,0.7459 3.04,0.97614 0.616,0.23024 2.128,0.63547 3.36,0.90052 9.53728,2.05183 12.97408,2.4011 22.4,2.27645 4.224,-0.0559 8.688,-0.26515 9.92,-0.46509 z M 326.4,577.40596 c -3.26267,-0.61581 -7.76884,-1.74002 -8.16,-2.03577 -0.176,-0.13307 -0.707,-0.33428 -1.18,-0.44714 -0.473,-0.11286 -1.841,-0.64674 -3.04,-1.18639 -2.82848,-1.27306 -3.85376,-1.72734 -5.22,-2.31287 -1.90445,-0.81619 -3.65658,-1.58673 -4.19145,-1.84327 -0.2813,-0.13491 -1.9373,-0.84264 -3.68,-1.57273 -1.7427,-0.73008 -4.07502,-1.7505 -5.18292,-2.2676 -1.1079,-0.51711 -2.14023,-0.94019 -2.29407,-0.94019 -0.15383,0 -0.75936,-0.24036 -1.34563,-0.53414 -1.55932,-0.78139 -1.49801,-0.7545 -8.60441,-3.77308 -7.3431,-3.11912 -8.37562,-3.56052 -9.74152,-4.1645 -0.528,-0.23347 -1.536,-0.67927 -2.24,-0.99066 -0.704,-0.31139 -1.784,-0.77893 -2.4,-1.03898 -0.616,-0.26004 -1.35015,-0.5832 -1.63145,-0.71812 -0.2813,-0.13491 -1.9373,-0.84092 -3.68,-1.56889 -1.7427,-0.72798 -3.45655,-1.45254 -3.80855,-1.61014 -0.352,-0.1576 -1.36,-0.59115 -2.24,-0.96344 -0.88,-0.37229 -2.032,-0.87312 -2.56,-1.11294 -1.04683,-0.47549 -4.68462,-2.1236 -6.72,-3.0445 -0.704,-0.31853 -2.288,-1.03347 -3.52,-1.58877 -3.69972,-1.66756 -4.37106,-2.02248 -7.04264,-3.7233 -3.14378,-2.00144 -7.57214,-6.24631 -9.64831,-9.24854 -1.55701,-2.25151 -3.48871,-5.93958 -4.35777,-8.32 -1.01109,-2.76948 -1.28182,-3.90241 -1.8633,-7.79746 -0.44338,-2.97004 -0.59903,-5.74049 -0.58666,-10.44254 0.009,-3.52 0.16629,-7.12 0.34897,-8 0.35602,-1.715 0.60955,-10.2355 1.18546,-39.84 0.20029,-10.296 0.58033,-24.048 0.84452,-30.56 0.55588,-13.70173 0.64226,-46.47163 0.14677,-55.68 -0.17993,-3.344 -0.45653,-8.672 -0.61467,-11.84 -0.39737,-7.96071 -0.90837,-15.65072 -1.46721,-22.08 -0.26007,-2.992 -0.47075,-6.232 -0.46819,-7.2 0.003,-0.968 -0.20269,-3.488 -0.45613,-5.6 -0.46293,-3.85771 -0.9757,-9.09235 -1.47327,-15.04 -0.14724,-1.76 -0.41679,-4.28 -0.59899,-5.6 -0.18221,-1.32 -0.48775,-3.768 -0.67899,-5.44 -0.19124,-1.672 -0.54921,-4.696 -0.79549,-6.72 -0.24628,-2.024 -0.59468,-5.048 -0.77421,-6.72 -0.17954,-1.672 -0.48441,-4.29338 -0.6775,-5.8253 -0.19308,-1.53191 -0.47082,-4.55591 -0.61719,-6.72 -0.47168,-6.97368 -0.97478,-13.13555 -1.34021,-16.4147 -0.73107,-6.56005 -1.4696,-16.58198 -1.86293,-25.28 -0.75068,-16.60052 -0.2528,-27.62189 1.79974,-39.84 0.28088,-1.672 0.71038,-3.78216 0.95445,-4.68925 0.24406,-0.90709 0.44375,-1.93455 0.44375,-2.28325 0,-0.3487 0.2095,-1.33454 0.46555,-2.19075 0.25605,-0.85621 0.76747,-2.63675 1.1365,-3.95675 0.93577,-3.34718 2.03117,-6.78687 3.05721,-9.6 1.12756,-3.09148 1.89381,-4.98988 2.12469,-5.264 0.14083,-0.1672 0.25605,-0.48804 0.25605,-0.71298 0,-0.74315 5.14479,-11.49799 7.3205,-15.30302 3.19085,-5.58037 7.64652,-11.90457 12.06177,-17.12 3.73598,-4.41305 10.09043,-10.70376 13.73773,-13.59993 0.88,-0.69877 1.888,-1.53897 2.24,-1.86711 0.352,-0.32814 1.504,-1.18307 2.56,-1.89985 1.056,-0.71677 2.7148,-1.89044 3.68621,-2.60816 0.97142,-0.71772 2.05142,-1.47749 2.4,-1.68838 0.34859,-0.21088 1.64179,-0.99859 2.87379,-1.75047 3.24552,-1.9807 7.4239,-4.16813 11.76,-6.156475 3.4862,-1.598623 4.6939,-2.109625 4.98587,-2.109625 0.16553,0 0.71343,-0.215113 1.21755,-0.478029 0.50412,-0.262915 1.13978,-0.478915 1.41258,-0.48 0.2728,-0.0011 0.6328,-0.125383 0.8,-0.276221 0.1672,-0.150837 1.384,-0.603097 2.704,-1.005022 1.32,-0.401925 2.976,-0.912092 3.68,-1.133705 1.68736,-0.531166 4.5906,-1.275544 7.36,-1.887069 5.82085,-1.285333 10.04252,-1.88196 17.12,-2.41948 4.79192,-0.363936 20.06176,-0.364234 24.16,-4.72e-4 4.46335,0.39617 10.49049,1.19976 12.96,1.727938 1.144,0.244678 2.872,0.61496 3.84,0.82285 2.29019,0.491846 5.27116,1.250902 6.88,1.751883 0.704,0.219221 2.144,0.654062 3.2,0.966315 2.20232,0.651211 3.77116,1.238781 8.16,3.056116 0.968,0.40083 2.264,0.93492 2.88,1.186866 1.46845,0.600602 3.53744,1.63875 6.61637,3.31987 1.37699,0.75185 2.79163,1.52042 3.14363,1.70793 2.10757,1.12271 10.44466,6.9724 13.12101,9.2063 2.91422,2.43246 12.06554,11.34426 13.91182,13.54772 1.87753,2.24074 4.41445,5.2796 5.51681,6.60832 0.6543,0.78866 1.77415,2.28531 2.48855,3.32591 0.7144,1.04059 2.22679,3.18798 3.36085,4.77198 2.65869,3.71351 7.382,11.6721 8.83106,14.88 0.35776,0.792 0.91919,2.016 1.24762,2.72 0.32844,0.704 0.98026,2.144 1.4485,3.2 0.46824,1.056 1.11267,2.496 1.43208,3.2 0.31941,0.704 1.33143,3.584 2.24893,6.4 0.91751,2.816 1.78537,5.35427 1.92859,5.64061 0.14322,0.28633 0.35078,1.07833 0.46124,1.76 0.11047,0.68166 0.39551,2.10339 0.63344,3.15939 2.18484,9.69696 2.67466,13.14758 3.70212,26.08 0.78577,9.89048 0.66308,15.85149 -0.69816,33.92 -0.19226,2.552 -0.46251,6.728 -0.60056,9.28 -0.27109,5.01137 -0.62025,8.6755 -2.25655,23.68 -0.20153,1.848 -0.48136,4.90919 -0.62184,6.80264 -0.14049,1.89345 -0.41509,4.91745 -0.61023,6.72 -0.19513,1.80255 -0.49842,4.78936 -0.67397,6.63736 -0.17555,1.848 -0.52788,5.088 -0.78294,7.2 -1.13828,9.42509 -1.44224,12.04932 -1.76059,15.2 -0.18672,1.848 -0.48557,4.584 -0.66409,6.08 -0.17853,1.496 -0.46324,5.312 -0.6327,8.48 -0.16945,3.168 -0.45019,7.056 -0.62386,8.64 -0.17367,1.584 -0.31832,4.15748 -0.32144,5.71884 -0.003,1.56136 -0.21093,5.23336 -0.46177,8.16 -0.25084,2.92664 -0.54391,8.34516 -0.65125,12.04116 -0.10734,3.696 -0.3297,8.52 -0.49412,10.72 -0.39601,5.29867 -0.37518,41.06689 0.0312,53.6 0.17691,5.456 0.44895,17.12 0.60453,25.92 0.43249,24.46324 0.92879,42.23609 1.27337,45.6 0.67743,6.61337 0.73329,10.29001 0.20421,13.44 -0.57344,3.41403 -1.31763,6.40772 -1.94891,7.84 -2.47393,5.61293 -5.07779,9.34681 -8.84224,12.67958 -1.2984,1.14952 -3.44445,2.72687 -4.76899,3.50522 -2.44833,1.43875 -2.79742,1.61742 -7.03174,3.59906 -1.32,0.61776 -3.48,1.6298 -4.8,2.249 -1.32,0.61919 -4.056,1.83581 -6.08,2.70359 -2.024,0.86778 -4.328,1.87592 -5.12,2.2403 -0.792,0.36438 -2.376,1.04503 -3.52,1.51256 -1.144,0.46753 -2.2168,0.98069 -2.384,1.14037 -0.1672,0.15968 -0.49082,0.29032 -0.71915,0.29032 -0.22833,0 -1.31553,0.41188 -2.416,0.9153 -1.10047,0.50341 -2.73703,1.21889 -3.63682,1.58995 -0.89978,0.37106 -2.62778,1.12031 -3.84,1.66501 -1.21221,0.54469 -2.49203,1.11735 -2.84403,1.27257 -2.7787,1.22533 -3.66842,1.59717 -3.82159,1.59717 -0.15333,0 -1.99614,0.80798 -5.45841,2.39323 -0.528,0.24175 -1.536,0.67684 -2.24,0.96687 -0.704,0.29003 -1.712,0.72203 -2.24,0.96 -1.32784,0.59847 -2.02363,0.89533 -12,5.1199 -4.84,2.04953 -9.232,3.91843 -9.76,4.15309 -2.06983,0.91992 -5.8604,2.07516 -7.84,2.38936 -1.144,0.18158 -2.58305,0.47581 -3.19789,0.65385 -1.59878,0.46295 -9.01219,0.3438 -11.84211,-0.19034 z m 10.56,-6.54117 c 0.792,-0.16903 2.304,-0.45635 3.36,-0.63847 2.31048,-0.3985 4.37154,-1.0936 8,-2.69804 1.28996,-0.5704 3.13236,-1.35509 4.4,-1.87401 0.572,-0.23415 1.616,-0.6805 2.32,-0.99189 0.704,-0.31139 1.712,-0.74339 2.24,-0.96 0.528,-0.21661 1.464,-0.62363 2.08,-0.9045 0.616,-0.28086 7.24,-3.12888 14.72,-6.32894 7.48,-3.20005 14.392,-6.17028 15.36,-6.6005 0.968,-0.43023 2.192,-0.97441 2.72,-1.20931 0.528,-0.23489 3.912,-1.68552 7.52,-3.22362 7.58385,-3.23301 9.36164,-4.01285 12,-5.26383 1.056,-0.50071 3.072,-1.44151 4.48,-2.09068 7.41587,-3.41914 9.38239,-4.63595 12.43984,-7.6973 3.84669,-3.85159 5.99393,-8.06626 7.21819,-14.16811 0.43364,-2.16133 0.43224,-9.44038 -0.002,-12.37559 -0.35331,-2.38599 -0.76819,-17.18926 -1.23317,-44 -0.1572,-9.064 -0.43672,-19.216 -0.62116,-22.56 -0.50017,-9.06842 -0.69763,-37.40945 -0.35448,-50.88 0.38756,-15.21442 1.4972,-38.35559 2.22492,-46.4 0.17514,-1.936 0.3957,-5.176 0.49015,-7.2 0.22717,-4.86846 1.0327,-13.76109 1.61271,-17.8036 0.25596,-1.78398 0.46395,-3.72798 0.4622,-4.32 -0.002,-0.59202 0.20799,-2.5884 0.4661,-4.4364 0.93007,-6.65913 1.18729,-8.85886 1.45696,-12.46004 0.15075,-2.01302 0.42726,-5.10902 0.61447,-6.88 0.18721,-1.77098 0.49845,-4.87596 0.69164,-6.89996 0.19319,-2.024 0.54798,-5.624 0.78841,-8 0.24044,-2.376 0.65793,-6.552 0.92775,-9.28 0.26982,-2.728 0.63366,-6.256 0.80853,-7.84 0.17488,-1.584 0.32052,-4.03578 0.32364,-5.4484 0.003,-1.41261 0.14644,-3.71661 0.31846,-5.12 0.17203,-1.40338 0.46757,-5.6476 0.65677,-9.4316 0.1892,-3.784 0.45719,-8.752 0.59553,-11.04 0.13834,-2.288 0.12878,-6.248 -0.0212,-8.8 -0.6227,-10.59302 -0.88389,-14.00271 -1.18887,-15.52 -0.17688,-0.88 -0.47159,-2.968 -0.6549,-4.64 -0.18331,-1.672 -0.54073,-4.048 -0.79427,-5.28 -0.25354,-1.232 -0.61751,-3.032 -0.80883,-4 -0.74404,-3.76465 -2.70363,-10.61588 -3.7328,-13.05086 -0.24429,-0.57797 -0.44416,-1.24405 -0.44416,-1.48018 0,-0.39977 -0.83044,-2.43326 -2.23343,-5.46896 -0.32536,-0.704 -0.90811,-2 -1.29499,-2.88 -2.16644,-4.92783 -6.2421,-12.20641 -9.228,-16.48 -0.7993,-1.144 -2.24495,-3.22417 -3.21257,-4.6226 -2.77851,-4.01558 -8.02782,-10.18768 -12.80616,-15.0574 -6.62302,-6.74966 -9.97076,-9.5776 -16.62931,-14.0473 -4.34584,-2.91724 -10.95441,-6.52159 -14.75554,-8.04776 -2.77473,-1.11406 -4.32422,-1.7697 -4.8105,-2.03547 -0.26978,-0.14745 -0.98505,-0.37671 -1.5895,-0.50947 -0.60445,-0.13276 -1.31972,-0.3595 -1.5895,-0.50386 -0.45977,-0.24603 -3.21466,-1.05886 -6.8905,-2.033023 -4.25278,-1.127065 -9.26728,-2.079779 -15.35227,-2.916802 -5.29519,-0.728382 -26.03356,-0.722151 -31.68773,0.0095 -5.38702,0.697103 -9.64173,1.415003 -11.54813,1.948521 -0.89546,0.250604 -1.91381,0.455643 -2.26299,0.455643 -0.34918,0 -1.27252,0.204959 -2.05188,0.455465 -0.77935,0.250505 -2.497,0.762076 -3.817,1.136836 -1.32,0.37475 -2.65005,0.81779 -2.95566,0.98453 -0.30561,0.16674 -0.73761,0.30806 -0.96,0.31403 -0.22239,0.006 -0.98034,0.28908 -1.68434,0.62914 -0.704,0.34006 -1.44208,0.62317 -1.64018,0.62914 -0.45542,0.0137 -4.07522,1.58166 -8.43982,3.65573 -3.65059,1.73478 -9.74261,5.28576 -13.44,7.83404 -2.21718,1.52811 -5.45109,3.95308 -6.14241,4.60593 -0.23015,0.21734 -1.13826,0.96454 -2.01802,1.66046 -1.98455,1.56982 -4.93873,4.34769 -8.18307,7.6947 -2.55559,2.63646 -7.6785,8.66301 -8.56856,10.08 -0.27638,0.44 -1.09691,1.592 -1.8234,2.56 -2.74968,3.66379 -8.30248,13.73139 -11.03102,20 -0.43539,1.00027 -1.42332,3.37855 -2.06037,4.96 -0.31904,0.792 -0.77652,1.89376 -1.01661,2.44836 -0.2401,0.5546 -0.43654,1.2818 -0.43654,1.616 0,0.3342 -0.13062,0.74444 -0.29026,0.91164 -0.15965,0.1672 -0.46085,0.88 -0.66934,1.584 -0.2085,0.704 -0.66034,2.216 -1.0041,3.36 -1.84463,6.13876 -3.17828,12.04189 -3.96548,17.55248 -0.26026,1.82186 -0.53264,3.40866 -0.6053,3.52622 -0.0727,0.11756 -0.373,3.94398 -0.66744,8.50315 -0.49696,7.695 -0.49853,9.28927 -0.0218,22.23377 0.28245,7.66941 0.64779,14.88038 0.81187,16.02438 0.16408,1.144 0.38214,3.304 0.48458,4.8 0.10244,1.496 0.32999,3.728 0.50567,4.96 0.17568,1.232 0.45066,4.328 0.61106,6.88 0.41029,6.52779 0.91087,12.4726 1.3338,15.84 0.19894,1.584 0.47175,4.248 0.60625,5.92 0.1345,1.672 0.40769,4.264 0.60709,5.76 1.41551,10.6198 2.67628,22.05895 3.2271,29.28 0.1611,2.112 0.44273,5.064 0.62583,6.56 0.33084,2.70307 0.70791,7.61318 1.29013,16.8 0.16731,2.64 0.45732,6.816 0.64447,9.28 0.87947,11.579 1.57132,30.94229 1.57212,44 6e-4,9.81106 -0.12995,15.51023 -0.91996,40.16 -0.37932,11.83525 -1.04312,42.5763 -1.13667,52.64 -0.0366,3.93922 -0.22465,7.5426 -0.4399,8.43016 -0.22518,0.92851 -0.39493,4.58579 -0.42329,9.12 -0.0376,6.01677 0.0666,8.16072 0.5081,10.44984 0.64023,3.31956 1.80037,6.89167 2.7541,8.48 0.15852,0.264 0.60012,1.056 0.98132,1.76 1.00968,1.86464 2.38633,3.58458 4.62212,5.77474 2.84735,2.78922 5.79397,4.64063 11.19794,7.03585 2.29685,1.01804 5.24724,2.364 5.93848,2.70912 0.27417,0.13688 3.44217,1.50121 7.04,3.03184 3.59784,1.53062 7.11752,3.04963 7.82152,3.37556 0.704,0.32593 10.352,4.49698 21.44,9.269 11.088,4.77201 20.808,8.96602 21.6,9.32 5.45214,2.43685 7.37442,3.20825 9.76,3.91663 1.8945,0.56255 5.94001,1.41503 7.52,1.58462 2.26336,0.24294 5.95912,0.18642 7.36,-0.11257 z m -14.71371,-42.56266 c -2.37254,-0.31912 -4.89254,-0.7281 -5.6,-0.90883 -0.70746,-0.18074 -1.79029,-0.41571 -2.40629,-0.52217 -1.13593,-0.19631 -6.32867,-1.7177 -8.96,-2.62514 -0.792,-0.27313 -2.34038,-0.90821 -3.44085,-1.41129 -1.10047,-0.50309 -2.124,-0.9147 -2.27452,-0.9147 -0.263,0 -2.19625,-0.97853 -6.28463,-3.18103 -1.97117,-1.06191 -8.49358,-5.33123 -9.6804,-6.33643 -0.3653,-0.3094 -1.78882,-1.49854 -3.16336,-2.64254 -3.26444,-2.71691 -7.38647,-6.91735 -10.25448,-10.44953 -2.38897,-2.94222 -6.88983,-9.48181 -7.67428,-11.15047 -0.24822,-0.528 -0.95988,-1.896 -1.58146,-3.04 -0.62158,-1.144 -1.70341,-3.448 -2.40407,-5.12 -0.70065,-1.672 -1.39802,-3.328 -1.5497,-3.68 -0.15169,-0.352 -0.592,-1.72 -0.97847,-3.04 -0.38647,-1.32 -0.90318,-2.87289 -1.14823,-3.45086 -0.24505,-0.57797 -0.44555,-1.36052 -0.44555,-1.739 0,-0.37849 -0.20535,-1.4896 -0.45634,-2.46915 -1.36528,-5.32843 -1.61739,-8.00173 -1.61651,-17.14099 6.9e-4,-7.17625 0.11276,-9.5652 0.56297,-12 0.84864,-4.5896 1.52737,-7.69797 1.99142,-9.12 0.22974,-0.704 0.51079,-1.712 0.62457,-2.24 0.27054,-1.25547 1.97148,-5.92712 2.97105,-8.16 0.43333,-0.968 1.07829,-2.408 1.43324,-3.2 0.35495,-0.792 0.76485,-1.656 0.9109,-1.92 0.14605,-0.264 0.56935,-1.04046 0.94068,-1.72546 0.37133,-0.685 1.28842,-2.197 2.03798,-3.36 0.74957,-1.163 1.7051,-2.69054 2.12341,-3.39454 0.81734,-1.37554 1.97821,-2.9223 4.86392,-6.48071 2.88322,-3.55535 8.40225,-8.83908 12.41271,-11.88351 3.71602,-2.82092 6.6033,-4.83578 6.92963,-4.83578 0.0977,0 0.77444,-0.396 1.50396,-0.88 1.29269,-0.85763 7.40547,-3.95664 9.32641,-4.72823 0.528,-0.21208 1.464,-0.61131 2.08,-0.88716 0.616,-0.27586 2.056,-0.80451 3.2,-1.17479 2.05173,-0.66409 2.41702,-0.67199 26.88,-0.58153 22.35528,0.0827 24.91041,0.14423 25.92,0.62453 0.616,0.29304 1.912,0.84076 2.88,1.21714 2.85763,1.11111 2.94385,1.14798 5.28,2.25795 4.44972,2.11419 12.29644,7.08914 15.65284,9.92416 4.41636,3.73033 7.74981,6.99309 10.61299,10.38793 2.25042,2.6683 5.28707,6.74313 6.40017,8.58828 0.5137,0.85155 1.17591,1.93155 1.47157,2.4 1.82536,2.89206 4.68829,8.71539 6.08234,12.37172 4.48916,11.77427 6.13216,23.60837 5.04251,36.32 -0.18858,2.2 -0.54752,5.008 -0.79765,6.24 -1.3805,6.7998 -1.958,9.04627 -2.90256,11.29086 -0.24321,0.57797 -0.44221,1.26987 -0.44221,1.53755 0,0.42278 -0.34568,1.31541 -1.6,4.13159 -0.15678,0.352 -0.59329,1.36 -0.97003,2.24 -0.85411,1.99509 -1.75642,3.82641 -2.60152,5.28 -0.35813,0.616 -0.96104,1.69163 -1.3398,2.39029 -1.07538,1.98367 -4.69678,7.29083 -6.60659,9.68198 -2.76348,3.45997 -10.44001,10.91532 -13.92905,13.52773 -1.76295,1.32 -3.44278,2.544 -3.73295,2.72 -0.29018,0.176 -1.2954,0.84044 -2.23383,1.47652 -1.47576,1.00031 -5.00809,3.00196 -7.62623,4.32154 -1.29017,0.65026 -6.10427,2.68932 -7.84,3.32071 -0.88,0.32011 -2.68,0.89405 -4,1.27543 -1.32,0.38138 -2.76,0.82382 -3.2,0.9832 -0.44,0.15938 -1.592,0.4296 -2.56,0.60049 -0.968,0.17089 -2.48,0.45482 -3.36,0.63097 -7.05595,1.41234 -16.88073,1.6746 -24.47371,0.65327 z m 18.92886,-6.68569 c 7.35689,-1.19391 9.80288,-1.71709 11.04517,-2.36246 1.02032,-0.53006 1.02032,-0.53006 1.12,-8.77202 0.0956,-7.90821 0.12973,-8.29827 0.84173,-9.63243 0.95286,-1.7855 2.98755,-3.80909 5.01795,-4.99058 2.40428,-1.39905 7.09134,-4.83498 8.89943,-6.52388 3.47524,-3.24616 4.71433,-4.60986 6.98565,-7.68817 0.86313,-1.16979 1.67962,-2.2709 1.81443,-2.4469 0.46047,-0.60116 2.49844,-4.15766 3.11727,-5.44 0.33974,-0.704 0.77864,-1.496 0.97533,-1.76 0.1967,-0.264 0.43779,-0.768 0.53577,-1.12 0.098,-0.352 0.48513,-1.432 0.86034,-2.4 3.16836,-8.17392 4.17117,-16.10062 3.19819,-25.28 -0.3527,-3.32748 -1.27719,-7.98237 -2.03372,-10.24 -1.25621,-3.74875 -1.83875,-5.27341 -2.44528,-6.4 -0.14214,-0.264 -0.87724,-1.704 -1.63357,-3.2 -1.80893,-3.57801 -6.23218,-9.39753 -9.76252,-12.84424 -2.98535,-2.91462 -7.55468,-6.41932 -10.92846,-8.38219 -1.10943,-0.64546 -2.11743,-1.17812 -2.24,-1.18368 -0.49332,-0.0224 -1.98905,-1.60376 -2.60644,-2.75568 -0.61667,-1.15056 -0.65642,-1.76213 -0.65642,-10.09821 0,-8.44545 -0.0299,-8.88946 -0.61896,-9.20474 -0.4069,-0.21776 -7.18252,-0.33126 -19.776,-0.33126 -14.47325,0 -19.25093,0.0939 -19.54104,0.384 -0.27466,0.27466 -0.38508,2.34757 -0.3878,7.28 -0.004,7.28582 -0.24854,9.05754 -1.55148,11.24126 -0.74441,1.24761 -2.47118,2.58006 -5.0691,3.91154 -0.91541,0.46916 -3.14741,1.85222 -4.96,3.07345 -4.19247,2.82467 -10.34983,8.78657 -13.37562,12.95099 -0.9799,1.34865 -3.50208,5.52556 -4.17782,6.91876 -0.38413,0.792 -0.81715,1.67704 -0.96225,1.96675 -0.82106,1.63933 -2.07931,4.86277 -2.60486,6.67325 -1.22457,4.21854 -1.54124,5.68028 -2.01037,9.28 -0.83194,6.38365 -0.53252,13.13943 0.82258,18.56 1.18183,4.72742 1.33992,5.29695 1.82099,6.56 1.01333,2.66047 3.28869,7.50012 4.16164,8.85172 0.30255,0.46845 0.96839,1.54845 1.47965,2.4 1.85045,3.08209 3.53172,5.0745 8.02419,9.50916 1.93944,1.91448 4.39025,4.06306 5.44625,4.77463 1.056,0.71157 2.62429,1.76499 3.48509,2.34094 0.8608,0.57595 2.49657,1.52336 3.63505,2.10536 2.4754,1.26545 4.72678,3.41544 5.25212,5.01558 0.22915,0.69798 0.45483,4.31743 0.56471,9.05672 0.10067,4.34176 0.28307,7.99381 0.40535,8.11565 0.41261,0.41117 10.08666,2.154 13.85768,2.49654 2.49073,0.22624 11.72413,-0.0445 13.97515,-0.40986 z m -35.00759,-10.49617 c 0.1005,-6.33578 0.0325,-6.55474 -2.40702,-7.7534 -0.8363,-0.41091 -2.93568,-1.69656 -4.66529,-2.85699 -1.72961,-1.16043 -3.38094,-2.25388 -3.66961,-2.42988 -0.71624,-0.43668 -6.80352,-5.83313 -7.53385,-6.67885 -0.32352,-0.37463 -1.18752,-1.39329 -1.92,-2.26369 -0.73249,-0.87039 -1.76871,-2.09439 -2.30271,-2.72 -1.4016,-1.64201 -6.22908,-9.18445 -6.22908,-9.7323 0,-0.10512 -0.51179,-1.31028 -1.13731,-2.67814 -1.79728,-3.93022 -1.48272,-3.06719 -3.29744,-9.04702 -1.11219,-3.66483 -2.28525,-11.70361 -2.28525,-15.66034 0,-3.88073 1.15379,-12.30225 2.08517,-15.21966 0.22475,-0.704 0.72253,-2.36 1.10617,-3.68 0.38364,-1.32 0.89149,-2.832 1.12857,-3.36 0.23707,-0.528 0.88301,-1.968 1.43542,-3.2 1.49731,-3.33934 2.13548,-4.49588 4.35419,-7.89094 3.13902,-4.80332 6.60505,-8.77215 11.81048,-13.52376 1.10126,-1.00525 5.45048,-4.14629 7.13347,-5.15184 0.30059,-0.17959 1.12253,-0.69856 1.82653,-1.15325 0.704,-0.45469 1.568,-0.91948 1.92,-1.03286 0.352,-0.11338 1.06713,-0.54888 1.58917,-0.96778 0.94917,-0.76163 0.94917,-0.76163 1.07735,-6.07135 0.0705,-2.92035 0.0296,-5.83514 -0.0909,-6.47732 -0.21316,-1.13625 -0.25023,-1.16254 -1.38075,-0.97908 -2.38102,0.38639 -11.37294,5.35216 -15.95787,8.8127 -0.37563,0.28351 -1.00793,0.73148 -1.40511,0.99548 -0.81805,0.54374 -3.33877,2.76747 -6.34791,5.6 -2.80941,2.64452 -8.24398,9.16824 -9.86847,11.84621 -2.92966,4.82954 -4.31642,7.25496 -4.75352,8.31379 -0.4855,1.17607 -1.44313,3.35641 -2.52985,5.76 -0.49181,1.08777 -1.12741,3.06681 -2.10686,6.56 -0.37011,1.32 -0.80932,2.76131 -0.97601,3.20292 -0.1667,0.44161 -0.4348,1.88161 -0.59577,3.2 -0.16097,1.31839 -0.44006,3.23579 -0.6202,4.26088 -0.85247,4.85104 -0.69221,17.15 0.27907,21.41754 0.17008,0.74726 0.53824,2.43866 0.81815,3.75866 0.82754,3.90264 2.38436,9.03292 3.21949,10.60937 0.24748,0.46716 0.44996,1.01457 0.44996,1.21647 0,0.59979 4.60371,9.82794 5.35502,10.73416 0.14591,0.176 0.61263,0.896 1.03714,1.6 0.84052,1.39391 4.12254,5.83214 5.43088,7.34412 4.56719,5.27806 10.73221,10.76042 15.85696,14.10112 3.32467,2.16726 4.72132,2.95693 8.48,4.79462 3.96784,1.93994 4.25674,2.05554 4.96,1.98465 0.609,-0.0614 0.64424,-0.3319 0.72756,-5.58424 z m 57.27687,4.14813 c 2.91216,-1.41453 6.80341,-3.58065 8.71557,-4.85166 2.56857,-1.70731 5.25597,-3.6064 5.44,-3.84425 0.088,-0.11373 1.168,-1.00768 2.4,-1.98656 3.85279,-3.0612 9.93245,-9.78816 12.96,-14.33986 0.264,-0.3969 0.88102,-1.28631 1.37115,-1.97647 0.95096,-1.33906 2.39148,-3.9312 4.06213,-7.3096 1.86936,-3.78024 2.66587,-5.69146 3.53409,-8.48 0.38358,-1.232 0.82427,-2.528 0.97931,-2.88 0.36379,-0.82598 0.87744,-2.92241 1.43583,-5.8603 0.24465,-1.28717 0.53021,-2.47847 0.63458,-2.64735 0.23043,-0.37284 0.76446,-6.20125 1.00901,-11.01235 0.23213,-4.56668 -0.82647,-14.45777 -1.9864,-18.56 -2.0387,-7.21012 -2.57003,-8.91876 -3.18431,-10.24 -0.24549,-0.528 -0.90293,-1.968 -1.46099,-3.2 -1.39983,-3.09033 -2.17515,-4.65092 -2.81182,-5.65971 -0.29842,-0.47285 -1.39477,-2.27285 -2.43633,-4 -1.04156,-1.72716 -1.97786,-3.21229 -2.08066,-3.30029 -0.1028,-0.088 -1.26097,-1.456 -2.5737,-3.04 -3.21298,-3.87692 -6.21061,-6.86852 -11.07127,-11.04899 -0.51734,-0.44495 -3.02862,-2.18167 -5.58062,-3.85938 -4.81988,-3.16863 -11.18414,-6.48307 -12.10775,-6.30559 -0.47137,0.0906 -0.54297,0.83383 -0.62595,6.49812 -0.0515,3.51771 -0.0141,6.83677 0.0832,7.37567 0.13749,0.7615 0.46024,1.10484 1.44841,1.54082 1.12962,0.49839 5.02579,2.92503 5.44208,3.38948 0.088,0.0982 1.024,0.75257 2.08,1.45419 2.25741,1.49986 9.32409,8.28021 10.62017,10.18986 0.49491,0.7292 1.04383,1.48818 1.21983,1.68661 0.176,0.19844 0.536,0.68408 0.8,1.07921 0.264,0.39513 0.62587,0.88077 0.80415,1.07921 0.58606,0.65231 1.33681,1.93782 3.20791,5.49293 1.01542,1.92932 1.96285,3.72386 2.10538,3.98786 0.57091,1.05742 3.48256,10.26149 3.48256,11.00876 0,0.44001 0.21443,1.62328 0.47652,2.62948 0.53747,2.06349 1.26604,12.85824 0.97329,14.42069 -0.10499,0.56041 -0.32251,2.51684 -0.48336,4.34763 -0.16085,1.83079 -0.42713,3.67627 -0.59173,4.10107 -0.16461,0.42481 -0.55613,1.92437 -0.87005,3.33237 -1.09068,4.89198 -4.44439,12.64475 -7.47502,17.28 -0.80551,1.232 -1.54103,2.312 -1.6345,2.4 -0.0935,0.088 -0.40152,0.52485 -0.68457,0.97078 -1.69757,2.67446 -8.0501,9.26642 -11.32209,11.74883 -3.29425,2.4993 -5.28911,3.9146 -6.56794,4.65979 -0.80269,0.46774 -1.81069,1.22393 -2.24,1.68042 -0.75687,0.8048 -0.78361,1.00014 -0.88158,6.43949 -0.0556,3.08524 -0.0241,5.81003 0.07,6.05511 0.25973,0.67684 1.28883,0.5384 3.3155,-0.44602 z M 327.77386,318.48 c -0.55889,-0.308 -1.34864,-0.98858 -1.75501,-1.51241 -0.61117,-0.78782 -0.73574,-1.32712 -0.72088,-3.12076 0.0162,-1.95697 0.11212,-2.26967 0.98373,-3.2076 1.38324,-1.48846 4.1382,-5.10504 4.36312,-5.7277 0.2753,-0.76214 -0.56477,-0.90213 -5.4439,-0.90716 -4.23908,-0.004 -4.23908,-0.004 -5.47828,-1.12392 -1.63643,-1.47841 -2.24179,-3.46501 -1.62519,-5.33334 0.39495,-1.1967 1.82293,-3.33779 3.27276,-4.90711 0.32519,-0.352 1.19393,-1.432 1.93053,-2.4 0.73659,-0.968 1.49406,-1.904 1.68326,-2.08 0.18919,-0.176 1.12519,-1.328 2.08,-2.56 0.9548,-1.232 2.04978,-2.6 2.4333,-3.04 0.38351,-0.44 0.95951,-1.10446 1.28,-1.47658 0.79797,-0.92654 2.96071,-2.04493 3.93796,-2.03639 1.03416,0.009 3.20853,1.00662 3.90568,1.79191 0.29751,0.33513 0.71793,1.27109 0.93426,2.07992 0.61906,2.31462 0.0431,3.75222 -2.93338,7.32114 -1.39442,1.672 -2.48916,3.184 -2.43274,3.36 0.0589,0.18387 2.0768,0.38807 4.74334,0.48 4.47808,0.15439 4.682,0.1915 5.81713,1.05854 1.37717,1.05193 2.45045,2.9788 2.45045,4.39934 0,0.55185 -0.25168,1.45759 -0.55929,2.01275 -0.51127,0.9227 -5.89784,7.91264 -7.55928,9.80937 -0.38541,0.44 -1.64855,2.02456 -2.80696,3.52124 -1.50184,1.94039 -2.51917,2.92748 -3.54539,3.44 -1.7261,0.86205 -3.57175,0.92119 -4.95522,0.15876 z m 3.53667,-2.30119 c 0.43571,-0.16566 1.62537,-1.35366 2.64369,-2.64 1.01831,-1.28635 1.93464,-2.41081 2.03628,-2.49881 0.10165,-0.088 0.97152,-1.168 1.93305,-2.4 0.96153,-1.232 1.93009,-2.43029 2.15235,-2.66286 0.22225,-0.23257 0.4041,-0.70057 0.4041,-1.04 0,-0.56331 -0.24422,-0.61621 -2.8,-0.60649 -2.17135,0.008 -2.94466,0.13398 -3.44432,0.56 -0.75012,0.63954 -5.97716,7.28355 -6.47782,8.23384 -0.45601,0.86554 0.28312,2.62497 1.26898,3.02067 0.96729,0.38825 1.33671,0.39369 2.28369,0.0337 z m 12.18922,-15.03979 c 1.69072,-1.58834 0.5948,-4.17902 -1.76784,-4.17902 -1.07273,0 -1.36491,0.20153 -2.82421,1.94798 -0.89524,1.07139 -1.6277,2.13939 -1.6277,2.37334 0,0.65136 0.59813,0.7873 3.09975,0.70445 1.92803,-0.0639 2.43233,-0.20072 3.12,-0.84675 z m -8.8415,-0.94625 c 0.83519,-0.86198 1.7241,-1.95134 1.97535,-2.42081 0.39708,-0.74195 0.39598,-0.89446 -0.008,-1.16617 -0.25586,-0.17192 -1.45173,-0.26502 -2.65747,-0.2069 -2.19225,0.10568 -2.19225,0.10568 -3.91717,2.01339 -1.00375,1.11013 -1.7261,2.20874 -1.72774,2.62772 -0.003,0.68318 0.12041,0.72 2.40703,0.72 2.40985,0 2.40985,0 3.92839,-1.56723 z m -9.82304,0.52723 c 0.68808,-0.57636 2.69825,-3.18852 2.9216,-3.79653 0.15891,-0.43261 -0.16775,-0.54976 -2.01053,-0.72103 -1.71075,-0.15899 -2.44838,-0.0862 -3.31549,0.32732 -0.64128,0.30581 -1.27931,0.92796 -1.50133,1.46397 -0.319,0.77014 -0.29518,1.12284 0.13704,2.02921 0.4767,0.99967 0.64601,1.09706 1.90716,1.09706 0.76121,0 1.59891,-0.18 1.86155,-0.4 z m 6.56403,-8.0191 c 1.56194,-1.7361 2.20793,-2.51297 4.24452,-5.10448 1.24122,-1.57943 1.63452,-2.34213 1.62912,-3.15925 -0.004,-0.59244 -0.25591,-1.38205 -0.56,-1.75468 -1.24301,-1.52321 -3.32255,-1.05615 -5.03288,1.13037 -0.528,0.67501 -2.33845,2.93726 -4.02322,5.02722 -1.68477,2.08995 -3.17922,3.99602 -3.321,4.2357 -0.42583,0.71987 0.45877,0.99411 3.22346,0.99932 2.59925,0.005 2.59925,0.005 3.84,-1.3742 z m -49.05785,-45.49913 c -1.81177,-0.84748 -4.26899,-3.10943 -5.07856,-4.67498 -0.82367,-1.59279 -1.41593,-3.85494 -1.41557,-5.40679 6.7e-4,-2.88199 1.21196,-5.85398 3.28958,-8.07125 0.44901,-0.47918 1.6549,-1.33742 2.67977,-1.90719 1.74626,-0.97083 2.06453,-1.03675 5.06339,-1.04875 2.62845,-0.0105 3.4572,0.10974 4.64,0.67335 1.7959,0.85574 4.32881,3.06358 5.03689,4.39048 1.02511,1.92097 1.68311,4.18928 1.68311,5.80217 0,1.95743 -1.02211,5.02792 -2.18409,6.56119 -1.24394,1.64141 -2.23018,2.43937 -4.34702,3.51715 -1.69922,0.86515 -2.18628,0.96171 -4.8,0.95166 -2.39397,-0.009 -3.20249,-0.14854 -4.5675,-0.78704 z m 7.4385,-3.97436 c 2.48693,-1.20901 3.98011,-3.56029 3.98011,-6.26741 0,-2.71128 -1.58175,-5.13733 -4.06592,-6.23619 -1.75453,-0.77611 -3.42875,-0.81986 -5.095,-0.13314 -1.50265,0.6193 -2.50691,1.49954 -3.51737,3.08297 -0.61051,0.9567 -0.76171,1.62542 -0.76171,3.3688 0,1.48784 0.16677,2.42516 0.52778,2.96636 0.97249,1.45789 2.79655,3.1912 3.35828,3.1912 0.30589,0 0.64517,0.144 0.75394,0.32 0.34159,0.5527 3.47203,0.36266 4.81989,-0.29259 z m 23.34011,3.98401 c -2.76925,-1.3261 -4.73878,-3.52226 -5.89329,-6.57142 -1.54896,-4.09095 -0.24584,-9.05297 3.16973,-12.06973 0.44196,-0.39036 1.58498,-1.11036 2.54006,-1.6 1.54242,-0.79077 2.07887,-0.89027 4.8,-0.89027 2.48091,0 3.33734,0.1314 4.5035,0.69098 1.81715,0.87195 3.99453,2.73962 4.94,4.23733 0.88845,1.4074 1.78,4.36521 1.78,5.90533 0,3.50233 -2.08489,7.42032 -4.96,9.32099 -2.18596,1.44509 -3.34739,1.76569 -6.35495,1.75418 -2.41179,-0.009 -3.2058,-0.14564 -4.52505,-0.77739 z m 7.08092,-3.88119 c 2.68398,-1.1042 4.27908,-3.48548 4.27908,-6.38811 0,-1.90367 -0.50122,-3.14014 -1.91418,-4.72209 -1.0218,-1.14401 -3.25853,-2.14003 -4.80582,-2.14003 -2.43877,0 -5.5685,2.13299 -6.42144,4.37638 -0.52643,1.38462 -0.34817,4.27907 0.35269,5.72687 0.58191,1.20204 1.38998,1.91698 3.66875,3.24589 0.92845,0.54144 3.40755,0.49079 4.84092,-0.0989 z m 23.26366,3.68936 c -2.16138,-1.06644 -4.12778,-2.98352 -5.28025,-5.14778 -0.63902,-1.20003 -0.74136,-1.85479 -0.74274,-4.75181 -0.001,-2.92291 0.1007,-3.56814 0.78472,-4.96 1.01312,-2.0615 3.3218,-4.36287 5.31951,-5.30268 1.28794,-0.60589 2.12845,-0.74389 4.62238,-0.75894 2.38499,-0.0144 3.35973,0.12073 4.48,0.62101 2.52952,1.12959 4.37914,2.96887 5.76394,5.73172 0.80631,1.6087 0.94786,2.26153 0.94786,4.37153 0,3.36076 -0.88059,5.61964 -3.0616,7.85356 -0.94928,0.97232 -2.41246,2.0408 -3.43546,2.50873 -1.48253,0.67812 -2.25584,0.81459 -4.60244,0.81221 -2.49442,-0.003 -3.04888,-0.11554 -4.79592,-0.97755 z M 350.24,243.52 c 0.10877,-0.176 0.45776,-0.32 0.77552,-0.32 1.54975,0 4.18448,-3.82219 4.18448,-6.0704 0,-1.57207 -0.93344,-3.74913 -2.10777,-4.91594 C 351.8185,230.94808 349.8769,230.08 348.32,230.08 c -2.42098,0 -5.24986,1.90102 -6.32565,4.25086 -1.50102,3.27865 0.19988,7.51284 3.60565,8.97582 1.28123,0.55037 4.34465,0.69121 4.64,0.21332 z m 23.02654,3.68918 c -1.7084,-0.78183 -4.36945,-3.23647 -5.16242,-4.76197 -1.90127,-3.65767 -1.78167,-8.00712 0.31052,-11.29303 1.21744,-1.91205 2.25863,-2.88775 4.28197,-4.01262 1.74626,-0.97083 2.06453,-1.03675 5.06339,-1.04875 2.62845,-0.0105 3.4572,0.10974 4.64,0.67335 1.798,0.85673 4.33046,3.06524 5.03451,4.39048 1.69059,3.18222 2.08465,6.26727 1.15297,9.02636 -1.06884,3.16523 -2.66341,5.05919 -5.63435,6.69222 -1.94758,1.07053 -2.19162,1.12352 -5.0597,1.09856 -2.43001,-0.0211 -3.32581,-0.16917 -4.62689,-0.7646 z m 7.44174,-4.00137 c 1.59669,-0.77144 3.46743,-2.88634 3.73456,-4.22199 0.74288,-3.71444 -0.73809,-6.87717 -3.86876,-8.26201 -1.75386,-0.77582 -3.42799,-0.81986 -5.095,-0.13404 -2.77593,1.14203 -4.27908,3.47082 -4.27908,6.62947 0,1.74372 0.13443,2.22846 0.91315,3.29275 0.50224,0.6864 1.18624,1.48089 1.52,1.76552 1.90512,1.62464 4.83942,2.01047 7.07513,0.9303 z M 285.12,215.98213 c -1.87271,-1.00448 -3.7188,-2.8073 -4.43733,-4.33332 -0.24054,-0.51085 -0.60054,-1.21681 -0.8,-1.56881 -0.2588,-0.4567 -0.38787,-7.34901 -0.45067,-24.06523 -0.0847,-22.55194 -0.0647,-23.49163 0.53791,-25.20606 0.80096,-2.27887 2.15637,-3.97859 4.31549,-5.41173 1.2614,-0.83727 2.2985,-1.22876 3.91526,-1.47796 1.48984,-0.22963 16.23869,-0.30996 45.71934,-0.249 43.52,0.09 43.52,0.09 45.30532,0.92725 2.23936,1.05019 4.28533,3.09353 5.28429,5.27748 0.77039,1.68424 0.77039,1.68424 0.77039,25.56525 0,23.88101 0,23.88101 -0.76027,25.54313 -0.97058,2.1219 -3.0947,4.24602 -5.2166,5.2166 -1.66212,0.76027 -1.66212,0.76027 -47.04263,0.74335 -45.3805,-0.0169 -45.3805,-0.0169 -47.1405,-0.96095 z m 92.23495,-6.67588 C 378.4,208.3725 378.4,208.3725 378.4,185.47352 c 0,-22.89897 0,-22.89897 -0.88727,-23.78625 C 376.62545,160.8 376.62545,160.8 332.30854,160.8 c -44.31692,0 -44.31692,0 -45.10122,0.96 -0.7843,0.96 -0.7843,0.96 -0.79581,23.72685 -0.0115,22.76685 -0.0115,22.76685 1.11962,23.76 1.13114,0.99315 1.13114,0.99315 44.95496,0.99315 43.82381,0 43.82381,0 44.86886,-0.93375 z M 485.92,524.41192 c -1.00757,-0.35429 -2.35536,-1.36098 -6.1047,-4.55977 -1.24559,-1.06268 -4.3964,-3.73215 -7.0018,-5.93215 -2.6054,-2.2 -5.25486,-4.45563 -5.8877,-5.01251 -0.88957,-0.7828 -1.27938,-0.94359 -1.7182,-0.70874 -0.51748,0.27695 -0.5676,0.93548 -0.5676,7.45827 0,7.87639 0.0903,7.54298 -2.04217,7.54298 -0.56641,0 -1.20263,-0.1728 -1.41383,-0.384 -0.27704,-0.27704 -0.384,-2.49443 -0.384,-7.96092 0,-5.815 0.10548,-7.82936 0.45358,-8.6625 0.8368,-2.00274 2.20363,-2.71463 4.53955,-2.36434 1.18419,0.17758 1.98924,0.70775 5.02858,3.3116 1.99027,1.70509 4.32958,3.70025 5.19848,4.43369 2.9408,2.48236 4.09209,3.46099 6.64828,5.65128 3.21488,2.75471 4.00111,3.27361 4.38242,2.8923 0.16413,-0.16413 0.33645,-4.03117 0.38357,-8.60757 C 487.52,503.2 487.52,503.2 489.36,503.10403 c 1.84,-0.096 1.84,-0.096 1.84,9.23063 0,10.47609 -0.0422,10.69289 -2.30725,11.85579 -1.32859,0.68211 -1.60428,0.70265 -2.97275,0.22147 z m -10.88,-27.58879 c -0.176,-0.0611 -1.184,-0.2917 -2.24,-0.51245 -2.66449,-0.55699 -5.76277,-2.30112 -7.73619,-4.35496 -4.44339,-4.62449 -5.46302,-11.66751 -2.56473,-17.71572 1.50669,-3.14419 5.24554,-6.34229 8.70092,-7.4425 1.87691,-0.59762 2.42008,-0.62326 12.41597,-0.58594 7.61597,0.0284 7.61597,0.0284 7.52,1.86844 -0.096,1.84 -0.096,1.84 -9.05597,2.00296 -9.40527,0.17106 -9.88205,0.24013 -12.36243,1.79088 -1.25363,0.78378 -3.09904,2.89676 -3.88668,4.45025 -0.26885,0.53025 -0.66552,1.86225 -0.88149,2.96 -0.30747,1.56288 -0.30927,2.41981 -0.008,3.94971 0.21141,1.07459 0.69503,2.55059 1.0747,3.28 1.0061,1.93288 3.14463,3.92609 5.25665,4.89945 1.57405,0.72541 2.27438,0.85023 4.73113,0.84321 2.48149,-0.007 3.11896,-0.12751 4.57149,-0.86357 2.12313,-1.07587 3.96292,-2.72591 4.9658,-4.45364 0.42756,-0.73659 1.02388,-2.33274 1.32516,-3.547 0.5198,-2.09501 0.5188,-2.32379 -0.0195,-4.48 -0.31202,-1.24974 -0.76262,-2.50677 -1.00135,-2.7934 -0.23873,-0.28663 -0.46356,-0.93463 -0.49962,-1.44 -0.0642,-0.89933 -0.0278,-0.92085 1.71208,-1.01296 1.41615,-0.075 1.88903,0.029 2.32543,0.5112 0.83792,0.9259 1.56848,3.77341 1.72439,6.7212 0.14749,2.78861 -0.31093,4.96477 -1.58979,7.54681 -0.76229,1.53906 -0.96206,1.79628 -2.979,3.83559 -1.86085,1.88148 -4.18078,3.23843 -6.61,3.86624 -1.92082,0.49641 -4.41343,0.84119 -4.88867,0.6762 z m -2.24,-37.74077 c -1.056,-0.1993 -2.23453,-0.54236 -2.61896,-0.76236 -0.38443,-0.22 -0.84604,-0.4 -1.02579,-0.4 -0.41267,0 -2.30846,-1.28028 -3.64952,-2.46462 -4.38521,-3.87275 -6.09557,-10.13167 -4.28182,-15.669 2.18123,-6.6592 7.67224,-10.66638 14.61609,-10.66638 1.91356,0 3.31894,0.18981 4.5099,0.60912 3.36536,1.18485 5.7091,2.76759 7.40985,5.0039 1.63058,2.14405 2.27085,3.43773 2.94588,5.95219 0.64831,2.41496 0.54897,5.39622 -0.27468,8.24359 -0.73429,2.53843 -1.1885,2.9112 -3.54721,2.9112 -1.08739,0 -2.06352,-0.0864 -2.16917,-0.19209 -0.10565,-0.10565 0.20182,-0.73587 0.68327,-1.40049 0.48145,-0.66462 1.14515,-2.29182 1.47489,-3.616 0.58107,-2.33343 0.58172,-2.47511 0.021,-4.59951 -0.8941,-3.38755 -2.28966,-5.44739 -4.81374,-7.10511 -2.8115,-1.84647 -6.1665,-2.3945 -9.02882,-1.47482 -2.17961,0.70032 -3.25705,1.33091 -4.83812,2.8316 -2.65923,2.52402 -3.89348,6.26471 -3.24572,9.83689 0.19994,1.1026 0.6532,2.57253 1.00724,3.26652 0.83877,1.64412 3.24941,4.02975 5.06542,5.01286 1.44,0.77956 1.44,0.77956 19.2,0.94985 C 508,455.52 508,455.52 508,457.44 c 0,1.92 0,1.92 -16.64,1.96236 -11.21918,0.0285 -17.26548,-0.0757 -18.56,-0.32 z m 0,-36.86352 c -1.75116,-0.3843 -3.40636,-1.04253 -5.6253,-2.23705 -1.21726,-0.65528 -3.96198,-3.66873 -4.75194,-5.21718 -1.15113,-2.25641 -1.93428,-5.21728 -1.93863,-7.32944 -0.009,-4.20967 1.83839,-8.37029 4.99776,-11.25777 2.95643,-2.70202 6.31676,-3.99952 10.35811,-3.99952 2.76714,0 4.35232,0.392 7.36,1.82005 1.79073,0.85024 5.11962,4.11956 6.04844,5.94022 2.4192,4.74201 2.55075,9.27523 0.4011,13.82185 -0.45589,0.96422 -0.70562,1.13436 -1.79546,1.22325 -0.69625,0.0568 -1.75428,0.0116 -2.35118,-0.10035 -1.01356,-0.19015 -1.05149,-0.24092 -0.57408,-0.76845 0.28115,-0.31066 0.51118,-0.68617 0.51118,-0.83445 0,-0.14828 0.19393,-0.49694 0.43095,-0.7748 0.7498,-0.87898 1.57207,-4.497 1.34555,-5.92046 -0.23996,-1.50788 -0.94638,-3.69532 -1.53105,-4.74093 -0.66589,-1.19086 -2.56309,-3.13875 -3.87963,-3.98329 -2.71137,-1.7393 -6.44035,-2.17368 -9.3936,-1.09423 -1.99168,0.72799 -3.41555,1.66906 -4.80736,3.17731 -1.41805,1.53668 -2.14943,3.05545 -2.60833,5.4164 -0.30498,1.5691 -0.30498,2.4309 0,4 0.21381,1.1 0.68593,2.576 1.04917,3.28 0.96518,1.87065 3.16923,3.92954 5.25142,4.90554 C 473.12,418.4 473.12,418.4 490.56,418.56 c 17.44,0.16 17.44,0.16 17.44,2.08 0,1.92 0,1.92 -16.64,1.9601 -12.7007,0.0306 -17.09453,-0.0597 -18.56,-0.38126 z m -19.02037,-36.75519 c -0.20831,-0.25099 -0.33394,-1.07899 -0.27918,-1.84 C 453.6,382.24 453.6,382.24 455.52,382.24 c 1.90699,0 1.92065,0.007 2.01565,0.978 0.0526,0.53791 -0.0518,1.36591 -0.23208,1.84 -0.28736,0.75583 -0.50124,0.862 -1.73647,0.862 -0.82938,0 -1.56449,-0.18768 -1.78747,-0.45635 z m 7.2241,0.0479 c -0.42856,-0.31337 -0.54234,-0.76393 -0.46547,-1.84315 0.10174,-1.4284 0.10174,-1.4284 15.3978,-1.51151 15.29606,-0.0831 15.29606,-0.0831 15.2,1.76 -0.0961,1.84311 -0.0961,1.84311 -14.83059,1.92626 -11.6665,0.0658 -14.85263,-0.003 -15.30174,-0.3316 z"
       id="path1" />
  </g>
</svg>
