<?xml version="1.0" encoding="UTF-8" standalone="no"?>
<!-- Created with Inkscape (http://www.inkscape.org/) -->

<svg
   version="1.1"
   id="svg1"
   width="546.88477"
   height="716.72723"
   viewBox="0 0 546.88476 716.72723"
   xmlns="http://www.w3.org/2000/svg"
   xmlns:svg="http://www.w3.org/2000/svg">
  <defs
     id="defs1" />
  <g
     id="g1"
     transform="translate(-112.64,-20.159996)">
    <path
       style="fill:#000000"
       d="m 135.94051,736.79387 c -0.0921,-0.0921 -1.30433,-0.37574 -2.69394,-0.63041 -2.54238,-0.46593 -4.17364,-0.97121 -5.46553,-1.69295 -0.38443,-0.21477 -0.84814,-0.39049 -1.03047,-0.39049 -0.70447,0 -5.08401,-3.26555 -6.95352,-5.18481 -3.4345,-3.52589 -5.28632,-6.84846 -6.54681,-11.74638 -0.59826,-2.32463 -0.61024,-8.4382 -0.61024,-311.38882 0,-303.36768 0.0112,-309.060985 0.61258,-311.388819 1.26104,-4.881239 3.46043,-8.7982 6.79563,-12.102504 2.00432,-1.985752 5.64472,-4.582195 6.99179,-4.986754 0.44,-0.132143 0.944,-0.351564 1.12,-0.487602 0.176,-0.136038 1.328,-0.586414 2.56,-1.000836 l 2.24,-0.753493 49.41552,-0.08689 c 32.04876,-0.05635 49.54982,-0.198355 49.79767,-0.404055 0.24066,-0.199724 0.44772,-1.826425 0.55921,-4.393111 0.24356,-5.607457 1.10861,-7.979352 3.87272,-10.618719 l 1.15489,-1.102774 V 39.463323 20.492192 l 0.72,-0.177576 c 0.396,-0.09767 3.024,-0.13641 5.84,-0.0861 l 5.12,0.09148 0.16,19.251109 0.16,19.251109 0.90115,0.708753 c 1.15252,0.906455 2.44055,2.913628 3.16797,4.936746 0.43352,1.205696 0.57088,2.556961 0.57088,5.616 0,2.706443 0.126,4.15429 0.384,4.412284 0.29741,0.297416 29.91241,0.384 131.34186,0.384 h 130.95786 l 0.49814,-0.711202 c 0.37708,-0.538355 0.49907,-1.568823 0.50194,-4.24 0.004,-3.490718 0.43912,-5.998926 1.30804,-7.536019 0.24649,-0.436029 1.13217,-1.540159 1.96817,-2.453624 l 1.52,-1.660844 v -18.86492 c 0,-16.907142 0.0525,-18.885077 0.50617,-19.059156 0.27839,-0.10683 2.86605,-0.194236 5.75036,-0.194236 h 5.24418 l 0.0896,19.128908 0.0897,19.128909 1.44,1.442882 c 1.79875,1.802354 2.56,2.843236 2.56,3.500387 0,0.281003 0.18,0.690674 0.4,0.910379 0.27343,0.273062 0.4345,1.908655 0.50904,5.168925 0.0748,3.270813 0.23295,4.872285 0.50335,5.096701 0.26381,0.218943 16.74828,0.359209 49.81096,0.42384 l 49.41665,0.0966 2.08,0.727252 c 1.144,0.399989 2.2168,0.864045 2.384,1.031236 0.1672,0.167191 0.53226,0.303983 0.81125,0.303983 0.92056,0 6.24373,3.734079 7.88819,5.533386 1.89027,2.06826 3.56283,4.543318 4.58616,6.786615 0.40143,0.88 0.92799,1.982218 1.17014,2.449373 0.24214,0.467156 0.44197,1.187156 0.44406,1.6 0.002,0.412845 0.21812,1.542627 0.48006,2.510627 0.42012,1.55253 0.47679,38.067331 0.4807,309.760011 0.004,272.99318 -0.0502,308.20005 -0.47626,309.76001 -0.26439,0.968 -0.48241,2.0199 -0.4845,2.33756 -0.003,0.52532 -0.33732,1.38085 -1.83508,4.70244 -0.84147,1.86614 -2.95243,4.78793 -4.85196,6.71565 -3.2795,3.32816 -8.09578,5.91841 -12.99676,6.9898 -1.99789,0.43676 -29.29018,0.50082 -252.50607,0.59273 -137.64633,0.0567 -250.34138,0.0277 -250.43344,-0.0643 z M 267.44717,406.40001 c 0.0479,-175.208 0.01,-318.880972 -0.0844,-319.273262 l -0.17157,-0.713254 -65.3556,0.0036 c -54.35245,0.003 -65.65191,0.0776 -67.1156,0.443234 -5.29323,1.322285 -9.09155,5.243805 -10.24731,10.579701 -0.36436,1.682171 -0.36749,614.356551 -0.003,616.380411 0.92716,5.15025 4.59299,9.13344 9.93046,10.79016 1.21518,0.37718 11.70704,0.43936 67.20001,0.39821 l 65.76,-0.0488 z m -36.40716,302.10846 c -4.55063,-1.08726 -6.54951,-2.03146 -9.34273,-4.41318 -2.58448,-2.20372 -4.77821,-5.25731 -6.04563,-8.41527 -1.083,-2.69845 -1.09148,-2.75929 -1.07103,-7.68 0.0167,-4.02254 0.1222,-5.14144 0.55803,-5.92 0.29558,-0.528 0.5383,-1.16216 0.53939,-1.40925 0.005,-1.04143 2.50401,-4.82409 4.48443,-6.78674 4.15476,-4.11746 8.42968,-5.96887 14.47754,-6.27001 l 2.8,-0.13942 v 15.34539 15.34539 l -0.72,0.19295 c -0.396,0.10612 -1.39372,0.19492 -2.21715,0.19732 -2.61215,0.008 -2.50285,0.55869 -2.50285,-12.6193 0,-9.51461 -0.0803,-11.68464 -0.44373,-11.98623 -1.0581,-0.87814 -5.5272,1.6644 -8.25751,4.69783 -5.0611,5.62298 -4.44964,15.44229 1.28418,20.62246 3.31854,2.9981 5.80486,3.92961 10.48861,3.92961 2.0392,0 3.87879,-0.15806 4.32,-0.37118 0.42265,-0.20415 1.46999,-0.69349 2.32743,-1.08742 2.51422,-1.15509 5.36113,-4.06274 6.79397,-6.93891 l 1.23671,-2.48249 0.005,-4.17407 c 0.004,-3.44237 -0.093,-4.3239 -0.55483,-5.02874 -0.308,-0.47007 -0.56,-1.01379 -0.56,-1.20827 0,-0.63939 -1.99146,-3.32128 -3.5704,-4.80825 -1.63422,-1.53902 -1.99813,-2.73006 -1.0696,-3.50067 0.264,-0.2191 0.48,-0.57163 0.48,-0.7834 0,-0.21177 0.35464,-0.71821 0.7881,-1.12542 0.76809,-0.72159 0.81004,-0.726 1.6524,-0.17407 3.5258,2.31019 6.22275,6.17329 7.82109,11.20289 0.8686,2.73329 0.8534,8.50397 -0.0298,11.3217 -1.37844,4.3976 -3.90865,8.03927 -7.51176,10.81149 -1.49142,1.14749 -5.97499,3.30681 -6.86619,3.30681 -0.33668,0 -0.94552,0.12514 -1.35298,0.27808 -1.65471,0.62109 -5.49342,0.65511 -7.94083,0.0704 z m 0.96,-48.97296 c -0.44,-0.14943 -1.2039,-0.28605 -1.69756,-0.30359 -0.81675,-0.029 -1.67831,-0.34917 -5.02244,-1.86625 -2.72008,-1.23397 -6.51325,-4.7668 -8.18991,-7.62782 -2.30032,-3.9252 -3.37006,-9.08151 -2.73653,-13.19056 0.48291,-3.13212 1.34364,-5.90908 2.1779,-7.02648 0.599,-0.80229 0.85798,-0.88101 3.25673,-0.98995 3.2064,-0.14561 3.4191,0.13956 1.98004,2.65477 -2.08634,3.64654 -2.72586,7.79324 -1.7466,11.32514 1.93426,6.97635 7.75226,11.57486 14.63292,11.56579 6.22944,-0.008 11.08431,-3.02898 13.88039,-8.63654 1.18678,-2.38011 1.19682,-2.43315 1.21088,-6.4 l 0.0142,-4 -1.25636,-2.56 c -1.33688,-2.72406 -3.93819,-5.60042 -5.9837,-6.61639 -0.96218,-0.4779 -1.55093,-0.73691 -3.95994,-1.74215 -0.352,-0.14688 -9.064,-0.3423 -19.36,-0.43426 l -18.72,-0.1672 v -2.56 -2.56 l 18.23948,-0.0827 c 17.11218,-0.0776 18.38784,-0.0446 20.64,0.53318 2.96525,0.76073 4.44041,1.37948 6.63347,2.78236 3.34129,2.1374 6.00555,5.1798 7.67747,8.76714 2.42915,5.21211 2.4341,11.71076 0.0131,17.23108 -1.82817,4.16858 -5.86652,8.23856 -10.00354,10.08188 -0.704,0.31368 -1.568,0.70849 -1.92,0.87737 -1.70899,0.8199 -8.26064,1.45436 -9.76,0.94516 z m -1.6,-49.51395 c -1.16554,-0.1913 -2.41837,-0.67477 -5.12,-1.97584 -3.41491,-1.64456 -7.07294,-5.33478 -8.76854,-8.8457 -1.73432,-3.59112 -1.72277,-3.55645 -2.13118,-6.39775 -0.56763,-3.94899 0.23068,-9.20691 1.84661,-12.16225 0.74256,-1.35807 0.93232,-1.43226 3.61311,-1.41261 2.50437,0.0184 3.9159,0.33015 3.27837,0.72417 -0.68875,0.42567 -2.3663,3.73807 -2.98006,5.88428 -2.39332,8.36899 3.12796,16.98056 12.03373,18.76911 2.28607,0.45911 2.69477,0.44632 6.01897,-0.18834 4.3609,-0.8326 8.17673,-3.87669 10.34986,-8.25661 1.17918,-2.37664 1.19091,-2.43894 1.20495,-6.4 0.0113,-3.20137 -0.0976,-4.21746 -0.54582,-5.08917 -0.308,-0.59904 -0.56,-1.20085 -0.56,-1.33737 0,-0.13651 -0.58279,-1.12561 -1.29509,-2.19799 -2.14707,-3.23249 -5.3176,-5.32062 -9.6695,-6.3684 -1.05045,-0.25291 -6.93883,-0.36707 -18.93383,-0.36707 -9.57508,0 -17.63702,-0.0874 -17.91541,-0.19424 -0.39824,-0.15282 -0.50617,-0.69739 -0.50617,-2.5539 0,-2.20459 0.049,-2.37197 0.74604,-2.54691 0.41032,-0.10299 9.08632,-0.13104 19.28,-0.0623 17.8237,0.12013 18.60754,0.15063 20.45396,0.79598 9.21199,3.2197 14.6375,10.60375 14.6375,19.92141 0,3.45772 -0.43315,5.57937 -1.75396,8.59108 -2.36314,5.38843 -7.69961,9.87853 -13.5524,11.40299 -1.74015,0.45325 -7.61534,0.61474 -9.73114,0.26747 z m -15.76,-48.96213 c -0.46465,-0.12142 -0.56,-0.51988 -0.56,-2.34002 0,-1.56759 0.14352,-2.3372 0.50285,-2.69654 0.4464,-0.44639 2.74461,-0.50285 20.46875,-0.50285 19.41217,0 19.97507,0.0172 20.29714,0.61896 0.45594,0.85194 0.41787,4.28643 -0.0527,4.75704 -0.29123,0.29122 -5.18115,0.37503 -20.24,0.34688 -10.9208,-0.0204 -20.108,-0.10298 -20.416,-0.18347 z m -9.24841,-0.73449 c -2.25886,-2.48685 0.998,-5.99066 3.60568,-3.87908 0.95909,0.77662 1.03815,2.86263 0.14586,3.8486 -0.77867,0.86041 -2.98144,0.87831 -3.75154,0.0305 z m 26.85507,-17.03209 -0.0867,-6.49283 -6.49284,-0.0867 -6.49283,-0.0867 0.0928,-2.63333 0.0928,-2.63333 6.48,-0.0866 6.48,-0.0866 v -6.40632 -6.40632 l 2.64,0.0929 2.64,0.0929 0.0867,6.31325 0.0867,6.31326 6.31326,0.0867 6.31326,0.0867 0.0929,2.64 0.0929,2.64 h -6.40631 -6.40632 l -0.0866,6.48 -0.0866,6.48 -2.63334,0.0928 -2.63333,0.0928 z M 496.48002,405.76001 V 86.560003 l -110.4452,-0.08046 -110.4452,-0.08046 -0.18746,0.746894 c -0.36599,1.458239 -0.19333,637.119103 0.17318,637.560723 0.28036,0.33781 20.69183,0.39939 110.62424,0.33378 l 110.28044,-0.0805 z m -115.68001,284.812 c -0.264,-0.1643 -0.90576,-0.48621 -1.42614,-0.71536 -0.52037,-0.22914 -1.37186,-1.02323 -1.8922,-1.76464 -0.84923,-1.21004 -0.94447,-1.59353 -0.93059,-3.74696 l 0.0155,-2.39896 2.18645,-2.81303 c 1.20255,-1.54717 2.36891,-3.00115 2.5919,-3.23106 1.09167,-1.12552 3.25167,-4.17232 3.34717,-4.72135 0.10339,-0.59441 -0.19084,-0.62806 -6.96513,-0.79658 l -7.07308,-0.17595 -1.30835,-1.03623 c -2.10808,-1.66963 -2.6966,-2.89707 -2.6966,-5.62416 0,-2.27626 0.41627,-3.49694 1.53718,-4.50771 0.19518,-0.176 1.00929,-1.184 1.80913,-2.24 0.79985,-1.056 1.77401,-2.28 2.1648,-2.72 0.3908,-0.44 1.37365,-1.664 2.18411,-2.72 0.81046,-1.056 1.6363,-2.064 1.8352,-2.24 0.1989,-0.176 1.01605,-1.184 1.81589,-2.24 0.79985,-1.056 1.77401,-2.28 2.1648,-2.72 0.3908,-0.44 1.37867,-1.66393 2.19527,-2.71985 1.73577,-2.24447 2.16702,-2.69327 3.28323,-3.41687 1.98689,-1.28804 5.87978,-1.12697 7.49617,0.31015 1.79825,1.59882 2.38533,2.94033 2.38533,5.45056 v 2.26844 l -2.32,3.01301 c -1.276,1.65715 -3.16984,4.04631 -4.20854,5.30924 -1.37063,1.66654 -1.79224,2.39254 -1.5374,2.64737 0.21246,0.21247 2.79062,0.44538 6.52853,0.58978 7.05316,0.27248 7.75325,0.39273 9.01369,1.5482 1.83699,1.68401 2.44496,3.03356 2.42984,5.39361 -0.0164,2.5672 -0.27706,3.0648 -3.98612,7.61075 -1.408,1.7257 -3.40976,4.23068 -4.44836,5.56662 -1.03859,1.33595 -1.97804,2.50099 -2.08765,2.58899 -0.10961,0.088 -0.98441,1.168 -1.94399,2.4 -0.95958,1.232 -1.82775,2.312 -1.92926,2.4 -0.10151,0.088 -0.60737,0.736 -1.12413,1.44 -1.42426,1.94033 -2.74633,3.15145 -3.98661,3.65207 -1.36614,0.55143 -4.46253,0.76909 -5.12,0.35992 z m 4.62658,-2.92773 c 0.5424,-0.37166 1.52402,-1.4179 2.18138,-2.32498 0.65737,-0.90708 1.52525,-2.007 1.92863,-2.44426 0.40339,-0.43726 1.51126,-1.80302 2.46194,-3.03502 0.95069,-1.232 1.95193,-2.46441 2.225,-2.7387 0.95184,-0.9561 4.17647,-5.30795 4.17647,-5.63643 0,-0.64157 -8.49035,-1.01873 -9.59726,-0.42634 -0.32735,0.1752 -1.77341,1.7952 -3.21346,3.6 -1.44005,1.80481 -2.92675,3.63878 -3.30378,4.07549 -1.47204,1.70507 -3.03672,3.91568 -3.41086,4.81893 -0.45765,1.10486 -0.0681,2.35032 1.21024,3.86957 0.68058,0.80882 0.98422,0.91748 2.56377,0.91748 1.29866,0 2.06314,-0.18596 2.77793,-0.67574 z m 2.80339,-20.52426 c 0.61072,-0.572 1.87837,-2.048 2.81699,-3.28 0.93863,-1.232 1.9253,-2.42054 2.19262,-2.6412 0.98018,-0.80911 -0.14884,-1.19382 -3.83775,-1.30772 -1.94029,-0.0599 -3.84806,-0.0285 -4.23949,0.0697 -1.21852,0.30583 -6.82819,7.2549 -6.40687,7.93661 0.0893,0.14444 2.0077,0.26261 4.2632,0.26261 h 4.10089 z m 13.13712,0.0567 c 1.12516,-0.92745 1.19231,-1.08647 1.18227,-2.8 -0.0114,-1.93772 -0.3864,-2.63105 -1.9781,-3.65683 -0.47781,-0.30793 -1.27238,-0.55987 -1.76572,-0.55987 -0.88259,0 -3.28554,1.37627 -3.28554,1.88176 0,0.14229 -0.36512,0.67709 -0.81138,1.18847 -1.99299,2.2838 -3.38751,4.28795 -3.19753,4.59536 0.12686,0.20525 1.83976,0.33441 4.43489,0.33441 h 4.2282 z m -25.41389,-0.7127 c 0.41821,-0.3872 1.69453,-1.89552 2.83627,-3.35183 2.70637,-3.45203 2.61434,-3.59217 -2.35893,-3.59217 -5.53527,0 -6.99054,0.86764 -6.99054,4.16782 0,1.51771 0.13996,2.00959 0.75938,2.66895 1.25933,1.34048 4.35939,1.39826 5.75382,0.10723 z m 9.54917,-11.70186 c 1.1977,-1.38483 2.49114,-2.93283 2.87433,-3.44 0.38318,-0.50718 0.96133,-1.21014 1.28478,-1.56214 1.28272,-1.39594 2.87381,-3.56661 3.23621,-4.41506 0.839,-1.96425 0.0538,-4.13425 -1.93476,-5.34667 -2.34152,-1.42764 -4.09219,-0.46856 -7.6663,4.19986 -1.73223,2.2626 -4.71312,5.94553 -6.83268,8.44187 -2.23562,2.63304 -3.10079,3.93679 -2.8653,4.31782 0.11922,0.1929 2.11061,0.32218 4.96261,0.32218 h 4.76348 z M 317.76001,387.95135 c -2.45521,-0.80887 -4.72992,-1.95561 -6.23161,-3.14152 -1.66481,-1.31474 -3.68419,-3.36703 -3.68686,-3.74696 -8.4e-4,-0.11943 -0.1901,-0.40743 -0.42057,-0.64 -1.54238,-1.55644 -2.77174,-5.79145 -2.77683,-9.56585 -0.007,-5.21487 1.73505,-9.14439 5.6839,-12.82089 3.01334,-2.8055 7.67037,-4.70582 11.59197,-4.73014 1.73768,-0.0108 5.33356,0.7918 7.2,1.60699 4.43086,1.93522 7.76439,5.69913 9.60676,10.84703 0.81457,2.27607 0.98066,6.86526 0.33075,9.13908 -1.77387,6.20614 -5.80302,10.55567 -11.65378,12.58045 -1.5774,0.54589 -2.67802,0.67548 -5.565,0.65521 -1.9793,-0.0139 -3.81473,-0.0964 -4.07873,-0.1834 z m 9.34492,-4.29693 c 3.05706,-1.20498 5.73105,-3.74967 7.3703,-7.01393 0.9919,-1.97518 1.04478,-2.26015 1.04478,-5.63056 0,-2.31638 -0.15071,-3.87324 -0.43369,-4.48 -0.23853,-0.51146 -0.67053,-1.43392 -0.96,-2.04992 -0.28947,-0.616 -1.08807,-1.7357 -1.77466,-2.48823 -4.66197,-5.10971 -10.90997,-6.23249 -17.15165,-3.08221 -1.70506,0.86058 -4.61569,4.00734 -5.64248,6.10025 -0.86135,1.7557 -0.91752,2.11507 -0.91752,5.87019 0,3.71328 0.0629,4.12797 0.87735,5.78529 1.80283,3.66848 5.96315,7.02249 9.51911,7.67421 2.16109,0.39607 6.19438,0.0536 8.06846,-0.68509 z m 33.05508,3.90492 c -6.49179,-2.34345 -10.6859,-7.28991 -11.85227,-13.97836 -0.42996,-2.46558 -0.42762,-3.02516 0.0227,-5.42839 0.70175,-3.745 1.74437,-5.93013 4.18497,-8.77084 2.39009,-2.78193 5.47068,-4.58077 9.61078,-5.612 2.58705,-0.64438 4.57279,-0.60797 7.36556,0.13506 3.7151,0.98841 5.76055,2.1338 8.26082,4.62579 4.35933,4.34489 6.10774,10.09463 4.82569,15.86953 -0.83257,3.75029 -2.0071,6.01574 -4.45504,8.593 -2.00175,2.10749 -4.09858,3.41328 -7.21022,4.49013 -2.61068,0.90348 -8.3485,0.94408 -10.753,0.0761 z m 10.36947,-3.86729 c 4.41166,-1.73892 7.33876,-5.28661 8.52465,-10.33204 0.55838,-2.37565 0.55936,-2.57987 0.0233,-4.85371 -0.61561,-2.61128 -1.27918,-4.08643 -2.64183,-5.87295 -4.23053,-5.54652 -11.21921,-7.01455 -17.71559,-3.72129 -1.61008,0.81621 -4.55665,3.8812 -5.3823,5.59861 -0.90607,1.88471 -1.6577,4.77266 -1.6577,6.36934 0,2.18515 1.18806,5.95812 2.4,7.62177 2.13557,2.93154 5.6557,5.34042 8.5592,5.85719 2.16447,0.38523 6.05528,0.0564 7.89027,-0.66692 z m 31.07053,3.82394 c -3.37932,-1.19224 -6.25317,-3.25452 -8.36443,-6.00232 -2.45081,-3.18972 -3.54277,-6.45514 -3.5559,-10.63366 -0.0183,-5.83007 2.7687,-11.09898 7.67705,-14.51356 0.9222,-0.64154 1.83166,-1.16644 2.02104,-1.16644 0.18937,0 0.65885,-0.17431 1.04328,-0.38736 1.18585,-0.65718 4.77469,-1.49479 6.48777,-1.51419 1.71826,-0.0195 5.60584,0.86818 7.49119,1.71045 4.32368,1.93157 7.44808,5.529 9.4764,10.9111 0.81014,2.14968 0.81417,7.60621 0.007,9.92 -1.99394,5.71804 -6.1066,9.92869 -11.37074,11.64169 -2.86134,0.93111 -8.32239,0.94826 -10.91299,0.0343 z m 10.68724,-3.90549 c 2.66446,-1.12053 5.40294,-3.51409 6.65347,-5.81543 1.55071,-2.85376 1.69956,-3.48235 1.68634,-7.12149 -0.008,-2.06885 -0.15903,-3.74848 -0.36084,-4 -0.19133,-0.23846 -0.4515,-0.77108 -0.57814,-1.1836 -0.60487,-1.97026 -3.82628,-5.51971 -6.06017,-6.67729 -6.33904,-3.28481 -13.60767,-1.56899 -17.74661,4.18923 -4.81896,6.70429 -2.52345,16.06695 4.91517,20.04749 1.05406,0.56404 2.56606,1.14459 3.36,1.2901 2.24834,0.41206 6.27624,0.0509 8.13078,-0.72901 z m 32.99276,3.94884 c -6.63455,-2.39498 -10.73169,-7.21048 -11.87692,-13.95933 -1.22529,-7.22061 2.43523,-14.61785 8.93509,-18.05618 2.31467,-1.22442 6.08959,-2.26382 8.22183,-2.26382 1.64308,0 6.35009,1.10209 6.85241,1.6044 0.17358,0.17358 0.50427,0.3156 0.73488,0.3156 0.4878,0 3.36055,1.93945 4.68102,3.16025 1.03601,0.95781 3.73169,4.85167 3.73169,5.39036 0,0.19664 0.20359,0.7652 0.45242,1.26346 0.51626,1.03379 1.14758,4.26084 1.14758,5.86593 0,4.24311 -1.89423,8.82554 -4.96,11.99897 -2.19315,2.27018 -4.24901,3.59488 -7.12127,4.58863 -2.6571,0.91931 -8.37172,0.96785 -10.79873,0.0917 z m 9.8836,-3.73302 c 0.5141,-0.25647 1.09932,-0.46631 1.30048,-0.46631 1.03239,0 5.67747,-4.53899 6.43099,-6.28412 2.59375,-6.00697 1.46725,-12.07329 -3.00017,-16.15626 -3.97633,-3.63414 -8.95329,-4.74064 -13.65186,-3.03515 -11.56459,4.19772 -12.72732,19.38526 -1.92658,25.16493 1.05406,0.56404 2.56606,1.14459 3.36,1.2901 1.96005,0.35922 6.34016,0.059 7.48714,-0.51319 z M 315.66546,344.81456 c -0.432,-0.432 -0.78545,-0.936 -0.78545,-1.12 0,-0.184 0.86073,-1.19528 1.91274,-2.24729 1.40724,-1.40724 1.8565,-2.06266 1.69991,-2.48 -0.11706,-0.31199 -0.97779,-1.34215 -1.91274,-2.28923 -0.93495,-0.94709 -1.69991,-1.85364 -1.69991,-2.01455 0,-0.46472 1.52426,-1.86348 2.03067,-1.86348 0.25287,0 1.25176,0.792 2.21976,1.76 0.968,0.968 2.00702,1.76 2.30894,1.76 0.30191,0 1.21756,-0.69826 2.03478,-1.55169 1.78344,-1.86247 2.44458,-2.14758 3.45094,-1.48819 1.20788,0.79143 0.96318,1.83943 -0.84509,3.61941 -0.89596,0.88194 -1.6,1.866 -1.6,2.23638 0,0.36379 0.72,1.40063 1.6,2.30409 1.81568,1.86409 2.04461,2.89393 0.82146,3.69537 -0.97375,0.63802 -1.62388,0.33429 -3.5198,-1.64439 -0.74357,-0.77604 -1.60829,-1.41098 -1.92159,-1.41098 -0.3133,0 -1.36164,0.792 -2.32964,1.76 -0.968,0.968 -1.96689,1.76 -2.21976,1.76 -0.25287,0 -0.81322,-0.35345 -1.24522,-0.78545 z m 48.16663,-0.35538 c -0.17164,-0.45146 -0.31208,-2.22746 -0.31208,-3.94667 0,-1.71921 -0.091,-3.21683 -0.20221,-3.32805 -0.11122,-0.11121 -0.80958,0.44079 -1.55192,1.22667 -1.43426,1.5184 -2.07327,1.73522 -2.74139,0.93017 -0.35543,-0.42826 -0.0116,-0.90285 2.43414,-3.36 1.56642,-1.57371 3.07022,-2.86129 3.34177,-2.86129 0.7919,0 5.75961,5.18082 5.75961,6.00668 0,1.12827 -1.18177,0.88537 -2.75706,-0.56668 -0.76375,-0.704 -1.53586,-1.28 -1.71579,-1.28 -0.20356,0 -0.32715,1.36598 -0.32715,3.616 0,3.60343 -0.21222,4.384 -1.19192,4.384 -0.23315,0 -0.56435,-0.36937 -0.736,-0.82083 z m 40.46257,-2.53699 c -1.7605,-1.74472 -2.7039,-2.9178 -2.63486,-3.27633 0.19579,-1.01661 1.21099,-0.81586 2.66858,0.5277 0.77953,0.71855 1.56455,1.30645 1.74448,1.30645 0.20197,0 0.32715,-1.27774 0.32715,-3.33917 0,-3.53475 0.3196,-4.98083 1.10082,-4.98083 0.85735,0 1.13918,1.18233 1.13918,4.77896 0,2.23518 0.12257,3.54104 0.33237,3.54104 0.1828,0 0.93181,-0.576 1.66446,-1.28 1.4001,-1.34534 2.37158,-1.62316 2.69833,-0.77165 0.13513,0.35213 -0.67715,1.38462 -2.64337,3.36 -1.56114,1.56841 -3.02211,2.85165 -3.24659,2.85165 -0.22448,0 -1.64223,-1.22302 -3.15055,-2.71782 z m 41.06163,5.6e-4 c -1.36195,-1.3185 -2.47628,-2.59218 -2.47628,-2.83041 0,-0.49828 1.00622,-1.49233 1.51059,-1.49233 0.18711,0 1.07,0.65616 1.96198,1.45812 1.30614,1.17434 1.73327,1.39657 2.19461,1.14186 0.31505,-0.17395 1.86582,-1.6221 3.44615,-3.21812 3.10147,-3.13226 4.04324,-3.55405 4.70289,-2.10626 0.32778,0.7194 0.22753,0.94158 -1.04686,2.32 -2.1384,2.31295 -7.23232,7.1244 -7.54267,7.1244 -0.15077,0 -1.38846,-1.07877 -2.75041,-2.39726 z M 317.60001,316.12798 c -4.07462,-0.3493 -7.94995,-3.2065 -9.8748,-7.28047 l -1.0052,-2.1275 -0.0853,-36.63774 c -0.0779,-33.46286 -0.0391,-36.78478 0.44841,-38.33464 0.74188,-2.35864 2.52151,-4.75778 4.5721,-6.1637 3.5018,-2.40091 -2.31266,-2.22392 73.06101,-2.22392 66.18234,0 67.65202,0.0132 69.79865,0.62708 4.11965,1.17811 7.06115,4.21363 8.38492,8.65292 0.59801,2.00542 0.62024,3.39947 0.62024,38.88 0,34.41775 -0.0361,36.86215 -0.55802,37.76 -0.30692,0.528 -0.55892,1.10892 -0.56,1.29093 -0.003,0.47041 -3.17632,3.42576 -4.32198,4.02486 -0.528,0.27611 -1.752,0.74147 -2.72,1.03414 -1.61318,0.48773 -7.33888,0.53871 -68.64,0.6111 -36.784,0.0434 -67.888,-0.007 -69.12,-0.11306 z m 136.28538,-4.74869 c 2.58272,-0.70509 3.53961,-1.34289 4.79363,-3.19508 l 0.91901,-1.35738 -0.0288,-35.85763 c -0.0197,-24.57611 -0.13708,-36.22126 -0.373,-37.01341 -0.89543,-3.0067 -2.95238,-5.33597 -5.27624,-5.97476 -1.40066,-0.38502 -136.6674,-0.1656 -138.1884,0.22416 -0.73912,0.1894 -1.77075,0.85713 -2.59002,1.6764 -2.57364,2.57364 -2.42158,0.12744 -2.42158,38.95557 0,30.15765 0.0628,34.75406 0.50089,36.64293 0.58194,2.50928 1.33442,3.69642 3.01577,4.75781 2.79614,1.76513 -0.8026,1.67839 71.04334,1.71222 64.06451,0.0302 66.47757,0.0101 68.60538,-0.57083 z m 183.85762,413.1058 c 3.78401,-1.12693 7.08046,-3.95172 8.873,-7.60343 l 0.90401,-1.84164 V 405.76001 96.480003 l -1.07761,-2.147162 c -1.2184,-2.427694 -3.90149,-5.199775 -6.13666,-6.340197 -3.20553,-1.635516 -0.35686,-1.571675 -70.30573,-1.575607 l -65.36,-0.0037 V 405.76669 725.12002 h 65.4855 c 64.38167,0 65.52144,-0.0107 67.61749,-0.63493 z"
       id="path1" />
  </g>
</svg>
