<?xml version="1.0" encoding="UTF-8" standalone="no"?>
<!-- Created with Inkscape (http://www.inkscape.org/) -->

<svg
   width="167.21661mm"
   height="151.87074mm"
   viewBox="0 0 167.21661 151.87074"
   version="1.1"
   id="svg1"
   xml:space="preserve"
   xmlns="http://www.w3.org/2000/svg"
   xmlns:svg="http://www.w3.org/2000/svg"><defs
     id="defs1" /><g
     id="layer1"
     transform="translate(-17.932129,-33.258414)"><path
       style="fill:#000000"
       d="m 38.437339,184.81299 c -0.722117,-0.40948 -0.917238,-0.74853 -0.92199,-1.60206 l -0.0041,-0.72761 0.529167,-0.52916 0.529167,-0.52917 h 9.921875 9.921875 V 133.98633 86.547667 L 46.970152,76.045223 35.526922,65.542779 l -8.797396,-0.0026 -8.797396,-0.0026 v -5.820834 -5.820833 h 4.233333 4.233334 v -2.65786 -2.65786 l 0.649432,-0.649432 0.649431,-0.649431 h 1.681928 1.681929 l 0.579056,0.539473 0.579057,0.539474 v 1.78808 1.788079 l 1.003343,0.979739 1.003343,0.979738 h 4.156033 4.156032 v -2.895414 -2.895414 l 0.588038,-0.411878 0.588038,-0.411877 h 1.66092 1.660921 l 0.529166,0.529166 0.529167,0.529167 v 1.932472 1.932473 l 0.879667,0.852606 0.879666,0.852607 4.213563,-0.0731 4.213563,-0.0731 0.06925,-10.252604 0.06925,-10.252604 h 5.817727 5.817726 v 10.31875 10.31875 h 5.027084 5.027083 v -2.778125 -2.778125 l 0.529167,-0.529167 0.529167,-0.529166 h 1.731818 1.731818 l 0.649432,0.649431 0.649432,0.649432 v 1.812208 1.812207 l 0.872492,0.845652 0.872492,0.845653 h 4.154592 4.154591 v -2.65786 -2.65786 l 0.649432,-0.649432 0.649432,-0.649431 h 1.685697 1.685708 l 0.57528,0.612365 0.57529,0.612365 v 2.257044 2.257045 l 0.48385,0.437882 0.48386,0.437882 h 3.74948 3.74948 l 0.004,2.976562 c 0.005,3.689748 -0.14538,3.511999 6.86883,8.117702 8.04298,5.281215 23.07355,11.924486 26.97945,11.924486 h 0.27892 V 71.226031 65.53749 h 4.49791 4.49792 v 6.575759 6.575759 l 2.0243,0.171116 c 4.3021,0.363661 5.9132,0.202346 5.9132,-0.59207 0,-0.243094 0.18535,-0.706605 0.41188,-1.030026 L 162.16,76.64999 h 1.38964 1.38964 l 0.43098,0.330729 0.43099,0.330729 0.0826,0.789896 0.0826,0.789895 1.19063,-0.0774 c 0.65484,-0.04257 2.37931,-0.261846 3.83216,-0.487274 l 2.64155,-0.40987 0.58697,-0.633351 0.58697,-0.63335 h 1.45283 1.45284 l 0.41188,0.588038 0.41188,0.588038 v 2.057795 2.057795 h 3.30729 3.30729 v 4.497917 4.497917 h -6.88876 -6.88876 l -8.98624,8.257407 -8.98624,8.257399 v 36.98635 36.98634 h 9.80161 9.80161 l 0.64943,0.64943 0.64944,0.64943 v 0.55322 0.55322 l -0.64944,0.64943 -0.64943,0.64944 -67.01776,-0.008 -67.017759,-0.008 z m 105.950891,-40.29788 -0.0412,-36.90987 -1.62567,-1.557 c -0.89411,-0.85635 -4.95158,-4.60659 -9.0166,-8.333872 l -7.39093,-6.776878 h -6.96271 -6.96272 V 86.7661 82.594711 l -2.93866,0.100584 c -7.25889,0.248455 -17.833657,-0.943141 -26.896867,-3.03082 l -4.038654,-0.930289 -0.758224,0.611547 c -0.417024,0.336352 -2.318169,2.040298 -4.224768,3.786548 l -3.466544,3.175 -0.0048,47.558859 -0.0048,47.55885 h 37.187197 37.1872 z m 0.0147,-47.897383 v -5.432262 l -0.33699,-0.129314 c -0.18534,-0.07112 -2.95062,-0.09715 -6.14505,-0.05784 l -5.80806,0.07147 5.94661,5.486488 c 3.27064,3.017568 6.03591,5.488111 6.14505,5.490101 l 0.19844,0.004 z m 14.37374,0.765675 c 2.79022,-2.566623 5.48787,-5.066935 5.99477,-5.55625 l 0.92163,-0.889662 h -6.14716 -6.14715 v 5.55625 c 0,3.055937 0.0686,5.55625 0.15239,5.55625 0.0838,0 2.43529,-2.099965 5.22552,-4.666588 z m -27.0737,-16.176326 v -0.734581 l -2.57969,0.214041 c -1.41883,0.117723 -3.20477,0.278258 -3.96875,0.356744 l -1.38906,0.142703 v 0.377837 0.377836 h 3.96875 3.96875 z m 12.55641,0.488279 c 0.2466,-0.399005 -0.0991,-0.486747 -3.70224,-0.939796 -1.88662,-0.237216 -3.63857,-0.492129 -3.89323,-0.566474 l -0.46303,-0.135171 v 0.767482 c 0,1.117396 0.0106,1.12026 4.12953,1.12026 h 3.77674 z M 161.3363,81.280198 V 80.61874 l -1.12448,-3.82e-4 c -0.61846,-2.11e-4 -2.4044,0.138263 -3.96875,0.307719 l -2.84427,0.308102 v 0.353738 0.353739 h 3.96875 3.96875 z m 12.56771,-0.661458 v -1.190625 l -0.36964,0.07912 c -0.2033,0.04351 -2.019,0.281606 -4.03489,0.529094 l -3.66526,0.449978 v 0.551288 c 0,0.885895 0.17642,0.921225 4.21807,0.844701 l 3.85172,-0.07293 z m -61.51563,0.376295 c -0.21828,-0.05032 -2.12328,-0.282005 -4.23333,-0.51486 -7.21957,-0.796715 -14.93577,-2.465839 -21.816724,-4.719269 l -3.475027,-1.138029 -1.564546,1.399316 c -0.860501,0.769623 -1.49753,1.466332 -1.415622,1.54824 0.539374,0.539374 12.082374,2.625387 17.556293,3.172716 l 3.439586,0.343918 5.95312,-2.72e-4 c 3.27422,-1.5e-4 5.77453,-0.04144 5.55625,-0.09176 z m 6.88322,-2.162233 c 0.002,-0.691224 0.113,-1.428971 0.24615,-1.639438 l 0.2421,-0.382668 1.27521,-0.146499 1.2752,-0.146499 -3.30729,-1.307679 c -4.20945,-1.664385 -12.0039,-5.596003 -15.65245,-7.895291 l -2.82015,-1.777238 -3.926724,0.0048 -3.926722,0.0048 -4.167187,3.852894 c -4.916317,4.545523 -4.773325,4.122087 -1.719792,5.092749 10.464854,3.326586 21.489615,5.297971 31.088545,5.559078 l 1.38906,0.03778 z m 10.11626,0.836293 2.31511,-0.171277 v -0.233289 c 0,-0.128309 -0.22073,-0.233289 -0.49052,-0.233289 -0.26978,0 -2.10363,-0.47625 -4.0752,-1.058334 -3.93297,-1.161156 -4.15399,-1.205538 -3.68928,-0.740833 l 0.3175,0.3175 v 1.300823 1.300823 l 1.65364,-0.155423 c 0.90951,-0.08548 2.69545,-0.232498 3.96875,-0.326701 z m 14.88282,-0.617932 v -0.597437 l -3.96875,-1.14326 c -9.00323,-2.59352 -18.37677,-7.184489 -26.78136,-13.11696 -3.55618,-2.510166 -3.24885,-2.47389 -3.24885,-0.383488 v 1.712112 l -3.50573,0.07383 -3.50573,0.07382 2.77812,1.625483 c 7.56779,4.427919 15.72285,7.879602 23.36059,9.887528 l 2.32622,0.61155 0.40077,-0.572176 0.40076,-0.572176 h 1.32531 c 0.72892,0 1.55561,0.123251 1.83708,0.273892 l 0.51177,0.273892 v 0.760536 0.760535 l 1.78594,0.285984 c 5.35643,0.857727 6.28386,0.864566 6.28386,0.04633 z M 58.413381,75.482465 V 71.404524 L 54.77536,69.49134 C 52.774449,68.439089 50.38103,67.119006 49.456652,66.557823 L 47.775965,65.53749 H 45.399707 43.02345 l 0.0882,0.225867 c 0.139416,0.357048 14.82593,13.797049 15.076676,13.797049 h 0.22506 z m 13.831766,2.294098 0.73489,-0.773864 -1.093159,-0.327518 c -0.601237,-0.180135 -1.25936,-0.391296 -1.462494,-0.469246 l -0.369336,-0.141727 v 1.766116 1.766115 l 0.727605,-0.523006 c 0.400182,-0.287654 1.058304,-0.871246 1.462494,-1.29687 z m 3.83865,-3.547443 c 0.914718,-0.889416 1.629093,-1.640133 1.5875,-1.668261 -0.04159,-0.02813 -0.703554,-0.314742 -1.471025,-0.636921 -0.767471,-0.322178 -2.467999,-1.103131 -3.778951,-1.73545 l -2.383549,-1.149671 0.07478,2.812839 0.07478,2.812839 1.5875,0.580145 c 0.873125,0.319079 1.825625,0.584971 2.116667,0.590872 l 0.529167,0.01073 z m 7.191869,-6.624479 2.240408,-2.067151 h -7.730513 -7.730513 v 1.019959 1.01996 l 2.447396,1.145161 c 1.346068,0.629839 3.333,1.533692 4.415406,2.008563 l 1.968009,0.863402 1.074699,-0.961371 c 0.591085,-0.528755 2.082883,-1.89159 3.315108,-3.028523 z m -24.916839,-0.01663 -0.07774,-1.918229 -3.830864,-0.07378 -3.830863,-0.07378 0.258988,0.246653 c 0.428812,0.408387 6.847059,3.729074 7.215892,3.733374 l 0.342321,0.004 z"
       id="path1" /></g></svg>
