<?xml version="1.0" encoding="UTF-8" standalone="no"?>
<!-- Created with Inkscape (http://www.inkscape.org/) -->

<svg
   version="1.1"
   id="svg1"
   width="559.98712"
   height="559.93707"
   viewBox="0 0 559.98712 559.93707"
   xmlns="http://www.w3.org/2000/svg"
   xmlns:svg="http://www.w3.org/2000/svg">
  <defs
     id="defs1" />
  <g
     id="g1"
     transform="translate(-38.074261,-46.071163)">
    <path
       style="fill:#000000"
       d="m 137.12,605.74578 c -1.232,-0.13219 -3.752,-0.3982 -5.6,-0.59113 -5.2733,-0.55052 -13.04734,-2.22169 -17.28,-3.71465 -0.616,-0.21728 -1.984,-0.64743 -3.04,-0.95589 -1.78959,-0.52274 -4.26774,-1.41904 -5.76,-2.08328 -0.352,-0.15668 -1.936,-0.82115 -3.52,-1.47659 -1.584,-0.65544 -3.023997,-1.29339 -3.199997,-1.41767 -0.176,-0.12428 -1.76,-0.97917 -3.52,-1.89976 C 87.505214,589.58195 82.907859,586.44076 75.051311,579.84 69.164965,574.89452 60.887014,565.56626 56.716172,559.17848 56.494066,558.83832 55.794494,557.768 55.161569,556.8 c -1.141651,-1.74605 -1.794415,-2.88495 -4.126694,-7.2 -2.349402,-4.34673 -3.93213,-7.74936 -5.358516,-11.52 -1.227075,-3.24377 -1.485353,-3.99103 -2.156743,-6.24 -0.394062,-1.32 -0.895237,-2.976 -1.11372,-3.68 -0.783348,-2.52411 -1.670952,-6.53666 -2.700992,-12.21023 -0.196734,-1.08363 -0.507315,-3.96363 -0.690182,-6.4 -0.182867,-2.43638 -0.467988,-4.56657 -0.633603,-4.73377 -0.409403,-0.41332 -0.409014,-356.17647 3.91e-4,-356.94145 0.16583,-0.30986 0.450952,-2.54578 0.633603,-4.96873 0.321984,-4.27124 0.574572,-6.06403 1.468912,-10.42582 0.234565,-1.144 0.520756,-2.656 0.635981,-3.36 0.187445,-1.14525 0.679634,-2.94944 1.440402,-5.28 0.14363,-0.44 0.579416,-1.88 0.968415,-3.2 1.047614,-3.5549 2.094747,-6.3477 4.139344,-11.04 0.709215,-1.62763 1.745649,-3.6633 3.910178,-7.68 0.663903,-1.232 1.307852,-2.456 1.430998,-2.72 0.123147,-0.264 0.59148,-1.056 1.040742,-1.76 0.449262,-0.704 0.963783,-1.533566 1.143379,-1.84348 0.895445,-1.545195 4.339044,-6.380691 5.759509,-8.087496 0.883866,-1.062036 2.106749,-2.574036 2.717517,-3.36 C 65.127236,82.274422 74.318474,73.071886 76.143482,71.660703 76.926395,71.055316 78.437606,69.84 79.501729,68.96 c 1.064122,-0.88 2.439557,-1.943743 3.056521,-2.363873 0.616964,-0.42013 2.021101,-1.39213 3.120304,-2.16 1.099202,-0.76787 2.064807,-1.396127 2.145789,-1.396127 0.08098,0 0.693633,-0.374414 1.361449,-0.832031 0.667816,-0.457617 1.502211,-0.963321 1.854211,-1.123786 0.352,-0.160465 1.936,-1.005493 3.52,-1.87784 2.921131,-1.608737 5.488927,-2.898201 7.519997,-3.776299 0.616,-0.266317 1.39816,-0.624577 1.73812,-0.796133 0.33996,-0.171556 0.98796,-0.427581 1.44,-0.568944 0.45204,-0.141363 1.61388,-0.565174 2.58188,-0.941802 0.968,-0.376628 2.408,-0.877949 3.2,-1.114047 0.792,-0.236098 2.196,-0.658735 3.12,-0.939194 0.924,-0.280458 2.436,-0.73909 3.36,-1.019182 1.79012,-0.542636 4.31744,-1.124594 7.44,-1.71318 1.056,-0.199051 2.61163,-0.499656 3.45695,-0.668013 0.84532,-0.168357 3.58132,-0.459104 6.08,-0.646105 2.49868,-0.187001 4.59105,-0.475776 4.64972,-0.641723 0.14968,-0.423383 357.89781,-0.409256 358.32122,0.01415 0.17373,0.173729 2.18253,0.448433 4.464,0.610454 2.28147,0.16202 5.08413,0.465963 6.22813,0.675429 5.94176,1.087931 9.78855,1.938515 12.32,2.724141 0.704,0.218484 2.36,0.719658 3.68,1.113721 2.44515,0.729955 4.20211,1.352361 5.92,2.097165 0.528,0.228919 2.256,0.947593 3.84,1.597053 4.45128,1.825081 14.59319,7.321978 17.32296,9.389013 0.37564,0.284435 1.00392,0.733154 1.39619,0.997154 1.32438,0.891319 4.95845,3.643616 5.28085,3.999501 0.176,0.194282 1.04,0.92107 1.92,1.615085 5.64567,4.452476 13.59635,12.909326 18.01408,19.160931 3.31306,4.68836 8.06592,12.425932 8.06592,13.131162 0,0.0798 0.403,0.83549 0.89555,1.67924 1.87964,3.21983 4.92937,10.84055 6.63277,16.57408 0.31373,1.056 0.75302,2.496 0.9762,3.2 0.39097,1.23333 0.85935,3.2394 1.86783,8 0.50511,2.38443 0.99955,6.08845 1.47371,11.04 0.40476,4.22681 0.38811,360.45009 -0.017,364.64 -0.56792,5.87321 -1.63,12.52433 -2.52941,15.84 -1.70723,6.29373 -3.01625,10.46149 -4.27153,13.6 -1.23613,3.09066 -3.19687,7.65313 -3.43802,8 -0.12236,0.176 -0.7981,1.4 -1.50165,2.72 -2.80596,5.26452 -3.43094,6.34376 -5.18868,8.96 -2.86167,4.25936 -3.23233,4.7694 -5.81381,8 -5.31822,6.65549 -10.6935,11.99097 -17.89136,17.75884 -3.02377,2.42305 -4.86887,3.74622 -6.79424,4.87233 -0.83582,0.48886 -1.51982,0.99683 -1.52,1.12883 -1.7e-4,0.132 -0.16898,0.24 -0.37512,0.24 -0.20615,0 -0.60342,0.20689 -0.88283,0.45976 -0.59782,0.54101 -4.47014,2.61156 -9.62237,5.14512 -4.08686,2.00967 -4.22855,2.074 -6.72,3.051 -0.968,0.37959 -2.048,0.81511 -2.4,0.96782 -0.69606,0.30197 -3.36819,1.15447 -6.4,2.04183 -1.056,0.30907 -2.496,0.74226 -3.2,0.96265 -0.704,0.22038 -2.36,0.63063 -3.68,0.91166 -1.32,0.28103 -3.408,0.72928 -4.64,0.99613 -1.232,0.26684 -3.752,0.64675 -5.6,0.84425 -1.848,0.19749 -4.512,0.48067 -5.92,0.62929 -3.15947,0.3335 -359.1282,0.31018 -362.24002,-0.0237 z m 361.78125,-13.0951 c 0.95632,-0.17013 3.17877,-0.44609 4.93877,-0.61325 3.2922,-0.31268 5.6152,-0.70815 8.96,-1.52537 3.71391,-0.9074 9.30108,-2.56832 10.15566,-3.01901 0.30561,-0.16118 0.71585,-0.29305 0.91164,-0.29305 0.19578,0 0.80974,-0.2054 1.36434,-0.45644 0.5546,-0.25104 2.30436,-0.99522 3.88836,-1.65373 1.584,-0.65852 3.024,-1.29696 3.2,-1.41875 0.39972,-0.27662 5.10557,-2.82812 6.4,-3.47005 2.1499,-1.06619 9.88335,-6.45983 11.84,-8.25773 0.352,-0.32344 1.576,-1.32968 2.72,-2.23609 2.30722,-1.82805 7.26362,-6.83739 8.97139,-9.06721 0.60658,-0.792 1.36829,-1.728 1.69269,-2.08 3.99055,-4.33003 9.31173,-13.02284 13.51593,-22.08 0.71645,-1.54345 2.54197,-6.55635 3.14637,-8.64 0.30632,-1.056 0.67696,-2.21954 0.82366,-2.58565 0.88184,-2.20086 2.3755,-9.82542 3.03534,-15.49435 0.76776,-6.59609 0.76776,-360.44391 0,-367.04 -0.66097,-5.6786 -2.15768,-13.31423 -3.03715,-15.49435 -0.14769,-0.36611 -0.57562,-1.74565 -0.95095,-3.06565 -0.37534,-1.32 -0.80856,-2.688 -0.96271,-3.04 -0.15415,-0.352 -0.59173,-1.432 -0.9724,-2.4 -3.12343,-7.94259 -8.72265,-17.74914 -13.25615,-23.21703 -0.88331,-1.065366 -2.18202,-2.642116 -2.88602,-3.503889 -2.08178,-2.548321 -8.13482,-8.509986 -10.72,-10.55816 -1.32,-1.045805 -2.67349,-2.152565 -3.00776,-2.459467 -0.85261,-0.782818 -7.68104,-5.490935 -8.99224,-6.200043 -0.99607,-0.538681 -6.94645,-3.69735 -7.84,-4.161747 -2.64485,-1.374581 -8.87723,-3.806453 -12.32,-4.807263 -0.88,-0.255815 -2.32,-0.686597 -3.2,-0.957294 -2.60672,-0.801852 -6.68905,-1.619298 -13.76,-2.755302 -3.17047,-0.50936 -356.83929,-0.766227 -364.15562,-0.264484 -6.31227,0.432888 -12.49657,1.427348 -16.8044,2.702218 -4.19658,1.241947 -5.11882,1.522652 -6.88,2.094093 -4.12102,1.337127 -7.85806,2.893905 -11.36,4.732354 -4.836694,2.539176 -6.891376,3.684056 -7.385194,4.115069 -0.277858,0.24252 -0.594639,0.440945 -0.703957,0.440945 -0.497032,0 -7.238714,4.921467 -10.78471,7.8729 -2.339855,1.947527 -8.475044,8.061359 -10.201928,10.166412 -4.367574,5.324028 -8.364209,10.732118 -8.364209,11.318118 0,0.1057 -0.198532,0.41951 -0.441183,0.69737 -0.24265,0.27786 -1.053996,1.6572 -1.80299,3.0652 -0.748994,1.408 -1.845074,3.46104 -2.435734,4.56232 -1.607937,2.99797 -3.292509,7.06191 -4.608461,11.11768 -0.571441,1.76118 -0.852146,2.68342 -2.094093,6.88 -0.931539,3.1477 -1.489817,6.1569 -2.463757,13.28 -0.575237,4.20711 -0.575237,362.51289 0,366.72 0.97394,7.1231 1.532218,10.1323 2.463757,13.28 1.251047,4.22733 1.52333,5.11942 2.099911,6.88 0.863299,2.63607 1.550197,4.54226 1.875289,5.20406 0.150201,0.30577 0.486987,1.05994 0.748413,1.67594 0.612163,1.44244 3.019162,6.24781 4.56819,9.12 1.325574,2.45786 5.60656,8.98797 6.730658,10.26677 1.269249,1.44393 2.13146,2.47854 3.577851,4.29323 3.429859,4.30323 11.942864,12.11076 16.747888,15.36 0.390408,0.264 1.232829,0.84707 1.872047,1.29572 6.416828,4.50375 16.607002,9.35722 24.522212,11.67967 1.056,0.30984 2.496,0.74595 3.2,0.96912 1.2442,0.39443 3.39688,0.89615 8,1.86458 1.232,0.25919 3.54888,0.56563 5.14861,0.68099 1.59973,0.11535 3.39973,0.32553 4,0.46707 1.61119,0.3799 359.13791,0.39329 361.27264,0.0135 z M 128.8,552.62084 c -3.52283,-0.33036 -6.81361,-0.88279 -7.52426,-1.26312 -0.32651,-0.17475 -0.85513,-0.32261 -1.1747,-0.32858 -0.31957,-0.006 -1.15704,-0.28908 -1.86104,-0.62914 -0.704,-0.34006 -1.37748,-0.62317 -1.49663,-0.62914 -0.25702,-0.0129 -4.62343,-2.11388 -5.54337,-2.66731 -7.4796,-4.49977 -13.724874,-11.87888 -16.57444,-19.58355 -0.260374,-0.704 -0.691316,-1.856 -0.95765,-2.56 -1.809038,-4.78183 -1.667907,12.03302 -1.667907,-198.72 0,-210.75302 -0.141131,-193.93817 1.667907,-198.72 1.776931,-4.69696 2.428318,-6.14803 3.734857,-8.32 4.029303,-6.69824 10.466793,-12.52213 17.317233,-15.66662 0.704,-0.32315 1.53124,-0.7111 1.8383,-0.86211 0.70662,-0.34751 3.89617,-1.32541 6.8017,-2.08538 3.41773,-0.893934 387.64598,-0.919449 389.88025,-0.0259 0.77013,0.308 1.73724,0.56 2.14914,0.56 0.4119,0 1.2218,0.20284 1.79977,0.45075 0.57797,0.24791 2.20286,0.92429 3.61086,1.50307 1.408,0.57878 2.92,1.26652 3.36,1.5283 7.83088,4.65912 14.11496,11.49087 17.10698,18.59788 0.33343,0.792 0.84911,2.016 1.14596,2.72 0.29685,0.704 0.76473,2.216 1.03972,3.36 0.275,1.144 0.68499,2.8 0.91109,3.68 0.71371,2.77782 0.80633,381.35818 0.0943,385.44 -0.58458,3.35122 -1.66902,7.66067 -2.05338,8.16 -0.13548,0.176 -0.35597,0.68 -0.48997,1.12 -1.58379,5.20056 -7.05807,12.46443 -12.63469,16.76507 -1.77851,1.37157 -6.54943,4.35326 -6.97135,4.3569 -0.12576,10e-4 -0.58865,0.18787 -1.02865,0.41507 -0.75909,0.39197 -3.18658,1.27375 -5.85631,2.12731 -1.47552,0.47174 -4.26065,0.92837 -7.90369,1.29582 -3.33152,0.33602 -375.133,0.31705 -378.72002,-0.0193 z m 381.76002,-8.15314 c 4.21742,-0.93005 7.96205,-2.33807 10.88,-4.09099 7.85956,-4.72154 12.87267,-11.84668 15.01212,-21.33671 0.74607,-3.30937 0.65695,-383.12682 -0.0907,-386.4 -1.32545,-5.80306 -4.86908,-12.04422 -9.13602,-16.09066 -4.16623,-3.95093 -7.58285,-5.86711 -14.42544,-8.09036 -2.84531,-0.92448 -11.00055,-0.96024 -196.80001,-0.86302 l -189.76001,0.0993 -2.4,0.71038 c -1.32,0.3907 -2.688,0.84755 -3.04,1.01523 -0.352,0.16767 -1.432,0.62521 -2.4,1.01675 -0.968,0.39154 -2.37921,1.11926 -3.13604,1.61715 -0.75682,0.49789 -1.46199,0.90525 -1.56704,0.90525 -1.91344,0 -9.57469,9.2134 -11.30885,13.6 -0.41747,1.056 -0.86108,2.064 -0.98579,2.24 -0.12471,0.176 -0.56325,1.616 -0.97451,3.2 l -0.747766,2.88 V 326.24 517.6 l 0.747766,2.88 c 0.41126,1.584 0.8498,3.024 0.97451,3.2 0.12471,0.176 0.56843,1.184 0.98604,2.24 2.33393,5.90177 8.43951,12.33091 14.73168,15.51236 0.792,0.40046 1.71198,0.86769 2.04438,1.0383 0.92594,0.47523 3.61594,1.27472 6.27562,1.86516 3.55685,0.7896 381.55053,0.91904 385.12002,0.13188 z M 348.23819,500.86251 c -0.31828,-0.20795 -0.38481,-5.91324 -0.32,-27.44252 l 0.0818,-27.17999 2.48,-0.0935 2.48,-0.0935 v 8.94729 c 0,10.93046 -0.21493,10.23922 2.66302,8.5645 9.96861,-5.80091 21.14367,-1.32254 24.67595,9.8888 0.43592,1.3836 0.49648,3.45956 0.42472,14.56 l -0.0837,12.94633 -1.74289,0.0989 c -0.9586,0.0544 -2.0746,0.0157 -2.48,-0.0861 l -0.73711,-0.185 -0.0112,-11.59391 c -0.008,-8.27997 -0.13039,-12.14879 -0.42808,-13.53521 -2.53588,-11.80998 -17.47026,-12.57061 -21.57192,-1.09869 -0.42639,1.19256 -0.54527,3.58447 -0.69181,13.92 l -0.17695,12.48 -2.08,0.0825 c -1.144,0.0454 -2.26082,-0.0356 -2.48182,-0.18001 z m 55.60182,0.0666 c -6.21347,-1.11553 -10.84902,-4.06811 -14.17884,-9.03113 -0.82564,-1.23059 -1.50204,-2.35904 -1.50313,-2.50769 -0.001,-0.14864 -0.21047,-0.66997 -0.46531,-1.15851 -3.6434,-6.98475 -0.0839,-18.58459 7.24173,-23.59965 11.58013,-7.92763 28.81545,-1.22534 30.93872,12.03114 0.13891,0.86722 0.4489,1.88795 0.68888,2.26829 0.35156,0.55716 0.36266,0.9374 0.0571,1.95712 -0.25257,0.843 -0.37919,4.21844 -0.37919,10.10849 V 499.84 h -2.56 -2.56 v -10.16102 c 0,-13.37704 -0.32408,-14.69372 -4.70791,-19.12712 -8.99404,-9.09576 -24.67146,-2.35064 -24.53919,10.55784 0.1337,13.04786 16.10373,19.51734 24.9271,10.098 0.528,-0.56366 1.356,-1.23168 1.84,-1.48449 l 0.88,-0.45965 v 3.3835 c 0,3.22723 -0.0382,3.41889 -0.82676,4.14972 -2.91394,2.70055 -10.72456,4.87352 -14.85324,4.13229 z m 28.16872,-0.27856 c -0.82732,-0.99686 -0.27042,-25.88389 0.63037,-28.17051 2.69386,-6.8382 9.16125,-11.61604 15.2901,-11.2957 l 1.83082,0.0957 0.0957,2.20828 c 0.11671,2.69257 0.17123,2.63561 -3.0628,3.2002 -3.31789,0.57922 -5.73187,2.09344 -7.44738,4.67152 -2.17252,3.26488 -2.22554,3.67076 -2.22554,17.03613 0,8.87234 -0.099,12.05491 -0.384,12.33987 -0.56594,0.56594 -4.24182,0.49946 -4.72729,-0.0855 z m 39.20157,0.25209 c -1.9697,-0.5517 -3.18828,-2.25915 -4.64082,-6.5026 -0.39159,-1.144 -0.84408,-2.368 -1.00554,-2.72 -0.16145,-0.352 -0.4246,-1.072 -0.58477,-1.6 -0.16016,-0.528 -0.60244,-1.752 -0.98283,-2.72 -0.38039,-0.968 -0.81073,-2.192 -0.95632,-2.72 -0.14559,-0.528 -0.57594,-1.752 -0.95633,-2.72 -0.38039,-0.968 -0.82266,-2.192 -0.98283,-2.72 -0.16017,-0.528 -0.42303,-1.248 -0.58413,-1.6 -0.1611,-0.352 -0.82474,-2.152 -1.47474,-4 -1.36458,-3.87957 -1.96758,-5.49986 -2.59428,-6.97086 -0.24623,-0.57797 -0.44769,-1.23984 -0.44769,-1.47083 0,-0.23099 -0.20435,-0.83811 -0.4541,-1.34915 -1.12296,-2.29777 -0.95803,-2.51884 1.95607,-2.62181 2.98565,-0.1055 2.76929,-0.27908 3.90456,3.13265 0.38066,1.144 0.81786,2.368 0.97153,2.72 0.15368,0.352 0.59555,1.576 0.98194,2.72 0.38638,1.144 0.83462,2.368 0.99607,2.72 0.16146,0.352 0.4246,1.072 0.58477,1.6 0.16017,0.528 0.60142,1.752 0.98055,2.72 0.37914,0.968 0.8369,2.264 1.01724,2.88 0.18035,0.616 0.43761,1.264 0.57169,1.44 0.13409,0.176 0.32331,0.68 0.42051,1.12 0.18403,0.8331 1.00278,3.21344 1.48593,4.32 0.27575,0.63155 2.5405,6.9839 2.76661,7.76 0.0641,0.22 0.33706,0.4 0.60658,0.4 0.26953,0 0.58215,0.036 0.69473,0.08 0.11257,0.044 0.38558,-0.496 0.60668,-1.2 0.2211,-0.704 0.93004,-2.72 1.57541,-4.48 0.64537,-1.76 1.51731,-4.208 1.93765,-5.44 0.42034,-1.232 1.07009,-3.032 1.44388,-4 0.3738,-0.968 0.81069,-2.192 0.97085,-2.72 0.16017,-0.528 0.42709,-1.248 0.59316,-1.6 0.16607,-0.352 0.60443,-1.576 0.97414,-2.72 0.36971,-1.144 0.79765,-2.368 0.95097,-2.72 0.36838,-0.84571 2.48942,-6.84125 2.74499,-7.75926 0.24832,-0.89195 1.04035,-1.10198 3.68746,-0.97783 2.32064,0.10884 2.4453,0.34833 1.46638,2.81709 -0.7986,2.01402 -1.39872,3.63669 -2.36692,6.4 -2.08561,5.95241 -3.34648,9.47058 -3.61257,10.08 -0.27884,0.63864 -0.59763,1.5292 -2.06184,5.76 -0.42638,1.232 -0.99956,2.888 -1.27374,3.68 -0.27418,0.792 -0.62454,1.728 -0.77859,2.08 -0.15404,0.352 -0.60576,1.576 -1.00382,2.72 -1.86018,5.34599 -4.35111,7.24062 -8.12849,6.1826 z m 25.66972,-0.12097 c -0.82062,-0.48861 -0.87335,-39.15291 -0.0538,-39.46739 0.27839,-0.10683 1.50348,-0.19424 2.72242,-0.19424 h 2.21625 l -0.0824,19.92 -0.0824,19.92 -2.08,0.0775 c -1.144,0.0426 -2.332,-0.0725 -2.64,-0.2559 z m 0.0824,-42.1078 c -0.83729,-0.95363 -0.98825,-1.34451 -0.82822,-2.14462 0.7565,-3.7825 6.27944,-3.15307 5.85569,0.66735 -0.30739,2.7714 -3.15622,3.6085 -5.02747,1.47727 z M 149.60001,358.91112 c -4.10623,-0.79968 -8.25067,-2.42699 -10.44605,-4.10165 -0.64133,-0.48921 -1.31338,-0.88947 -1.49345,-0.88947 -1.16698,0 -9.34051,-9.45195 -9.34051,-10.80145 0,-0.13641 -0.26008,-0.7499 -0.57796,-1.36329 -2.20485,-4.25451 -3.32245,-13.18358 -2.13857,-17.08612 0.26209,-0.86397 0.47653,-1.97508 0.47653,-2.46914 0,-0.85213 0.47141,-2.20594 1.47149,-4.22593 0.24668,-0.49827 0.44851,-1.06083 0.44851,-1.25016 0,-0.77653 3.19788,-5.29116 5.44,-7.67996 8.44216,-8.99442 21.75516,-11.74221 33.28001,-6.86896 2.08384,0.88114 3.1863,1.50259 6.2112,3.50118 3.06789,2.027 7.93403,8.24064 9.4633,12.08383 0.38518,0.968 0.82928,2.00571 0.9869,2.30602 0.15761,0.30032 0.37909,1.16432 0.49217,1.92 0.11308,0.75569 0.40379,2.16023 0.64601,3.12121 0.57558,2.28348 0.55586,6.75438 -0.0396,8.97277 -0.25983,0.968 -0.47412,2.08496 -0.47621,2.48214 -0.006,1.22919 -2.2613,6.523 -3.78142,8.87786 -6.65443,10.30855 -18.99217,15.73606 -30.62237,13.47112 z m 10.24,-6.46008 c 6.55328,-1.49388 11.73795,-5.24831 15.43522,-11.17725 3.41239,-5.47211 3.92231,-15.34769 1.09847,-21.27379 -1.49078,-3.12854 -6.11973,-8.96 -7.11235,-8.96 -0.1406,0 -0.44592,-0.18508 -0.67849,-0.4113 -1.98903,-1.93465 -6.92984,-3.76999 -12.34596,-4.5861 -2.36395,-0.3562 -8.00904,0.83868 -11.27657,2.38688 -15.60915,7.39583 -17.99312,28.57038 -4.44737,39.50184 0.81013,0.65377 1.55891,1.18868 1.66396,1.18868 0.10505,0 0.81022,0.4005 1.56704,0.89 1.68064,1.08702 2.98987,1.59164 5.6773,2.18825 1.13369,0.25167 2.12969,0.52602 2.21333,0.60967 0.36172,0.36171 6.15927,0.10956 8.20542,-0.35688 z m 52.8,-13.38453 c -6.97546,-1.84462 -9.74517,-9.66628 -5.46588,-15.43568 4.33462,-5.84399 13.50086,-4.86804 16.74001,1.78235 3.56087,7.31092 -3.39651,15.73652 -11.27413,13.65333 z M 139.0333,188.994 c -5.82784,-1.82617 -6.14532,-7.99945 -0.70436,-13.69598 1.58806,-1.66265 3.78665,-4.82373 3.63317,-5.22369 -0.18498,-0.48204 -4.12683,-0.71586 -8.54364,-0.50679 -5.65255,0.26757 -9.14901,-3.36745 -8.4119,-8.74525 0.19792,-1.44401 1.12351,-2.8813 4.59343,-7.13281 1.144,-1.40169 3.80193,-4.69523 5.90651,-7.319 8.00356,-9.97798 8.68838,-10.54018 12.57173,-10.32075 5.70667,0.32245 8.39793,7.81652 4.23411,11.79027 -0.0922,0.088 -0.95441,1.168 -1.916,2.4 -0.96159,1.232 -2.14652,2.672 -2.63318,3.2 -0.83262,0.90335 -1.39634,1.99662 -1.15238,2.23492 0.0601,0.0587 2.91722,0.21289 6.34922,0.34271 6.73664,0.25482 7.4401,0.44171 9.12418,2.42408 2.94883,3.47114 2.5364,6.48845 -1.59082,11.63829 -1.26946,1.584 -4.0749,5.112 -6.23432,7.84 -6.06654,7.6639 -6.13795,7.75014 -7.6839,9.28 -2.08888,2.06713 -4.69319,2.68663 -7.54185,1.794 z m 5.07292,-4.44337 c 1.23455,-1.23456 3.34687,-3.7769 8.05379,-9.69338 0.88,-1.10614 2.00834,-2.51931 2.50743,-3.14038 1.3232,-1.64659 1.02047,-1.79687 -3.61976,-1.79687 h -4.11455 l -2.18391,2.8 c -1.20115,1.54 -3.22667,4.096 -4.50116,5.68 -2.1279,2.64465 -2.3177,3.00189 -2.32266,4.37155 -0.0119,3.28153 3.63008,4.32982 6.18082,1.77908 z m 15.17379,-19.19465 c 0.96878,-0.8982 1.00233,-3.55135 0.0592,-4.68393 -1.05653,-1.26879 -3.52749,-1.34324 -4.68455,-0.14113 -2.60284,2.70419 -4.13771,4.83447 -3.75649,5.21371 0.88493,0.88032 7.33573,0.58121 8.38181,-0.38865 z m -12.53755,-0.44685 c 4.98075,-6.2203 4.9605,-5.86913 0.3383,-5.86913 h -3.63924 l -1.25165,1.36 c -2.07313,2.25259 -4.01844,4.99016 -3.79867,5.34575 0.1238,0.20032 1.65055,0.33425 3.81014,0.33425 h 3.60357 z m -13.31179,0.3757 c 0.50538,-0.26135 1.22687,-0.90771 1.60331,-1.43637 0.37644,-0.52866 1.32444,-1.71099 2.10667,-2.62739 1.78979,-2.09679 1.71236,-2.15729 -2.85125,-2.22764 -3.63611,-0.0561 -3.79873,-0.0296 -4.57368,0.7454 -2.77891,2.77891 0.26843,7.32826 3.71495,5.546 z m 8.92698,-10.64975 c 0.6393,-0.66271 1.45275,-1.56271 1.80769,-2 0.35493,-0.4373 1.50693,-1.85511 2.56,-3.1507 4.6013,-5.66099 4.98778,-6.53719 3.72688,-8.44938 -2.5719,-3.90037 -4.43072,-2.66451 -13.31254,8.85096 -0.69318,0.89872 -1.80918,2.26631 -2.48,3.03909 -2.17482,2.50537 -1.82878,2.79951 3.37797,2.87137 l 3.15765,0.0436 z"
       id="path1" />
  </g>
</svg>
